<svg width="800" height="800" viewBox="0 0 800 800" fill="none" xmlns="http://www.w3.org/2000/svg">
<path fill-rule="evenodd" clip-rule="evenodd" d="M400 66.6665C215.906 66.6665 66.667 215.903 66.667 400C66.667 584.094 215.906 733.333 400 733.333C584.097 733.333 733.334 584.094 733.334 400C733.334 215.903 584.097 66.6665 400 66.6665ZM400 666.667C252.961 666.667 133.334 547.039 133.334 400C133.334 252.96 252.961 133.333 400 133.333C547.042 133.333 666.667 252.96 666.667 400C666.667 547.039 547.042 666.667 400 666.667ZM441.74 266.667C441.74 290.835 424.144 308.333 400.339 308.333C375.571 308.333 358.407 290.835 358.407 266.204C358.407 242.532 376.036 225 400.339 225C424.144 225 441.74 242.532 441.74 266.667ZM366.74 366.667H433.407V566.667H366.74V366.667Z" fill="#304BA0"/>
</svg>
