<svg width="396" height="64" viewBox="0 0 396 64" fill="none" xmlns="http://www.w3.org/2000/svg">
<rect width="396" height="64" rx="8" fill="url(#paint0_linear_2040_3602)"/>
<path d="M47.646 27.558V30.414H51.006V31.716H47.646V34.698H51.426V36H46.05V26.256H51.426V27.558H47.646ZM52.8598 32.108C52.8598 31.3333 53.0185 30.6473 53.3358 30.05C53.6625 29.4527 54.1011 28.9907 54.6518 28.664C55.2118 28.328 55.8278 28.16 56.4998 28.16C57.1065 28.16 57.6338 28.2813 58.0818 28.524C58.5391 28.7573 58.9031 29.0513 59.1738 29.406V28.286H60.7838V36H59.1738V34.852C58.9031 35.216 58.5345 35.5193 58.0678 35.762C57.6011 36.0047 57.0691 36.126 56.4718 36.126C55.8091 36.126 55.2025 35.958 54.6518 35.622C54.1011 35.2767 53.6625 34.8007 53.3358 34.194C53.0185 33.578 52.8598 32.8827 52.8598 32.108ZM59.1738 32.136C59.1738 31.604 59.0618 31.142 58.8378 30.75C58.6231 30.358 58.3385 30.0593 57.9838 29.854C57.6291 29.6487 57.2465 29.546 56.8358 29.546C56.4251 29.546 56.0425 29.6487 55.6878 29.854C55.3331 30.05 55.0438 30.344 54.8198 30.736C54.6051 31.1187 54.4978 31.576 54.4978 32.108C54.4978 32.64 54.6051 33.1067 54.8198 33.508C55.0438 33.9093 55.3331 34.2173 55.6878 34.432C56.0518 34.6373 56.4345 34.74 56.8358 34.74C57.2465 34.74 57.6291 34.6373 57.9838 34.432C58.3385 34.2267 58.6231 33.928 58.8378 33.536C59.0618 33.1347 59.1738 32.668 59.1738 32.136ZM65.6801 36.126C65.0734 36.126 64.5274 36.0187 64.0421 35.804C63.5661 35.58 63.1881 35.2813 62.9081 34.908C62.6281 34.5253 62.4787 34.1007 62.4601 33.634H64.1121C64.1401 33.9607 64.2941 34.236 64.5741 34.46C64.8634 34.6747 65.2227 34.782 65.6521 34.782C66.1001 34.782 66.4454 34.698 66.6881 34.53C66.9401 34.3527 67.0661 34.1287 67.0661 33.858C67.0661 33.5687 66.9261 33.354 66.6461 33.214C66.3754 33.074 65.9414 32.92 65.3441 32.752C64.7654 32.5933 64.2941 32.4393 63.9301 32.29C63.5661 32.1407 63.2487 31.912 62.9781 31.604C62.7167 31.296 62.5861 30.89 62.5861 30.386C62.5861 29.9753 62.7074 29.602 62.9501 29.266C63.1927 28.9207 63.5381 28.65 63.9861 28.454C64.4434 28.258 64.9661 28.16 65.5541 28.16C66.4314 28.16 67.1361 28.384 67.6681 28.832C68.2094 29.2707 68.4987 29.8727 68.5361 30.638H66.9401C66.9121 30.2927 66.7721 30.0173 66.5201 29.812C66.2681 29.6067 65.9274 29.504 65.4981 29.504C65.0781 29.504 64.7561 29.5833 64.5321 29.742C64.3081 29.9007 64.1961 30.1107 64.1961 30.372C64.1961 30.5773 64.2707 30.75 64.4201 30.89C64.5694 31.03 64.7514 31.142 64.9661 31.226C65.1807 31.3007 65.4981 31.3987 65.9181 31.52C66.4781 31.6693 66.9354 31.8233 67.2901 31.982C67.6541 32.1313 67.9667 32.3553 68.2281 32.654C68.4894 32.9527 68.6247 33.3493 68.6341 33.844C68.6341 34.2827 68.5127 34.6747 68.2701 35.02C68.0274 35.3653 67.6821 35.636 67.2341 35.832C66.7954 36.028 66.2774 36.126 65.6801 36.126ZM77.3026 28.286L72.5706 39.626H70.9186L72.4866 35.874L69.4486 28.286H71.2266L73.3966 34.166L75.6506 28.286H77.3026ZM83.7398 29.406C83.9731 29.014 84.2811 28.7107 84.6638 28.496C85.0558 28.272 85.5178 28.16 86.0498 28.16V29.812H85.6438C85.0184 29.812 84.5424 29.9707 84.2158 30.288C83.8984 30.6053 83.7398 31.156 83.7398 31.94V36H82.1438V28.286H83.7398V29.406ZM94.5868 31.954C94.5868 32.2433 94.5681 32.5047 94.5308 32.738H88.6368C88.6835 33.354 88.9121 33.8487 89.3228 34.222C89.7335 34.5953 90.2375 34.782 90.8348 34.782C91.6935 34.782 92.3001 34.4227 92.6548 33.704H94.3768C94.1435 34.4133 93.7188 34.9967 93.1028 35.454C92.4961 35.902 91.7401 36.126 90.8348 36.126C90.0975 36.126 89.4348 35.9627 88.8468 35.636C88.2681 35.3 87.8108 34.8333 87.4748 34.236C87.1481 33.6293 86.9848 32.9293 86.9848 32.136C86.9848 31.3427 87.1435 30.6473 87.4608 30.05C87.7875 29.4433 88.2401 28.9767 88.8188 28.65C89.4068 28.3233 90.0788 28.16 90.8348 28.16C91.5628 28.16 92.2115 28.3187 92.7808 28.636C93.3501 28.9533 93.7935 29.4013 94.1108 29.98C94.4281 30.5493 94.5868 31.2073 94.5868 31.954ZM92.9208 31.45C92.9115 30.862 92.7015 30.3907 92.2908 30.036C91.8801 29.6813 91.3715 29.504 90.7648 29.504C90.2141 29.504 89.7428 29.6813 89.3508 30.036C88.9588 30.3813 88.7255 30.8527 88.6508 31.45H92.9208ZM98.0194 29.588V33.858C98.0194 34.1473 98.0848 34.3573 98.2154 34.488C98.3554 34.6093 98.5888 34.67 98.9154 34.67H99.8954V36H98.6354C97.9168 36 97.3661 35.832 96.9834 35.496C96.6008 35.16 96.4094 34.614 96.4094 33.858V29.588H95.4994V28.286H96.4094V26.368H98.0194V28.286H99.8954V29.588H98.0194ZM108.352 28.286V36H106.756V35.09C106.504 35.4073 106.173 35.6593 105.762 35.846C105.361 36.0233 104.932 36.112 104.474 36.112C103.868 36.112 103.322 35.986 102.836 35.734C102.36 35.482 101.982 35.1087 101.702 34.614C101.432 34.1193 101.296 33.522 101.296 32.822V28.286H102.878V32.584C102.878 33.2747 103.051 33.8067 103.396 34.18C103.742 34.544 104.213 34.726 104.81 34.726C105.408 34.726 105.879 34.544 106.224 34.18C106.579 33.8067 106.756 33.2747 106.756 32.584V28.286H108.352ZM112.054 29.406C112.288 29.014 112.596 28.7107 112.978 28.496C113.37 28.272 113.832 28.16 114.364 28.16V29.812H113.958C113.333 29.812 112.857 29.9707 112.53 30.288C112.213 30.6053 112.054 31.156 112.054 31.94V36H110.458V28.286H112.054V29.406ZM119.723 28.16C120.33 28.16 120.871 28.286 121.347 28.538C121.833 28.79 122.211 29.1633 122.481 29.658C122.752 30.1527 122.887 30.75 122.887 31.45V36H121.305V31.688C121.305 30.9973 121.133 30.47 120.787 30.106C120.442 29.7327 119.971 29.546 119.373 29.546C118.776 29.546 118.3 29.7327 117.945 30.106C117.6 30.47 117.427 30.9973 117.427 31.688V36H115.831V28.286H117.427V29.168C117.689 28.8507 118.02 28.6033 118.421 28.426C118.832 28.2487 119.266 28.16 119.723 28.16Z" fill="#0E4583"/>
<path d="M140 14V50" stroke="#0E4583"/>
<path d="M190.092 29.07C189.84 28.5847 189.49 28.2207 189.042 27.978C188.594 27.726 188.076 27.6 187.488 27.6C186.844 27.6 186.27 27.7447 185.766 28.034C185.262 28.3233 184.865 28.734 184.576 29.266C184.296 29.798 184.156 30.414 184.156 31.114C184.156 31.814 184.296 32.4347 184.576 32.976C184.865 33.508 185.262 33.9187 185.766 34.208C186.27 34.4973 186.844 34.642 187.488 34.642C188.356 34.642 189.061 34.3993 189.602 33.914C190.143 33.4287 190.475 32.7707 190.596 31.94H186.942V30.666H192.304V31.912C192.201 32.668 191.931 33.3633 191.492 33.998C191.063 34.6327 190.498 35.1413 189.798 35.524C189.107 35.8973 188.337 36.084 187.488 36.084C186.573 36.084 185.738 35.874 184.982 35.454C184.226 35.0247 183.624 34.432 183.176 33.676C182.737 32.92 182.518 32.066 182.518 31.114C182.518 30.162 182.737 29.308 183.176 28.552C183.624 27.796 184.226 27.208 184.982 26.788C185.747 26.3587 186.583 26.144 187.488 26.144C188.524 26.144 189.443 26.4007 190.246 26.914C191.058 27.418 191.646 28.1367 192.01 29.07H190.092ZM195.474 29.406C195.707 29.014 196.015 28.7107 196.398 28.496C196.79 28.272 197.252 28.16 197.784 28.16V29.812H197.378C196.753 29.812 196.277 29.9707 195.95 30.288C195.633 30.6053 195.474 31.156 195.474 31.94V36H193.878V28.286H195.474V29.406ZM198.719 32.108C198.719 31.3333 198.878 30.6473 199.195 30.05C199.522 29.4527 199.961 28.9907 200.511 28.664C201.071 28.328 201.687 28.16 202.359 28.16C202.966 28.16 203.493 28.2813 203.941 28.524C204.399 28.7573 204.763 29.0513 205.033 29.406V28.286H206.643V36H205.033V34.852C204.763 35.216 204.394 35.5193 203.927 35.762C203.461 36.0047 202.929 36.126 202.331 36.126C201.669 36.126 201.062 35.958 200.511 35.622C199.961 35.2767 199.522 34.8007 199.195 34.194C198.878 33.578 198.719 32.8827 198.719 32.108ZM205.033 32.136C205.033 31.604 204.921 31.142 204.697 30.75C204.483 30.358 204.198 30.0593 203.843 29.854C203.489 29.6487 203.106 29.546 202.695 29.546C202.285 29.546 201.902 29.6487 201.547 29.854C201.193 30.05 200.903 30.344 200.679 30.736C200.465 31.1187 200.357 31.576 200.357 32.108C200.357 32.64 200.465 33.1067 200.679 33.508C200.903 33.9093 201.193 34.2173 201.547 34.432C201.911 34.6373 202.294 34.74 202.695 34.74C203.106 34.74 203.489 34.6373 203.843 34.432C204.198 34.2267 204.483 33.928 204.697 33.536C204.921 33.1347 205.033 32.668 205.033 32.136ZM210.335 29.434C210.606 29.0607 210.975 28.7573 211.441 28.524C211.917 28.2813 212.445 28.16 213.023 28.16C213.705 28.16 214.321 28.3233 214.871 28.65C215.422 28.9767 215.856 29.4433 216.173 30.05C216.491 30.6473 216.649 31.3333 216.649 32.108C216.649 32.8827 216.491 33.578 216.173 34.194C215.856 34.8007 215.417 35.2767 214.857 35.622C214.307 35.958 213.695 36.126 213.023 36.126C212.426 36.126 211.894 36.0093 211.427 35.776C210.97 35.5427 210.606 35.244 210.335 34.88V36H208.739V25.64H210.335V29.434ZM215.025 32.108C215.025 31.576 214.913 31.1187 214.689 30.736C214.475 30.344 214.185 30.05 213.821 29.854C213.467 29.6487 213.084 29.546 212.673 29.546C212.272 29.546 211.889 29.6487 211.525 29.854C211.171 30.0593 210.881 30.358 210.657 30.75C210.443 31.142 210.335 31.604 210.335 32.136C210.335 32.668 210.443 33.1347 210.657 33.536C210.881 33.928 211.171 34.2267 211.525 34.432C211.889 34.6373 212.272 34.74 212.673 34.74C213.084 34.74 213.467 34.6373 213.821 34.432C214.185 34.2173 214.475 33.9093 214.689 33.508C214.913 33.1067 215.025 32.64 215.025 32.108ZM228.808 28.286L224.076 39.626H222.424L223.992 35.874L220.954 28.286H222.732L224.902 34.166L227.156 28.286H228.808ZM233.359 36.126C232.631 36.126 231.973 35.9627 231.385 35.636C230.797 35.3 230.335 34.8333 229.999 34.236C229.663 33.6293 229.495 32.9293 229.495 32.136C229.495 31.352 229.668 30.6567 230.013 30.05C230.358 29.4433 230.83 28.9767 231.427 28.65C232.024 28.3233 232.692 28.16 233.429 28.16C234.166 28.16 234.834 28.3233 235.431 28.65C236.028 28.9767 236.5 29.4433 236.845 30.05C237.19 30.6567 237.363 31.352 237.363 32.136C237.363 32.92 237.186 33.6153 236.831 34.222C236.476 34.8287 235.991 35.3 235.375 35.636C234.768 35.9627 234.096 36.126 233.359 36.126ZM233.359 34.74C233.77 34.74 234.152 34.642 234.507 34.446C234.871 34.25 235.165 33.956 235.389 33.564C235.613 33.172 235.725 32.696 235.725 32.136C235.725 31.576 235.618 31.1047 235.403 30.722C235.188 30.33 234.904 30.036 234.549 29.84C234.194 29.644 233.812 29.546 233.401 29.546C232.99 29.546 232.608 29.644 232.253 29.84C231.908 30.036 231.632 30.33 231.427 30.722C231.222 31.1047 231.119 31.576 231.119 32.136C231.119 32.9667 231.329 33.6107 231.749 34.068C232.178 34.516 232.715 34.74 233.359 34.74ZM245.927 28.286V36H244.331V35.09C244.079 35.4073 243.747 35.6593 243.337 35.846C242.935 36.0233 242.506 36.112 242.049 36.112C241.442 36.112 240.896 35.986 240.411 35.734C239.935 35.482 239.557 35.1087 239.277 34.614C239.006 34.1193 238.871 33.522 238.871 32.822V28.286H240.453V32.584C240.453 33.2747 240.625 33.8067 240.971 34.18C241.316 34.544 241.787 34.726 242.385 34.726C242.982 34.726 243.453 34.544 243.799 34.18C244.153 33.8067 244.331 33.2747 244.331 32.584V28.286H245.927ZM249.628 29.406C249.862 29.014 250.17 28.7107 250.552 28.496C250.944 28.272 251.406 28.16 251.938 28.16V29.812H251.532C250.907 29.812 250.431 29.9707 250.104 30.288C249.787 30.6053 249.628 31.156 249.628 31.94V36H248.032V28.286H249.628V29.406ZM258.638 29.42C258.909 29.0653 259.278 28.7667 259.744 28.524C260.211 28.2813 260.738 28.16 261.326 28.16C261.998 28.16 262.61 28.328 263.16 28.664C263.72 28.9907 264.159 29.4527 264.476 30.05C264.794 30.6473 264.952 31.3333 264.952 32.108C264.952 32.8827 264.794 33.578 264.476 34.194C264.159 34.8007 263.72 35.2767 263.16 35.622C262.61 35.958 261.998 36.126 261.326 36.126C260.738 36.126 260.216 36.0093 259.758 35.776C259.301 35.5333 258.928 35.2347 258.638 34.88V39.668H257.042V28.286H258.638V29.42ZM263.328 32.108C263.328 31.576 263.216 31.1187 262.992 30.736C262.778 30.344 262.488 30.05 262.124 29.854C261.77 29.6487 261.387 29.546 260.976 29.546C260.575 29.546 260.192 29.6487 259.828 29.854C259.474 30.0593 259.184 30.358 258.96 30.75C258.746 31.142 258.638 31.604 258.638 32.136C258.638 32.668 258.746 33.1347 258.96 33.536C259.184 33.928 259.474 34.2267 259.828 34.432C260.192 34.6373 260.575 34.74 260.976 34.74C261.387 34.74 261.77 34.6373 262.124 34.432C262.488 34.2173 262.778 33.9093 262.992 33.508C263.216 33.1067 263.328 32.64 263.328 32.108ZM268.126 29.406C268.36 29.014 268.668 28.7107 269.05 28.496C269.442 28.272 269.904 28.16 270.436 28.16V29.812H270.03C269.405 29.812 268.929 29.9707 268.602 30.288C268.285 30.6053 268.126 31.156 268.126 31.94V36H266.53V28.286H268.126V29.406ZM275.25 36.126C274.522 36.126 273.864 35.9627 273.276 35.636C272.688 35.3 272.226 34.8333 271.89 34.236C271.554 33.6293 271.386 32.9293 271.386 32.136C271.386 31.352 271.558 30.6567 271.904 30.05C272.249 29.4433 272.72 28.9767 273.318 28.65C273.915 28.3233 274.582 28.16 275.32 28.16C276.057 28.16 276.724 28.3233 277.322 28.65C277.919 28.9767 278.39 29.4433 278.736 30.05C279.081 30.6567 279.254 31.352 279.254 32.136C279.254 32.92 279.076 33.6153 278.722 34.222C278.367 34.8287 277.882 35.3 277.266 35.636C276.659 35.9627 275.987 36.126 275.25 36.126ZM275.25 34.74C275.66 34.74 276.043 34.642 276.398 34.446C276.762 34.25 277.056 33.956 277.28 33.564C277.504 33.172 277.616 32.696 277.616 32.136C277.616 31.576 277.508 31.1047 277.294 30.722C277.079 30.33 276.794 30.036 276.44 29.84C276.085 29.644 275.702 29.546 275.292 29.546C274.881 29.546 274.498 29.644 274.144 29.84C273.798 30.036 273.523 30.33 273.318 30.722C273.112 31.1047 273.01 31.576 273.01 32.136C273.01 32.9667 273.22 33.6107 273.64 34.068C274.069 34.516 274.606 34.74 275.25 34.74ZM280.299 32.108C280.299 31.3333 280.458 30.6473 280.775 30.05C281.102 29.4527 281.541 28.9907 282.091 28.664C282.651 28.328 283.272 28.16 283.953 28.16C284.457 28.16 284.952 28.272 285.437 28.496C285.932 28.7107 286.324 29 286.613 29.364V25.64H288.223V36H286.613V34.838C286.352 35.2113 285.988 35.5193 285.521 35.762C285.064 36.0047 284.537 36.126 283.939 36.126C283.267 36.126 282.651 35.958 282.091 35.622C281.541 35.2767 281.102 34.8007 280.775 34.194C280.458 33.578 280.299 32.8827 280.299 32.108ZM286.613 32.136C286.613 31.604 286.501 31.142 286.277 30.75C286.063 30.358 285.778 30.0593 285.423 29.854C285.069 29.6487 284.686 29.546 284.275 29.546C283.865 29.546 283.482 29.6487 283.127 29.854C282.773 30.05 282.483 30.344 282.259 30.736C282.045 31.1187 281.937 31.576 281.937 32.108C281.937 32.64 282.045 33.1067 282.259 33.508C282.483 33.9093 282.773 34.2173 283.127 34.432C283.491 34.6373 283.874 34.74 284.275 34.74C284.686 34.74 285.069 34.6373 285.423 34.432C285.778 34.2267 286.063 33.928 286.277 33.536C286.501 33.1347 286.613 32.668 286.613 32.136ZM297.306 28.286V36H295.71V35.09C295.458 35.4073 295.126 35.6593 294.716 35.846C294.314 36.0233 293.885 36.112 293.428 36.112C292.821 36.112 292.275 35.986 291.79 35.734C291.314 35.482 290.936 35.1087 290.656 34.614C290.385 34.1193 290.25 33.522 290.25 32.822V28.286H291.832V32.584C291.832 33.2747 292.004 33.8067 292.35 34.18C292.695 34.544 293.166 34.726 293.764 34.726C294.361 34.726 294.832 34.544 295.178 34.18C295.532 33.8067 295.71 33.2747 295.71 32.584V28.286H297.306ZM298.879 32.136C298.879 31.3427 299.038 30.6473 299.355 30.05C299.682 29.4433 300.13 28.9767 300.699 28.65C301.269 28.3233 301.922 28.16 302.659 28.16C303.593 28.16 304.363 28.384 304.969 28.832C305.585 29.2707 306.001 29.9007 306.215 30.722H304.493C304.353 30.3393 304.129 30.0407 303.821 29.826C303.513 29.6113 303.126 29.504 302.659 29.504C302.006 29.504 301.483 29.7373 301.091 30.204C300.709 30.6613 300.517 31.3053 300.517 32.136C300.517 32.9667 300.709 33.6153 301.091 34.082C301.483 34.5487 302.006 34.782 302.659 34.782C303.583 34.782 304.195 34.376 304.493 33.564H306.215C305.991 34.348 305.571 34.9733 304.955 35.44C304.339 35.8973 303.574 36.126 302.659 36.126C301.922 36.126 301.269 35.9627 300.699 35.636C300.13 35.3 299.682 34.8333 299.355 34.236C299.038 33.6293 298.879 32.9293 298.879 32.136ZM309.668 29.588V33.858C309.668 34.1473 309.733 34.3573 309.864 34.488C310.004 34.6093 310.237 34.67 310.564 34.67H311.544V36H310.284C309.565 36 309.015 35.832 308.632 35.496C308.249 35.16 308.058 34.614 308.058 33.858V29.588H307.148V28.286H308.058V26.368H309.668V28.286H311.544V29.588H309.668ZM319.452 36.126C318.845 36.126 318.299 36.0187 317.814 35.804C317.338 35.58 316.96 35.2813 316.68 34.908C316.4 34.5253 316.25 34.1007 316.232 33.634H317.884C317.912 33.9607 318.066 34.236 318.346 34.46C318.635 34.6747 318.994 34.782 319.424 34.782C319.872 34.782 320.217 34.698 320.46 34.53C320.712 34.3527 320.838 34.1287 320.838 33.858C320.838 33.5687 320.698 33.354 320.418 33.214C320.147 33.074 319.713 32.92 319.116 32.752C318.537 32.5933 318.066 32.4393 317.702 32.29C317.338 32.1407 317.02 31.912 316.75 31.604C316.488 31.296 316.358 30.89 316.358 30.386C316.358 29.9753 316.479 29.602 316.722 29.266C316.964 28.9207 317.31 28.65 317.758 28.454C318.215 28.258 318.738 28.16 319.326 28.16C320.203 28.16 320.908 28.384 321.44 28.832C321.981 29.2707 322.27 29.8727 322.308 30.638H320.712C320.684 30.2927 320.544 30.0173 320.292 29.812C320.04 29.6067 319.699 29.504 319.27 29.504C318.85 29.504 318.528 29.5833 318.304 29.742C318.08 29.9007 317.968 30.1107 317.968 30.372C317.968 30.5773 318.042 30.75 318.192 30.89C318.341 31.03 318.523 31.142 318.738 31.226C318.952 31.3007 319.27 31.3987 319.69 31.52C320.25 31.6693 320.707 31.8233 321.062 31.982C321.426 32.1313 321.738 32.3553 322 32.654C322.261 32.9527 322.396 33.3493 322.406 33.844C322.406 34.2827 322.284 34.6747 322.042 35.02C321.799 35.3653 321.454 35.636 321.006 35.832C320.567 36.028 320.049 36.126 319.452 36.126ZM327.476 36.126C326.748 36.126 326.09 35.9627 325.502 35.636C324.914 35.3 324.452 34.8333 324.116 34.236C323.78 33.6293 323.612 32.9293 323.612 32.136C323.612 31.352 323.785 30.6567 324.13 30.05C324.475 29.4433 324.947 28.9767 325.544 28.65C326.141 28.3233 326.809 28.16 327.546 28.16C328.283 28.16 328.951 28.3233 329.548 28.65C330.145 28.9767 330.617 29.4433 330.962 30.05C331.307 30.6567 331.48 31.352 331.48 32.136C331.48 32.92 331.303 33.6153 330.948 34.222C330.593 34.8287 330.108 35.3 329.492 35.636C328.885 35.9627 328.213 36.126 327.476 36.126ZM327.476 34.74C327.887 34.74 328.269 34.642 328.624 34.446C328.988 34.25 329.282 33.956 329.506 33.564C329.73 33.172 329.842 32.696 329.842 32.136C329.842 31.576 329.735 31.1047 329.52 30.722C329.305 30.33 329.021 30.036 328.666 29.84C328.311 29.644 327.929 29.546 327.518 29.546C327.107 29.546 326.725 29.644 326.37 29.84C326.025 30.036 325.749 30.33 325.544 30.722C325.339 31.1047 325.236 31.576 325.236 32.136C325.236 32.9667 325.446 33.6107 325.866 34.068C326.295 34.516 326.832 34.74 327.476 34.74ZM336.404 36.126C335.676 36.126 335.018 35.9627 334.43 35.636C333.842 35.3 333.38 34.8333 333.044 34.236C332.708 33.6293 332.54 32.9293 332.54 32.136C332.54 31.352 332.712 30.6567 333.058 30.05C333.403 29.4433 333.874 28.9767 334.472 28.65C335.069 28.3233 335.736 28.16 336.474 28.16C337.211 28.16 337.878 28.3233 338.476 28.65C339.073 28.9767 339.544 29.4433 339.89 30.05C340.235 30.6567 340.408 31.352 340.408 32.136C340.408 32.92 340.23 33.6153 339.876 34.222C339.521 34.8287 339.036 35.3 338.42 35.636C337.813 35.9627 337.141 36.126 336.404 36.126ZM336.404 34.74C336.814 34.74 337.197 34.642 337.552 34.446C337.916 34.25 338.21 33.956 338.434 33.564C338.658 33.172 338.77 32.696 338.77 32.136C338.77 31.576 338.662 31.1047 338.448 30.722C338.233 30.33 337.948 30.036 337.594 29.84C337.239 29.644 336.856 29.546 336.446 29.546C336.035 29.546 335.652 29.644 335.298 29.84C334.952 30.036 334.677 30.33 334.472 30.722C334.266 31.1047 334.164 31.576 334.164 32.136C334.164 32.9667 334.374 33.6107 334.794 34.068C335.223 34.516 335.76 34.74 336.404 34.74ZM345.878 28.16C346.484 28.16 347.026 28.286 347.502 28.538C347.987 28.79 348.365 29.1633 348.636 29.658C348.906 30.1527 349.042 30.75 349.042 31.45V36H347.46V31.688C347.46 30.9973 347.287 30.47 346.942 30.106C346.596 29.7327 346.125 29.546 345.528 29.546C344.93 29.546 344.454 29.7327 344.1 30.106C343.754 30.47 343.582 30.9973 343.582 31.688V36H341.986V28.286H343.582V29.168C343.843 28.8507 344.174 28.6033 344.576 28.426C344.986 28.2487 345.42 28.16 345.878 28.16Z" fill="#0E4583"/>
<defs>
<linearGradient id="paint0_linear_2040_3602" x1="0" y1="32" x2="396" y2="32" gradientUnits="userSpaceOnUse">
<stop stop-color="#64BFF0"/>
<stop offset="1" stop-color="#B2D1E3"/>
</linearGradient>
</defs>
</svg>
