<svg width="16" height="16" viewBox="0 0 16 16" fill="none" xmlns="http://www.w3.org/2000/svg">
<mask id="mask0_59_942" style="mask-type:alpha" maskUnits="userSpaceOnUse" x="0" y="0" width="16" height="16">
<rect width="16" height="16" fill="#D9D9D9"/>
</mask>
<g mask="url(#mask0_59_942)">
<path d="M7.49984 11.1666H8.49984V8.49996H11.1665V7.49996H8.49984V4.83329H7.49984V7.49996H4.83317V8.49996H7.49984V11.1666ZM8.001 14.3333C7.125 14.3333 6.30161 14.1671 5.53084 13.8346C4.76006 13.5022 4.08961 13.051 3.5195 12.4811C2.94939 11.9112 2.498 11.2411 2.16534 10.4706C1.83278 9.70018 1.6665 8.87702 1.6665 8.00113C1.6665 7.12513 1.83273 6.30174 2.16517 5.53096C2.49762 4.76018 2.94878 4.08974 3.51867 3.51963C4.08856 2.94951 4.75873 2.49813 5.52917 2.16546C6.29962 1.8329 7.12278 1.66663 7.99867 1.66663C8.87467 1.66663 9.69806 1.83285 10.4688 2.16529C11.2396 2.49774 11.9101 2.9489 12.4802 3.51879C13.0503 4.08868 13.5017 4.75885 13.8343 5.52929C14.1669 6.29974 14.3332 7.1229 14.3332 7.99879C14.3332 8.87479 14.1669 9.69818 13.8345 10.469C13.5021 11.2397 13.0509 11.9102 12.481 12.4803C11.9111 13.0504 11.2409 13.5018 10.4705 13.8345C9.70006 14.167 8.87689 14.3333 8.001 14.3333ZM7.99984 13.3333C9.48873 13.3333 10.7498 12.8166 11.7832 11.7833C12.8165 10.75 13.3332 9.48885 13.3332 7.99996C13.3332 6.51107 12.8165 5.24996 11.7832 4.21663C10.7498 3.18329 9.48873 2.66663 7.99984 2.66663C6.51095 2.66663 5.24984 3.18329 4.2165 4.21663C3.18317 5.24996 2.6665 6.51107 2.6665 7.99996C2.6665 9.48885 3.18317 10.75 4.2165 11.7833C5.24984 12.8166 6.51095 13.3333 7.99984 13.3333Z" fill="#304BA0"/>
</g>
</svg>
