<svg width="40" height="40" viewBox="0 0 40 40" fill="none" xmlns="http://www.w3.org/2000/svg">
<mask id="mask0_2412_716" style="mask-type:alpha" maskUnits="userSpaceOnUse" x="0" y="0" width="40" height="40">
<rect width="40" height="40" fill="#D9D9D9"/>
</mask>
<g mask="url(#mask0_2412_716)">
<path d="M5.51292 34.1667C4.67097 34.1667 3.95833 33.875 3.375 33.2917C2.79167 32.7083 2.5 31.9957 2.5 31.1538V12.1796C2.5 11.3376 2.79167 10.625 3.375 10.0417C3.95833 9.45833 4.67097 9.16667 5.51292 9.16667H10.6025L13.6858 5.83333H23.0129V8.33333H14.7758L11.7179 11.6667H5.51292C5.36319 11.6667 5.24028 11.7147 5.14417 11.8108C5.04806 11.9069 5 12.0299 5 12.1796V31.1538C5 31.3035 5.04806 31.4264 5.14417 31.5225C5.24028 31.6186 5.36319 31.6667 5.51292 31.6667H31.1538C31.3035 31.6667 31.4264 31.6186 31.5225 31.5225C31.6186 31.4264 31.6667 31.3035 31.6667 31.1538V16.9871H34.1667V31.1538C34.1667 31.9957 33.875 32.7083 33.2917 33.2917C32.7083 33.875 31.9957 34.1667 31.1538 34.1667H5.51292ZM31.6667 11.6667V8.33333H28.3333V5.83333H31.6667V2.5H34.1667V5.83333H37.5V8.33333H34.1667V11.6667H31.6667ZM18.3333 28.5254C20.2458 28.5254 21.8671 27.8604 23.1971 26.5304C24.5271 25.2004 25.1921 23.5792 25.1921 21.6667C25.1921 19.7542 24.5271 18.1329 23.1971 16.8029C21.8671 15.4729 20.2458 14.8079 18.3333 14.8079C16.4208 14.8079 14.7996 15.4729 13.4696 16.8029C12.1396 18.1329 11.4746 19.7542 11.4746 21.6667C11.4746 23.5792 12.1396 25.2004 13.4696 26.5304C14.7996 27.8604 16.4208 28.5254 18.3333 28.5254ZM18.3333 26.0258C17.1025 26.0258 16.0683 25.6069 15.2308 24.7692C14.3931 23.9317 13.9742 22.8975 13.9742 21.6667C13.9742 20.4358 14.3931 19.4017 15.2308 18.5642C16.0683 17.7264 17.1025 17.3075 18.3333 17.3075C19.5642 17.3075 20.5983 17.7264 21.4358 18.5642C22.2736 19.4017 22.6925 20.4358 22.6925 21.6667C22.6925 22.8975 22.2736 23.9317 21.4358 24.7692C20.5983 25.6069 19.5642 26.0258 18.3333 26.0258Z" fill="#B3B3B3"/>
</g>
</svg>
