<svg width="16" height="16" viewBox="0 0 16 16" fill="none" xmlns="http://www.w3.org/2000/svg">
<g clip-path="url(#clip0_208_1739)">
<path d="M8.60934 1.84897C8.60934 1.50378 8.88916 1.22397 9.23434 1.22397H12.2553C13.6325 1.22397 14.7553 2.34391 14.7553 3.72397V6.76562C14.7553 7.11081 14.4755 7.39062 14.1303 7.39062C13.7851 7.39062 13.5053 7.11081 13.5053 6.76562C13.4923 3.59241 13.5349 3.68428 13.4671 3.41675L5.98362 10.9003C5.73953 11.1444 5.34378 11.1443 5.09972 10.9003C4.85562 10.6562 4.85562 10.2605 5.09972 10.0164L12.5952 2.52094C12.3031 2.43831 12.369 2.48975 9.23434 2.474C8.88916 2.47397 8.60934 2.19416 8.60934 1.84897ZM15.375 9.83334C15.0298 9.83334 14.75 10.1132 14.75 10.4583V11.3634C14.75 12.9376 13.6715 13.6978 13.5731 13.8347C12.9828 14.4249 12.1981 14.75 11.3634 14.75H4.63662C3.80191 14.75 3.01716 14.4249 2.42694 13.8347C2.33178 13.7024 1.25 12.9292 1.25 11.3634V4.63662C1.25 3.06241 2.32847 2.30222 2.42694 2.16528C3.01716 1.57506 3.80191 1.25 4.63662 1.25H5.54166C5.88684 1.25 6.16666 0.970187 6.16666 0.625C6.16666 0.279813 5.88684 0 5.54166 0H4.63662C3.468 0 2.36934 0.455094 1.54303 1.28141C1.44919 1.41441 0 2.49981 0 4.63662V11.3634C0 13.5004 1.45016 14.587 1.54303 14.7186C2.36934 15.5449 3.46803 16 4.63662 16H11.3634C12.532 16 13.6307 15.5449 14.457 14.7186C14.5508 14.5856 16 13.5002 16 11.3634V10.4583C16 10.1132 15.7202 9.83334 15.375 9.83334Z" fill="#818180"/>
</g>
<defs>
<clipPath id="clip0_208_1739">
<rect width="16" height="16" fill="white"/>
</clipPath>
</defs>
</svg>
