<svg width="42" height="42" viewBox="0 0 42 42" fill="none" xmlns="http://www.w3.org/2000/svg">
<path d="M0.5 8C0.5 3.85786 3.85786 0.5 8 0.5H34C38.1421 0.5 41.5 3.85786 41.5 8V34C41.5 38.1421 38.1421 41.5 34 41.5H8C3.85786 41.5 0.5 38.1421 0.5 34V8Z" fill="#D9E3FA"/>
<path d="M0.5 8C0.5 3.85786 3.85786 0.5 8 0.5H34C38.1421 0.5 41.5 3.85786 41.5 8V34C41.5 38.1421 38.1421 41.5 34 41.5H8C3.85786 41.5 0.5 38.1421 0.5 34V8Z" stroke="#C1D2FA"/>
<path d="M24.1575 33H16.3425C15.3903 32.998 14.4777 32.6189 13.8044 31.9456C13.1311 31.2723 12.752 30.3597 12.75 29.4075V12.5925C12.752 11.6403 13.1311 10.7277 13.8044 10.0544C14.4777 9.38111 15.3903 9.00198 16.3425 9L24.1575 9C25.1097 9.00198 26.0223 9.38111 26.6956 10.0544C27.3689 10.7277 27.748 11.6403 27.75 12.5925V12.75C27.75 12.9489 27.671 13.1397 27.5303 13.2803C27.3897 13.421 27.1989 13.5 27 13.5C26.8011 13.5 26.6103 13.421 26.4697 13.2803C26.329 13.1397 26.25 12.9489 26.25 12.75V12.5925C26.25 12.0375 26.0295 11.5053 25.6371 11.1129C25.2447 10.7205 24.7125 10.5 24.1575 10.5H16.3425C15.7875 10.5 15.2553 10.7205 14.8629 11.1129C14.4705 11.5053 14.25 12.0375 14.25 12.5925V29.4075C14.25 29.9625 14.4705 30.4947 14.8629 30.8871C15.2553 31.2795 15.7875 31.5 16.3425 31.5H24.1575C24.7125 31.5 25.2447 31.2795 25.6371 30.8871C26.0295 30.4947 26.25 29.9625 26.25 29.4075V27.75C26.25 27.5511 26.329 27.3603 26.4697 27.2197C26.6103 27.079 26.8011 27 27 27C27.1989 27 27.3897 27.079 27.5303 27.2197C27.671 27.3603 27.75 27.5511 27.75 27.75V29.4075C27.748 30.3597 27.3689 31.2723 26.6956 31.9456C26.0223 32.6189 25.1097 32.998 24.1575 33Z" fill="#304BA0"/>
<path d="M20.25 30C19.9533 30 19.6633 29.912 19.4166 29.7472C19.17 29.5824 18.9777 29.3481 18.8642 29.074C18.7506 28.7999 18.7209 28.4983 18.7788 28.2074C18.8367 27.9164 18.9796 27.6491 19.1893 27.4393C19.3991 27.2296 19.6664 27.0867 19.9574 27.0288C20.2483 26.9709 20.5499 27.0006 20.824 27.1142C21.0981 27.2277 21.3324 27.42 21.4972 27.6666C21.662 27.9133 21.75 28.2033 21.75 28.5C21.75 28.8978 21.592 29.2794 21.3107 29.5607C21.0294 29.842 20.6478 30 20.25 30Z" fill="#7088D2"/>
<path d="M22.5 13.5H18C17.8011 13.5 17.6103 13.421 17.4697 13.2803C17.329 13.1397 17.25 12.9489 17.25 12.75C17.25 12.5511 17.329 12.3603 17.4697 12.2197C17.6103 12.079 17.8011 12 18 12H22.5C22.6989 12 22.8897 12.079 23.0303 12.2197C23.171 12.3603 23.25 12.5511 23.25 12.75C23.25 12.9489 23.171 13.1397 23.0303 13.2803C22.8897 13.421 22.6989 13.5 22.5 13.5Z" fill="#304BA0"/>
<path d="M29.25 17.25C29.2512 16.8372 29.1388 16.4321 28.9251 16.0789C28.7114 15.7258 28.4047 15.4382 28.0385 15.2477C27.6724 15.0572 27.2609 14.971 26.849 14.9987C26.4372 15.0264 26.0409 15.1669 25.7036 15.4047C25.3662 15.6425 25.1008 15.9686 24.9363 16.3472C24.7719 16.7258 24.7147 17.1423 24.7711 17.5512C24.8275 17.9601 24.9954 18.3456 25.2562 18.6655C25.517 18.9854 25.8608 19.2274 26.25 19.365V21.75C26.25 22.3467 26.0129 22.919 25.591 23.341C25.169 23.7629 24.5967 24 24 24H22.5C21.9033 24 21.331 23.7629 20.909 23.341C20.4871 22.919 20.25 22.3467 20.25 21.75V21C20.25 20.8011 20.171 20.6103 20.0303 20.4696C19.8897 20.329 19.6989 20.25 19.5 20.25C19.3011 20.25 19.1103 20.329 18.9697 20.4696C18.829 20.6103 18.75 20.8011 18.75 21V21.75C18.75 22.7445 19.1451 23.6984 19.8483 24.4016C20.5516 25.1049 21.5054 25.5 22.5 25.5H24C24.9946 25.5 25.9484 25.1049 26.6516 24.4016C27.3549 23.6984 27.75 22.7445 27.75 21.75V19.365C28.1877 19.2102 28.5668 18.9239 28.8353 18.5453C29.1038 18.1666 29.2487 17.7142 29.25 17.25ZM27 18C26.8517 18 26.7067 17.956 26.5833 17.8736C26.46 17.7912 26.3639 17.674 26.3071 17.537C26.2503 17.3999 26.2355 17.2491 26.2644 17.1037C26.2933 16.9582 26.3648 16.8245 26.4697 16.7196C26.5746 16.6148 26.7082 16.5433 26.8537 16.5144C26.9992 16.4854 27.15 16.5003 27.287 16.5571C27.4241 16.6138 27.5412 16.71 27.6236 16.8333C27.706 16.9566 27.75 17.1016 27.75 17.25C27.75 17.4489 27.671 17.6396 27.5303 17.7803C27.3897 17.921 27.1989 18 27 18Z" fill="#304BA0"/>
<path d="M19.5 21.75C18.5054 21.75 17.5516 21.3549 16.8483 20.6517C16.1451 19.9484 15.75 18.9946 15.75 18V16.5C15.75 16.1022 15.908 15.7206 16.1893 15.4393C16.4706 15.158 16.8522 15 17.25 15H18C18.1989 15 18.3897 15.079 18.5303 15.2197C18.671 15.3603 18.75 15.5511 18.75 15.75C18.75 15.9489 18.671 16.1397 18.5303 16.2803C18.3897 16.421 18.1989 16.5 18 16.5H17.25V18C17.25 18.5967 17.4871 19.169 17.909 19.591C18.331 20.0129 18.9033 20.25 19.5 20.25C20.0967 20.25 20.669 20.0129 21.091 19.591C21.5129 19.169 21.75 18.5967 21.75 18V16.5H21C20.8011 16.5 20.6103 16.421 20.4697 16.2803C20.329 16.1397 20.25 15.9489 20.25 15.75C20.25 15.5511 20.329 15.3603 20.4697 15.2197C20.6103 15.079 20.8011 15 21 15H21.75C22.1478 15 22.5294 15.158 22.8107 15.4393C23.092 15.7206 23.25 16.1022 23.25 16.5V18C23.25 18.9946 22.8549 19.9484 22.1517 20.6517C21.4484 21.3549 20.4946 21.75 19.5 21.75Z" fill="#7088D2"/>
</svg>
