<svg width="24" height="24" viewBox="0 0 24 24" fill="none" xmlns="http://www.w3.org/2000/svg">
<mask id="mask0_50_732" style="mask-type:alpha" maskUnits="userSpaceOnUse" x="0" y="0" width="24" height="24">
<rect width="24" height="24" fill="#D9D9D9"/>
</mask>
<g mask="url(#mask0_50_732)">
<path d="M11.2274 20C11.0369 20 10.846 19.9596 10.6547 19.8788C10.4632 19.7978 10.291 19.6765 10.1378 19.5148L4.44415 13.4702C4.28964 13.3068 4.17699 13.1263 4.10619 12.9287C4.0354 12.7312 4 12.5304 4 12.3261C4 12.1218 4.0354 11.918 4.10619 11.7147C4.17699 11.5116 4.28964 11.3288 4.44415 11.1663L11.6663 3.48517C11.8062 3.33694 11.9715 3.21906 12.1622 3.13153C12.353 3.04384 12.5501 3 12.7537 3H18.4684C18.8942 3 19.2559 3.15919 19.5535 3.47757C19.8512 3.79609 20 4.17889 20 4.62596V10.6929C20 10.9113 19.9619 11.1193 19.8858 11.317C19.8097 11.5148 19.6998 11.687 19.5561 11.8337L12.3129 19.5148C12.1605 19.6765 11.989 19.7978 11.7986 19.8788C11.6082 19.9596 11.4178 20 11.2274 20ZM11.039 18.5718C11.0929 18.6292 11.1564 18.6579 11.2295 18.6579C11.3024 18.6579 11.3658 18.6292 11.4197 18.5718L18.6629 10.877C18.69 10.8484 18.709 10.8169 18.7198 10.7824C18.7305 10.7481 18.7358 10.7138 18.7358 10.6793V4.62596C18.7358 4.54573 18.7102 4.47982 18.6589 4.42822C18.6076 4.37648 18.5441 4.35061 18.4684 4.35061H12.6614L5.34531 12.123C5.29123 12.1802 5.26419 12.2476 5.26419 12.3249C5.26419 12.4025 5.29123 12.4699 5.34531 12.5272L11.039 18.5718ZM16.6046 7.72309C16.8994 7.72309 17.1501 7.61438 17.3566 7.39696C17.5629 7.17954 17.6661 6.91544 17.6661 6.60467C17.6661 6.29166 17.5633 6.02563 17.3576 5.80657C17.1519 5.58735 16.902 5.47775 16.608 5.47775C16.314 5.47775 16.0644 5.58698 15.8591 5.80545C15.6538 6.02391 15.5511 6.2892 15.5511 6.60132C15.5511 6.91328 15.6535 7.17827 15.8583 7.39629C16.0632 7.61416 16.312 7.72309 16.6046 7.72309Z" fill="#1C1B1F"/>
</g>
</svg>
