<svg width="60" height="60" viewBox="0 0 60 60" fill="none" xmlns="http://www.w3.org/2000/svg">
<path d="M45.4131 4.25648H14.5869C8.89078 4.25648 4.2566 8.89066 4.2566 14.5869V45.4131C4.2566 51.1092 8.89078 55.7434 14.5869 55.7434H45.4132C51.1093 55.7434 55.7435 51.1092 55.7435 45.4131V14.5869C55.7435 8.89078 51.1093 4.25648 45.4131 4.25648ZM54.1557 29.2062H47.6164C47.178 29.2062 46.8226 29.5616 46.8226 30C46.8226 30.4385 47.178 30.7938 47.6164 30.7938H54.1557V45.4131C54.1557 50.2338 50.2338 54.1557 45.4131 54.1557H30.7938V51.2544C30.7938 50.816 30.4383 50.4605 30 50.4605C29.5617 50.4605 29.2062 50.816 29.2062 51.2544V54.1557H14.5869C9.76617 54.1557 5.84426 50.2338 5.84426 45.4131V30.7938H16.4093C16.8476 30.7938 17.203 30.4385 17.203 30C17.203 29.5616 16.8476 29.2062 16.4093 29.2062H5.84426V14.587C5.84426 9.76629 9.76617 5.84438 14.5869 5.84438H29.2062V10.7245C29.2062 11.163 29.5617 11.5184 30 11.5184C30.4383 11.5184 30.7938 11.163 30.7938 10.7245V5.84426H45.4131C50.2338 5.84426 54.1557 9.76617 54.1557 14.5869V29.2062Z" fill="black"/>
<path d="M44.3149 26.6793C43.0338 25.7082 40.5098 23.6059 37.9991 20.4346C37.422 19.7054 36.8265 19.119 36.2292 18.6461C36.078 18.4378 35.5082 17.5938 35.1184 16.1963C34.7244 14.7825 33.5239 13.7715 32.0599 13.6207L28.41 13.2448C26.6752 13.0656 24.9529 13.6505 23.6848 14.8482C22.4244 16.0395 20.7046 18.0104 19.6684 20.6357C18.9981 22.3341 18.9226 24.278 19.4558 26.1091C19.9893 27.9418 20.7734 31.3301 20.0319 33.4315C19.6775 34.4361 19.7818 35.5531 20.3186 36.4961C20.4649 36.7532 20.7332 36.8974 21.0093 36.8974C21.1424 36.8974 21.2773 36.864 21.4014 36.7934C21.7822 36.5764 21.9155 36.092 21.6986 35.7109C21.3898 35.1682 21.328 34.5301 21.5293 33.9598C22.3739 31.5654 21.697 28.1277 20.9802 25.6654C20.545 24.1704 20.6037 22.5912 21.1454 21.2187C22.0744 18.8648 23.6323 17.0828 24.7754 16.0022C25.7072 15.122 26.9741 14.6932 28.2473 14.8239L31.8974 15.1999C32.6951 15.2821 33.3748 15.8539 33.5892 16.6226C33.6545 16.8561 33.7242 17.0762 33.7965 17.2843C31.3666 16.4228 29.3089 17.0236 28.8826 17.1684C28.3003 17.3009 24.547 18.3674 23.5273 23.9775C22.9601 27.0967 23.8774 29.5175 24.7471 30.999C25.414 32.1355 25.3404 33.53 24.5597 34.5517C22.8348 36.8079 22.1221 38.8945 22.4415 40.7536C22.6116 41.7444 23.0503 42.4781 23.4561 42.9703C21.1793 44.7874 21.324 47.1663 21.7788 48.2657C21.9019 48.5625 22.1913 48.7561 22.5125 48.7561H41.5668C42.005 48.7561 42.3606 48.4006 42.3606 47.9623C42.3606 45.3509 41.4424 43.8018 40.7912 43.0316C41.5336 42.0016 41.7464 40.7269 41.442 39.1601C41.1824 37.8246 40.4085 36.6407 39.2626 35.8259C36.7812 34.0615 35.4788 32.0538 34.8539 30.8067C36.0141 30.8127 36.9524 30.4269 37.4831 30.1379L38.9948 31.0535C40.3903 31.8989 42.2048 31.7186 43.4066 30.6141L44.4587 29.6472C44.8815 29.2588 45.1085 28.7071 45.0813 28.1334C45.0541 27.5579 44.7748 27.0279 44.3149 26.6793ZM43.3848 28.4782L42.3326 29.445C41.6477 30.0743 40.6131 30.1774 39.8176 29.6955L37.8907 28.5284C37.6116 28.3593 37.257 28.3782 36.9976 28.5764C36.9843 28.5866 35.6317 29.5943 33.8766 29.0627C33.5959 28.9141 32.1446 28.0862 31.3993 26.4961C31.2132 26.0988 30.7406 25.928 30.3437 26.1141C29.9468 26.3002 29.7757 26.7727 29.9618 27.1697C30.8004 28.9598 32.2798 29.9735 32.9278 30.351C33.2878 31.3723 34.6305 34.4802 38.3427 37.1198C39.1432 37.6889 39.7046 38.5432 39.8836 39.4631C40.1224 40.6924 39.9577 41.5745 39.3578 42.2802H35.6508C35.2125 42.2802 34.857 42.6355 34.857 43.074C34.857 43.5124 35.2125 43.8679 35.6508 43.8679H39.4106C39.7634 44.2145 40.563 45.2018 40.7386 47.1684H23.121C23.0108 46.4379 23.1007 45.03 24.9368 43.8679H31.6043C32.0426 43.8679 32.3981 43.5124 32.3981 43.074C32.3981 42.6355 32.0426 42.2802 31.6043 42.2802H24.9814C24.7034 42.0325 24.1597 41.436 24.0009 40.4527C23.7778 39.0728 24.4071 37.3655 25.8211 35.5159C26.9954 33.9793 27.1113 31.8908 26.1164 30.1956C25.0495 28.3778 24.7038 26.3813 25.0893 24.2617C25.9659 19.4397 29.0995 18.744 29.246 18.7143C29.2931 18.7052 29.3429 18.6905 29.3877 18.6731C29.5499 18.6102 33.3993 17.1817 36.7543 21.42C39.3739 24.7289 42.0149 26.9283 43.3559 27.9447C43.4706 28.0317 43.4925 28.1474 43.4955 28.2087C43.4984 28.2686 43.4878 28.3834 43.3848 28.4782Z" fill="black"/>
<path d="M30.1373 22.9037C29.7009 22.8534 29.3087 23.1681 29.2598 23.6038C29.2288 23.8789 29.2109 24.1513 29.2064 24.4136C29.1989 24.852 29.5482 25.2134 29.9865 25.2207C29.9911 25.2209 29.9958 25.2209 30.0002 25.2209C30.4324 25.2209 30.7863 24.8742 30.7937 24.4404C30.7975 24.2284 30.8121 24.0067 30.8373 23.7813C30.8864 23.3459 30.573 22.9528 30.1373 22.9037Z" fill="black"/>
<path d="M35.164 22.9284C34.8425 22.6301 34.3405 22.6487 34.042 22.9698C33.7438 23.291 33.7623 23.7933 34.0835 24.0918L34.28 24.2743C34.433 24.4163 34.6268 24.4866 34.82 24.4866C35.0331 24.4866 35.2455 24.4014 35.4019 24.2331C35.7004 23.9118 35.6817 23.4095 35.3604 23.111L35.164 22.9284Z" fill="black"/>
<path d="M28.3726 34.6946C27.9844 34.8982 27.8346 35.3781 28.0382 35.7663C28.76 37.1433 29.9879 38.9951 31.7384 39.999C31.8629 40.0704 31.9986 40.1043 32.1326 40.1043C32.4077 40.1043 32.6753 39.9609 32.8219 39.7052C33.04 39.325 32.9085 38.8399 32.5281 38.6216C31.0348 37.7651 29.955 36.0032 29.4443 35.0292C29.2409 34.6407 28.7607 34.4913 28.3726 34.6946Z" fill="black"/>
<path d="M17.4273 13.2045C15.2864 12.2211 14.7844 9.49195 14.7797 9.46664C14.7131 9.07418 14.3611 8.78414 13.9689 8.80606C13.5711 8.82024 13.2454 9.12668 13.207 9.52277C12.9683 11.9848 10.52 13.5465 10.4802 13.5716C10.108 13.8022 9.99281 14.2904 10.2227 14.6631C10.4528 15.0361 10.9416 15.1521 11.3152 14.9218C11.4091 14.8638 13.0473 13.8345 14.0482 12.0132C14.4424 12.732 15.0097 13.4924 15.8162 14.0872C15.3157 14.6481 14.6616 15.4971 14.1403 16.5756C14.083 16.4664 14.0218 16.3557 13.9568 16.2442C13.7352 15.8654 13.2496 15.738 12.8707 15.9589C12.4923 16.1801 12.3647 16.6663 12.5856 17.0448C13.2176 18.1264 13.3828 19.1132 13.3841 19.1205C13.4434 19.5036 13.7711 19.7876 14.1586 19.7923C14.1619 19.7924 14.1653 19.7924 14.1686 19.7924C14.5518 19.7924 14.8812 19.5179 14.9496 19.1398C15.4438 16.4065 17.5881 14.5488 17.6084 14.5316C17.8158 14.3563 17.9189 14.0871 17.8822 13.818C17.8457 13.5493 17.674 13.3179 17.4273 13.2045Z" fill="black"/>
<path d="M49.683 17.358C47.5424 16.3747 47.0402 13.6455 47.0357 13.6202C46.9691 13.2279 46.6168 12.9401 46.2247 12.9596C45.8271 12.9738 45.5013 13.2803 45.463 13.6764C45.2248 16.1324 42.7876 17.6927 42.7363 17.7251C42.3641 17.9555 42.2488 18.444 42.4787 18.8168C42.7086 19.1897 43.1978 19.3055 43.5711 19.0755C43.6651 19.0177 45.3032 17.988 46.3042 16.167C46.6984 16.8857 47.2657 17.6461 48.0719 18.2409C47.5714 18.8018 46.9172 19.6509 46.3961 20.7295C46.3387 20.6202 46.2776 20.5093 46.2125 20.3979C45.9909 20.0194 45.5046 19.8916 45.1264 20.1129C44.7479 20.334 44.6204 20.8202 44.8413 21.1988C45.4736 22.2804 45.6388 23.267 45.64 23.2743C45.6994 23.6573 46.027 23.9413 46.4146 23.9461C46.4179 23.9461 46.4212 23.9461 46.4245 23.9461C46.8077 23.9461 47.137 23.6716 47.2055 23.2935C47.6996 20.5603 49.8441 18.7025 49.8642 18.6853C50.0716 18.5099 50.1746 18.2408 50.138 17.9718C50.1013 17.7027 49.9297 17.4715 49.683 17.358Z" fill="black"/>
<path d="M17.4273 44.9105C15.2864 43.9271 14.7844 41.1977 14.7797 41.1727C14.7131 40.7802 14.3611 40.4936 13.9689 40.5121C13.5711 40.5263 13.2454 40.8327 13.207 41.2287C12.9674 43.6983 10.5045 45.2623 10.4798 45.2779C10.1081 45.5086 9.99293 45.9968 10.2229 46.3692C10.4529 46.7425 10.9424 46.858 11.3153 46.628C11.4093 46.5701 13.0474 45.5406 14.0483 43.7193C14.4425 44.4381 15.0098 45.1984 15.8163 45.7934C15.3158 46.354 14.6617 47.2032 14.1403 48.2817C14.0831 48.1725 14.022 48.062 13.9569 47.9504C13.7353 47.5717 13.2497 47.4443 12.8708 47.6652C12.4924 47.8866 12.3648 48.3727 12.5857 48.7513C13.2177 49.8328 13.3829 50.8196 13.3842 50.8268C13.4435 51.21 13.7712 51.4939 14.1587 51.4987C14.162 51.4987 14.1654 51.4987 14.1687 51.4987C14.5519 51.4987 14.8813 51.2243 14.9497 50.8463C15.4439 48.1127 17.5882 46.2553 17.6085 46.2379C17.8159 46.0627 17.919 45.7935 17.8823 45.5244C17.8457 45.2555 17.674 45.0239 17.4273 44.9105Z" fill="black"/>
</svg>
