<svg width="24" height="24" viewBox="0 0 24 24" fill="none" xmlns="http://www.w3.org/2000/svg">
<mask id="mask0_50_729" style="mask-type:alpha" maskUnits="userSpaceOnUse" x="0" y="0" width="24" height="24">
<rect width="24" height="24" fill="#D9D9D9"/>
</mask>
<g mask="url(#mask0_50_729)">
<path d="M5.78726 20.5C5.38209 20.5 5.01893 20.3785 4.69776 20.1355C4.37659 19.8925 4.15893 19.5736 4.04476 19.1787L1.66801 10.65C1.59101 10.3653 1.64034 10.1025 1.81601 9.86148C1.99168 9.62048 2.23018 9.49998 2.53151 9.49998H7.25251L11.2488 3.51748C11.3321 3.39048 11.4391 3.29173 11.5698 3.22123C11.7006 3.15073 11.8429 3.11548 11.9968 3.11548C12.1506 3.11548 12.2929 3.15231 12.4238 3.22598C12.5544 3.29964 12.6614 3.39998 12.7448 3.52698L16.7218 9.49998H21.4735C21.7748 9.49998 22.0149 9.62048 22.1938 9.86148C22.3726 10.1025 22.4203 10.3653 22.337 10.65L19.941 19.1787C19.8268 19.5736 19.6092 19.8925 19.288 20.1355C18.9668 20.3785 18.6038 20.5 18.1988 20.5H5.78726ZM5.73326 19H18.2718C18.3423 19 18.4032 18.9791 18.4545 18.9375C18.5057 18.8958 18.5409 18.8397 18.5603 18.7692L20.7025 11H3.30251L5.44476 18.7692C5.46409 18.8397 5.49934 18.8958 5.55051 18.9375C5.60184 18.9791 5.66276 19 5.73326 19ZM12.0025 16.5C12.4115 16.5 12.7638 16.3522 13.0593 16.0567C13.3548 15.7612 13.5025 15.409 13.5025 15C13.5025 14.591 13.3548 14.2387 13.0593 13.9432C12.7638 13.6477 12.4115 13.5 12.0025 13.5C11.5935 13.5 11.2413 13.6477 10.9458 13.9432C10.6503 14.2387 10.5025 14.591 10.5025 15C10.5025 15.409 10.6503 15.7612 10.9458 16.0567C11.2413 16.3522 11.5935 16.5 12.0025 16.5ZM9.07176 9.49998H14.918L11.987 5.08848L9.07176 9.49998Z" fill="#304BA0"/>
</g>
</svg>
