<svg width="18" height="20" viewBox="0 0 18 20" fill="none" xmlns="http://www.w3.org/2000/svg">
<path d="M2.3 19.125C1.8 19.125 1.375 18.95 1.025 18.6C0.675 18.25 0.5 17.825 0.5 17.325V3.925C0.5 3.425 0.675 3 1.025 2.65C1.375 2.3 1.8 2.125 2.3 2.125H3.7V0H5.225V2.125H12.8V0H14.3V2.125H15.7C16.2 2.125 16.625 2.3 16.975 2.65C17.325 3 17.5 3.425 17.5 3.925V17.325C17.5 17.825 17.325 18.25 16.975 18.6C16.625 18.95 16.2 19.125 15.7 19.125H2.3ZM2.3 17.625H15.7C15.7667 17.625 15.8333 17.5917 15.9 17.525C15.9667 17.4583 16 17.3917 16 17.325V7.925H2V17.325C2 17.3917 2.03333 17.4583 2.1 17.525C2.16667 17.5917 2.23333 17.625 2.3 17.625ZM2 6.425H16V3.925C16 3.85833 15.9667 3.79167 15.9 3.725C15.8333 3.65833 15.7667 3.625 15.7 3.625H2.3C2.23333 3.625 2.16667 3.65833 2.1 3.725C2.03333 3.79167 2 3.85833 2 3.925V6.425ZM9 11.7C8.75 11.7 8.54167 11.6123 8.375 11.437C8.20833 11.2623 8.125 11.0583 8.125 10.825C8.125 10.575 8.20833 10.3623 8.375 10.187C8.54167 10.0123 8.75 9.925 9 9.925C9.25 9.925 9.45833 10.0123 9.625 10.187C9.79167 10.3623 9.875 10.575 9.875 10.825C9.875 11.0583 9.79167 11.2623 9.625 11.437C9.45833 11.6123 9.25 11.7 9 11.7ZM5 11.7C4.75 11.7 4.54167 11.6123 4.375 11.437C4.20833 11.2623 4.125 11.0583 4.125 10.825C4.125 10.575 4.20833 10.3623 4.375 10.187C4.54167 10.0123 4.75 9.925 5 9.925C5.25 9.925 5.45833 10.0123 5.625 10.187C5.79167 10.3623 5.875 10.575 5.875 10.825C5.875 11.0583 5.79167 11.2623 5.625 11.437C5.45833 11.6123 5.25 11.7 5 11.7ZM13 11.7C12.75 11.7 12.5417 11.6123 12.375 11.437C12.2083 11.2623 12.125 11.0583 12.125 10.825C12.125 10.575 12.2083 10.3623 12.375 10.187C12.5417 10.0123 12.75 9.925 13 9.925C13.25 9.925 13.4583 10.0123 13.625 10.187C13.7917 10.3623 13.875 10.575 13.875 10.825C13.875 11.0583 13.7917 11.2623 13.625 11.437C13.4583 11.6123 13.25 11.7 13 11.7ZM9 15.625C8.75 15.625 8.54167 15.5377 8.375 15.363C8.20833 15.1877 8.125 14.9833 8.125 14.75C8.125 14.5 8.20833 14.2877 8.375 14.113C8.54167 13.9377 8.75 13.85 9 13.85C9.25 13.85 9.45833 13.9377 9.625 14.113C9.79167 14.2877 9.875 14.5 9.875 14.75C9.875 14.9833 9.79167 15.1877 9.625 15.363C9.45833 15.5377 9.25 15.625 9 15.625ZM5 15.625C4.75 15.625 4.54167 15.5377 4.375 15.363C4.20833 15.1877 4.125 14.9833 4.125 14.75C4.125 14.5 4.20833 14.2877 4.375 14.113C4.54167 13.9377 4.75 13.85 5 13.85C5.25 13.85 5.45833 13.9377 5.625 14.113C5.79167 14.2877 5.875 14.5 5.875 14.75C5.875 14.9833 5.79167 15.1877 5.625 15.363C5.45833 15.5377 5.25 15.625 5 15.625ZM13 15.625C12.75 15.625 12.5417 15.5377 12.375 15.363C12.2083 15.1877 12.125 14.9833 12.125 14.75C12.125 14.5 12.2083 14.2877 12.375 14.113C12.5417 13.9377 12.75 13.85 13 13.85C13.25 13.85 13.4583 13.9377 13.625 14.113C13.7917 14.2877 13.875 14.5 13.875 14.75C13.875 14.9833 13.7917 15.1877 13.625 15.363C13.4583 15.5377 13.25 15.625 13 15.625Z" fill="#304BA0"/>
</svg>
