<svg width="24" height="24" viewBox="0 0 24 24" fill="none" xmlns="http://www.w3.org/2000/svg">
<mask id="mask0_1783_2129" style="mask-type:alpha" maskUnits="userSpaceOnUse" x="0" y="0" width="24" height="24">
<rect width="24" height="24" fill="#D9D9D9"/>
</mask>
<g mask="url(#mask0_1783_2129)">
<path d="M7.19227 10.6152L12 2.73071L16.8078 10.6152H7.19227ZM17.4955 21.6152C16.351 21.6152 15.3798 21.2162 14.5818 20.4182C13.7838 19.6202 13.3848 18.649 13.3848 17.5045C13.3848 16.3601 13.7838 15.3874 14.5818 14.5862C15.3798 13.7852 16.351 13.3847 17.4955 13.3847C18.6398 13.3847 19.6126 13.7852 20.4138 14.5862C21.2148 15.3874 21.6153 16.3601 21.6153 17.5045C21.6153 18.649 21.2148 19.6202 20.4138 20.4182C19.6126 21.2162 18.6398 21.6152 17.4955 21.6152ZM3.38477 21.1152V13.8847H10.6153V21.1152H3.38477Z" fill="#304BA0"/>
</g>
</svg>
