<svg width="24" height="24" viewBox="0 0 24 24" fill="none" xmlns="http://www.w3.org/2000/svg">
<mask id="mask0_50_714" style="mask-type:alpha" maskUnits="userSpaceOnUse" x="0" y="0" width="24" height="24">
<rect width="24" height="24" fill="#D9D9D9"/>
</mask>
<g mask="url(#mask0_50_714)">
<path d="M5.74638 17.0001V9.50011H7.24638V17.0001H5.74638ZM11.2464 17.0001V9.50011H12.7464V17.0001H11.2464ZM2.76562 7.50011V6.07711L11.9964 1.55786L21.2271 6.07711V7.50011H2.76562ZM6.32712 6.00011H17.6656L11.9964 3.25011L6.32712 6.00011ZM2.76562 20.5001V19.0001H14.3444C14.3649 19.2668 14.3938 19.5209 14.4311 19.7626C14.4683 20.0043 14.5208 20.2501 14.5886 20.5001H2.76562ZM16.7464 13.7599V9.50011H18.2464V13.0099L16.7464 13.7599ZM19.9964 23.6154C18.9297 23.3514 18.0476 22.7402 17.3501 21.7819C16.6528 20.8235 16.3041 19.7591 16.3041 18.5886V16.2309L19.9964 14.3849L23.6886 16.2309V18.5886C23.6886 19.7591 23.34 20.8235 22.6426 21.7819C21.9451 22.7402 21.063 23.3514 19.9964 23.6154ZM19.2714 20.7886L22.5251 17.5501L21.6869 16.7116L19.2714 19.0964L18.2964 18.1214L17.4579 18.9751L19.2714 20.7886Z" fill="#304BA0"/>
</g>
</svg>
