<svg width="14" height="14" viewBox="0 0 14 14" fill="none" xmlns="http://www.w3.org/2000/svg">
<path d="M6.04935 9.83329L10.5327 5.34996L9.83268 4.64996L6.04935 8.43329L4.14935 6.53329L3.44935 7.23329L6.04935 9.83329ZM6.99935 13.3333C6.12157 13.3333 5.29668 13.1666 4.52468 12.8333C3.75224 12.5 3.08268 12.05 2.51602 11.4833C1.94935 10.9166 1.49935 10.2471 1.16602 9.47463C0.832682 8.70263 0.666016 7.87774 0.666016 6.99996C0.666016 6.12218 0.832682 5.29707 1.16602 4.52463C1.49935 3.75263 1.94935 3.08329 2.51602 2.51663C3.08268 1.94996 3.75224 1.49996 4.52468 1.16663C5.29668 0.833293 6.12157 0.666626 6.99935 0.666626C7.87713 0.666626 8.70224 0.833293 9.47468 1.16663C10.2467 1.49996 10.916 1.94996 11.4827 2.51663C12.0493 3.08329 12.4993 3.75263 12.8327 4.52463C13.166 5.29707 13.3327 6.12218 13.3327 6.99996C13.3327 7.87774 13.166 8.70263 12.8327 9.47463C12.4993 10.2471 12.0493 10.9166 11.4827 11.4833C10.916 12.05 10.2467 12.5 9.47468 12.8333C8.70224 13.1666 7.87713 13.3333 6.99935 13.3333ZM6.99935 12.3333C8.48824 12.3333 9.74935 11.8166 10.7827 10.7833C11.816 9.74996 12.3327 8.48885 12.3327 6.99996C12.3327 5.51107 11.816 4.24996 10.7827 3.21663C9.74935 2.18329 8.48824 1.66663 6.99935 1.66663C5.51046 1.66663 4.24935 2.18329 3.21602 3.21663C2.18268 4.24996 1.66602 5.51107 1.66602 6.99996C1.66602 8.48885 2.18268 9.74996 3.21602 10.7833C4.24935 11.8166 5.51046 12.3333 6.99935 12.3333Z" fill="#CDCDCC"/>
</svg>
