<svg width="16" height="16" viewBox="0 0 16 16" fill="none" xmlns="http://www.w3.org/2000/svg">
<mask id="mask0_177_2530" style="mask-type:alpha" maskUnits="userSpaceOnUse" x="0" y="0" width="16" height="16">
<rect width="16" height="16" fill="#E6E6E6"/>
</mask>
<g mask="url(#mask0_177_2530)">
<path d="M6.38073 10.3333L7.9974 9.1L9.58073 10.3167L8.98073 8.35L10.6307 7.06667H8.6474L7.9974 5.08333L7.3474 7.06667H5.36406L6.98073 8.35L6.38073 10.3333ZM2.66406 13C2.38628 13 2.15028 12.9027 1.95606 12.708C1.7614 12.5138 1.66406 12.2778 1.66406 12V9.6C2.04184 9.53333 2.35851 9.35 2.61406 9.05C2.86962 8.75 2.9974 8.4 2.9974 8C2.9974 7.6 2.86962 7.25 2.61406 6.95C2.35851 6.65 2.04184 6.46667 1.66406 6.4V4C1.66406 3.72222 1.7614 3.48622 1.95606 3.292C2.15028 3.09733 2.38628 3 2.66406 3H13.3307C13.6085 3 13.8445 3.09733 14.0387 3.292C14.2334 3.48622 14.3307 3.72222 14.3307 4V6.4C13.953 6.46667 13.6363 6.65 13.3807 6.95C13.1252 7.25 12.9974 7.6 12.9974 8C12.9974 8.4 13.1252 8.75 13.3807 9.05C13.6363 9.35 13.953 9.53333 14.3307 9.6V12C14.3307 12.2778 14.2334 12.5138 14.0387 12.708C13.8445 12.9027 13.6085 13 13.3307 13H2.66406ZM2.66406 12H13.3307V10.3C12.9196 10.0556 12.5947 9.73067 12.3561 9.32533C12.117 8.91956 11.9974 8.47778 11.9974 8C11.9974 7.52222 12.117 7.08044 12.3561 6.67467C12.5947 6.26933 12.9196 5.94444 13.3307 5.7V4H2.66406V5.7C3.07517 5.94444 3.40028 6.26933 3.6394 6.67467C3.87806 7.08044 3.9974 7.52222 3.9974 8C3.9974 8.47778 3.87806 8.91956 3.6394 9.32533C3.40028 9.73067 3.07517 10.0556 2.66406 10.3V12Z" fill="#1C1B1F"/>
</g>
</svg>
