<svg width="16" height="16" viewBox="0 0 16 16" fill="none" xmlns="http://www.w3.org/2000/svg">
<mask id="mask0_153_2733" style="mask-type:alpha" maskUnits="userSpaceOnUse" x="0" y="0" width="16" height="16">
<rect width="16" height="16" fill="#E6E6E6"/>
</mask>
<g mask="url(#mask0_153_2733)">
<path d="M4.86667 13.6667C4.53333 13.6667 4.25 13.5501 4.01667 13.3167C3.78333 13.0834 3.66667 12.8001 3.66667 12.4667V4.00008H3V3.00008H6V2.41675H10V3.00008H13V4.00008H12.3333V12.4667C12.3333 12.8001 12.2167 13.0834 11.9833 13.3167C11.75 13.5501 11.4667 13.6667 11.1333 13.6667H4.86667ZM11.3333 4.00008H4.66667V12.4667C4.66667 12.5223 4.68622 12.5696 4.72533 12.6087C4.764 12.6474 4.81111 12.6667 4.86667 12.6667H11.1333C11.1778 12.6667 11.2222 12.6445 11.2667 12.6001C11.3111 12.5556 11.3333 12.5112 11.3333 12.4667V4.00008ZM6.26667 11.3334H7.26667V5.33341H6.26667V11.3334ZM8.73333 11.3334H9.73333V5.33341H8.73333V11.3334ZM4.66667 4.00008V12.6667V12.4667V4.00008Z" fill="black"/>
</g>
</svg>
