<svg width="19" height="20" viewBox="0 0 19 20" fill="none" xmlns="http://www.w3.org/2000/svg">
<path d="M11.5436 5.80487C11.5078 5.59553 11.3264 5.44238 11.1139 5.44238H1.31479C1.03238 5.44238 0.803715 5.67131 0.803715 5.95319C0.803715 6.2356 1.03238 6.46426 1.31479 6.46426H3.69954C3.98195 6.46426 4.21062 6.69323 4.21062 6.97537C4.21062 7.25751 3.98195 7.48644 3.69954 7.48644H0.51107C0.228928 7.48644 0 7.71537 0 7.99751C0 8.27965 0.228928 8.50829 0.51107 8.50829H4.8571C5.10647 8.50829 5.30879 8.7109 5.30879 8.96028C5.30879 9.20965 5.10647 9.41197 4.8571 9.41197H2.54812C2.26571 9.41197 2.03705 9.64094 2.03705 9.92308C2.03705 10.2052 2.26571 10.4341 2.54812 10.4341H4.24984C4.49944 10.4341 4.70179 10.6365 4.70179 10.8858C4.70179 11.1352 4.49944 11.3375 4.24984 11.3375H1.90056C1.61815 11.3375 1.38949 11.5665 1.38949 11.8486C1.38949 12.1308 1.61815 12.3597 1.90056 12.3597H5.12959L5.33325 13.5116H6.50294C6.43413 13.6788 6.39491 13.8612 6.39491 14.0534C6.39491 14.8417 7.03386 15.4807 7.82228 15.4807C8.61038 15.4807 9.24936 14.8417 9.24936 14.0534C9.24936 13.8612 9.21014 13.6788 9.14134 13.5116H12.8538L11.5436 5.80487ZM8.43652 14.0533C8.43652 14.3927 8.16165 14.6676 7.82225 14.6676C7.48262 14.6676 7.20772 14.3927 7.20772 14.0533C7.20772 13.8172 7.34231 13.6145 7.53769 13.5116H8.10654C8.30189 13.6145 8.43652 13.8171 8.43652 14.0533Z" fill="#304BA0"/>
<path d="M18.985 12.6166L18.3987 9.72421L16.2579 6.43042H12.3601L13.5674 13.5116H14.9932C14.9247 13.6787 14.8854 13.8612 14.8854 14.0533C14.8854 14.8417 15.5244 15.4807 16.3125 15.4807C17.1009 15.4807 17.7399 14.8417 17.7399 14.0533C17.7399 13.8612 17.7006 13.6787 17.6319 13.5116H18.2531C18.4772 13.5116 18.6895 13.4111 18.8314 13.2375C18.973 13.0642 19.0296 12.8361 18.985 12.6166ZM14.5664 7.74817H15.5429L16.8107 9.69816H14.8991L14.5664 7.74817ZM16.927 14.0533C16.927 14.3927 16.6521 14.6676 16.3125 14.6676C15.9734 14.6676 15.6982 14.3927 15.6982 14.0533C15.6982 13.8172 15.8331 13.6145 16.0282 13.5116H16.5971C16.7924 13.6145 16.927 13.8171 16.927 14.0533Z" fill="#304BA0"/>
</svg>
