<svg width="32" height="32" viewBox="0 0 32 32" fill="none" xmlns="http://www.w3.org/2000/svg">
<g clip-path="url(#clip0_1_2)">
<path d="M29 3.5C29 3.776 28.776 4 28.5 4C28.224 4 28 3.776 28 3.5C28 3.224 28.224 3 28.5 3C28.776 3 29 3.224 29 3.5ZM26.5 3C26.224 3 26 3.224 26 3.5C26 3.776 26.224 4 26.5 4C26.776 4 27 3.776 27 3.5C27 3.224 26.776 3 26.5 3ZM24.5 3C24.224 3 24 3.224 24 3.5C24 3.776 24.224 4 24.5 4C24.776 4 25 3.776 25 3.5C25 3.224 24.776 3 24.5 3ZM31 30.36H0.999999C0.800999 30.36 0.639999 30.199 0.639999 30V2C0.639999 1.801 0.800999 1.64 0.999999 1.64H31C31.199 1.64 31.36 1.801 31.36 2V30C31.36 30.199 31.199 30.36 31 30.36ZM1.36 29.64H30.64V5.36H1.36V29.64ZM1.36 4.64H30.64V2.36H1.36V4.64ZM15 25.36H10C9.801 25.36 9.64 25.199 9.64 25V22C9.64 21.801 9.801 21.64 10 21.64H15C15.199 21.64 15.36 21.801 15.36 22V25C15.36 25.199 15.199 25.36 15 25.36ZM10.36 24.64H14.64V22.36H10.36V24.64ZM22 20.36H17C16.801 20.36 16.64 20.199 16.64 20V17C16.64 16.801 16.801 16.64 17 16.64H22C22.199 16.64 22.36 16.801 22.36 17V20C22.36 20.199 22.199 20.36 22 20.36ZM17.36 19.64H21.639V17.36H17.36V19.64ZM15 20.36H10C9.801 20.36 9.64 20.199 9.64 20V17C9.64 16.801 9.801 16.64 10 16.64H15C15.199 16.64 15.36 16.801 15.36 17V20C15.36 20.199 15.199 20.36 15 20.36ZM10.36 19.64H14.64V17.36H10.36V19.64ZM22 15.36H17C16.801 15.36 16.64 15.199 16.64 15V12C16.64 11.801 16.801 11.64 17 11.64H22C22.199 11.64 22.36 11.801 22.36 12V15C22.36 15.199 22.199 15.36 22 15.36ZM17.36 14.64H21.639V12.36H17.36V14.64ZM15 15.36H10C9.801 15.36 9.64 15.199 9.64 15V12C9.64 11.801 9.801 11.64 10 11.64H15C15.199 11.64 15.36 11.801 15.36 12V15C15.36 15.199 15.199 15.36 15 15.36ZM10.36 14.64H14.64V12.36H10.36V14.64ZM8 15.36H3C2.801 15.36 2.64 15.199 2.64 15V12C2.64 11.801 2.801 11.64 3 11.64H8C8.199 11.64 8.36 11.801 8.36 12V15C8.36 15.199 8.199 15.36 8 15.36ZM3.36 14.64H7.64V12.36H3.36V14.64ZM29 10.36H24C23.801 10.36 23.64 10.199 23.64 10V7C23.64 6.801 23.801 6.64 24 6.64H29C29.199 6.64 29.36 6.801 29.36 7V10C29.36 10.199 29.199 10.36 29 10.36ZM24.36 9.64H28.639V7.36H24.36V9.64ZM22 10.36H17C16.801 10.36 16.64 10.199 16.64 10V7C16.64 6.801 16.801 6.64 17 6.64H22C22.199 6.64 22.36 6.801 22.36 7V10C22.36 10.199 22.199 10.36 22 10.36ZM17.36 9.64H21.639V7.36H17.36V9.64ZM15 10.36H10C9.801 10.36 9.64 10.199 9.64 10V7C9.64 6.801 9.801 6.64 10 6.64H15C15.199 6.64 15.36 6.801 15.36 7V10C15.36 10.199 15.199 10.36 15 10.36ZM10.36 9.64H14.64V7.36H10.36V9.64ZM8 10.36H3C2.801 10.36 2.64 10.199 2.64 10V7C2.64 6.801 2.801 6.64 3 6.64H8C8.199 6.64 8.36 6.801 8.36 7V10C8.36 10.199 8.199 10.36 8 10.36ZM3.36 9.64H7.64V7.36H3.36V9.64Z" fill="black"/>
</g>
<defs>
<clipPath id="clip0_1_2">
<rect width="32" height="32" fill="white"/>
</clipPath>
</defs>
</svg>
