<svg width="60" height="60" viewBox="0 0 60 60" fill="none" xmlns="http://www.w3.org/2000/svg">
<path d="M49.0661 38.3881H36.2483C36.2529 38.4163 36.2559 38.4451 36.2559 38.4746C36.2559 38.989 35.8389 39.4059 35.3246 39.4059H24.6555C24.1412 39.4059 23.7242 38.989 23.7242 38.4746C23.7242 38.4451 23.7272 38.4163 23.7318 38.3881H10.9339C9.93987 38.3881 9.13395 39.1939 9.13395 40.1881C9.13395 41.9008 10.5224 43.2892 12.2351 43.2892H47.765C49.4777 43.2892 50.8662 41.9008 50.8662 40.1881C50.8661 39.1939 50.0603 38.3881 49.0661 38.3881ZM15.2614 41.5886H13.3963C12.982 41.5886 12.6463 41.2529 12.6463 40.8386C12.6463 40.4244 12.982 40.0886 13.3963 40.0886H15.2614C15.6756 40.0886 16.0114 40.4244 16.0114 40.8386C16.0114 41.2528 15.6756 41.5886 15.2614 41.5886ZM46.4255 41.5886H44.5604C44.1461 41.5886 43.8104 41.2529 43.8104 40.8386C43.8104 40.4244 44.1461 40.0886 44.5604 40.0886H46.4255C46.8398 40.0886 47.1755 40.4244 47.1755 40.8386C47.1755 41.2528 46.8398 41.5886 46.4255 41.5886Z" fill="#231F20"/>
<path d="M40.3488 22.4264C40.8542 22.4264 41.2638 22.0167 41.2638 21.5114C41.2638 21.006 40.8542 20.5964 40.3488 20.5964C39.8435 20.5964 39.4338 21.006 39.4338 21.5114C39.4338 22.0167 39.8435 22.4264 40.3488 22.4264Z" fill="#231F20"/>
<path d="M36.3204 31.2617C35.8353 31.1229 35.3278 31.4047 35.189 31.8898C35.0502 32.3749 35.3321 32.8823 35.8171 33.0211C36.3022 33.1599 36.8097 32.8781 36.9485 32.393C37.0872 31.908 36.8055 31.4005 36.3204 31.2617Z" fill="#231F20"/>
<path d="M23.9257 26.494C24.4559 26.494 24.8857 26.0642 24.8857 25.534C24.8857 25.0038 24.4559 24.574 23.9257 24.574C23.3955 24.574 22.9657 25.0038 22.9657 25.534C22.9657 26.0642 23.3955 26.494 23.9257 26.494Z" fill="#231F20"/>
<path d="M45.3755 16.7108H14.6073C13.6133 16.7108 12.8073 17.5166 12.8073 18.5108V36.888H47.1756V18.5108C47.1755 17.5167 46.3696 16.7108 45.3755 16.7108ZM20.2357 28.039H19.6657C18.3235 28.039 17.2357 26.9506 17.2357 25.609V25.459C17.2357 24.1168 18.3235 23.029 19.6657 23.029H20.2357V28.039ZM24.207 33.9892H22.767C22.4358 33.9892 22.1358 33.8548 21.9186 33.6376C21.7014 33.4204 21.567 33.1204 21.567 32.7892C21.567 32.3482 21.8058 31.9636 22.1605 31.7548L21.9055 29.539H24.1027C24.1027 29.539 24.1183 29.539 24.1237 29.539C24.1381 29.539 24.1519 29.5396 24.1663 29.5408C24.1687 29.5414 24.1717 29.5414 24.1747 29.5414C24.1915 29.5426 24.2083 29.5438 24.2252 29.5462C24.2582 29.5498 24.2911 29.5546 24.3241 29.5612L24.5635 31.6426C24.8077 31.7182 25.0183 31.8706 25.1683 32.071C25.3183 32.2714 25.4071 32.5198 25.4071 32.7892C25.407 33.4516 24.8701 33.9892 24.207 33.9892ZM32.2207 20.9524V23.2318V27.8356V30.1156V31.114C32.2207 31.528 31.8846 31.864 31.4707 31.864C31.092 31.864 30.7801 31.5832 30.7291 31.219H30.2287C29.6803 31.219 29.1463 31.0474 28.7005 30.7282L25.6309 28.5298C25.3453 28.3252 25.0237 28.1812 24.6853 28.105C24.6685 28.1008 24.6516 28.0972 24.6348 28.0936C24.6283 28.0918 24.6211 28.0906 24.6138 28.0894C24.6072 28.0876 24.6006 28.0864 24.5934 28.0858C24.5694 28.0804 24.5448 28.0762 24.5208 28.0726C24.5106 28.0708 24.501 28.0696 24.4908 28.0684C24.468 28.0648 24.4452 28.0618 24.4224 28.0588C24.4104 28.057 24.3984 28.0558 24.3858 28.0546C24.3582 28.0516 24.33 28.0492 24.3018 28.0468C24.2953 28.0462 24.2886 28.0456 24.2827 28.0456C24.2592 28.0438 24.2353 28.0426 24.2118 28.042C24.1927 28.0408 24.1729 28.0402 24.1536 28.0396C24.1374 28.039 24.12 28.039 24.1026 28.039H21.9054C21.8484 28.039 21.7914 28.042 21.7356 28.0492V27.9946V23.029H24.1026C24.651 23.029 25.185 22.8574 25.6308 22.5382L28.7004 20.3398C29.1462 20.0206 29.6802 19.849 30.2286 19.849H30.729C30.7801 19.4848 31.092 19.204 31.4706 19.204C31.8846 19.204 32.2206 19.54 32.2206 19.954L32.2207 20.9524ZM33.7207 27.7438C34.5961 27.3916 35.2153 26.5336 35.2153 25.534C35.2153 24.5344 34.5961 23.6764 33.7207 23.3236V21.9568C34.1191 22.0558 34.4917 22.2196 34.827 22.4362L35.4379 21.9544C35.6293 21.8032 35.9029 21.8194 36.0751 21.9916L36.3757 22.2922C36.5479 22.4644 36.5641 22.7386 36.4135 22.9294L35.9311 23.5402C36.1675 23.9056 36.3403 24.3148 36.4351 24.7534L37.2061 24.844C37.4479 24.8728 37.6303 25.0774 37.6303 25.321V25.7464C37.6303 25.99 37.4479 26.1952 37.2061 26.2234L36.4351 26.3146C36.3403 26.7526 36.1675 27.1624 35.9311 27.5272L36.4135 28.138C36.5641 28.3294 36.5479 28.603 36.3757 28.7752L36.0751 29.0758C35.9029 29.248 35.6292 29.2642 35.4379 29.1136L34.827 28.6318C34.4916 28.8484 34.119 29.0116 33.7207 29.1106V27.7438ZM38.404 32.6988L38.3454 32.9033C38.312 33.0203 38.1962 33.0938 38.076 33.0743L37.6927 33.0119C37.5868 33.2096 37.4474 33.3826 37.2838 33.5258L37.4315 33.8857C37.4777 33.9983 37.4323 34.1277 37.3259 34.1868L37.1399 34.29C37.0335 34.3491 36.8996 34.3192 36.8285 34.2204L36.6012 33.9048C36.3931 33.968 36.1725 33.9948 35.9488 33.9802L35.799 34.3384C35.7521 34.4507 35.6284 34.5101 35.5114 34.4767L35.307 34.4182C35.1899 34.3847 35.1164 34.2689 35.136 34.1487L35.1983 33.7655C35.0007 33.6596 34.8276 33.5201 34.6845 33.3565L34.3246 33.5042C34.212 33.5504 34.0826 33.505 34.0235 33.3986L33.9202 33.2126C33.8612 33.1062 33.8911 32.9723 33.9898 32.9012L34.3055 32.6739C34.2423 32.4658 34.2155 32.2452 34.2301 32.0215L33.8719 31.8717C33.7596 31.8247 33.7002 31.7011 33.7336 31.5841L33.7922 31.3796C33.8256 31.2625 33.9414 31.189 34.0615 31.2086L34.4448 31.2709C34.5507 31.0733 34.6902 30.9002 34.8538 30.757L34.7061 30.3972C34.66 30.2846 34.7053 30.1552 34.8118 30.0961L34.9977 29.9929C35.1042 29.9338 35.238 29.9637 35.3091 30.0625L35.5365 30.3781C35.7445 30.3149 35.9651 30.2881 36.1888 30.3028L36.3386 29.9446C36.3856 29.8322 36.5092 29.7728 36.6262 29.8063L36.8307 29.8648C36.9477 29.8982 37.0212 30.014 37.0017 30.1342L36.9394 30.5174C37.137 30.6233 37.3101 30.7628 37.4533 30.9264L37.8131 30.7787C37.9257 30.7325 38.0551 30.7779 38.1142 30.8843L38.2174 31.0703C38.2765 31.1767 38.2466 31.3105 38.1478 31.3817L37.8322 31.609C37.8954 31.817 37.9222 32.0377 37.9075 32.2614L38.2658 32.4112C38.378 32.4581 38.4374 32.5817 38.404 32.6988ZM42.7472 21.6177C42.7472 21.7394 42.656 21.8419 42.5352 21.8562L42.1495 21.9017C42.1021 22.1208 42.0156 22.3255 41.8977 22.5082L42.1386 22.8136C42.214 22.9091 42.206 23.0461 42.1199 23.1322L41.9695 23.2825C41.8834 23.3686 41.7465 23.3767 41.6509 23.3012L41.3455 23.0603C41.1629 23.1782 40.9581 23.2647 40.7391 23.3122L40.6936 23.6978C40.6793 23.8187 40.5768 23.9098 40.455 23.9098H40.2424C40.1206 23.9098 40.0182 23.8187 40.0038 23.6978L39.9583 23.3122C39.7393 23.2647 39.5345 23.1782 39.3519 23.0603L39.0465 23.3012C38.9509 23.3767 38.814 23.3686 38.7279 23.2825L38.5775 23.1322C38.4914 23.0461 38.4834 22.9092 38.5588 22.8136L38.7997 22.5082C38.6818 22.3256 38.5953 22.1208 38.5479 21.9017L38.1622 21.8562C38.0413 21.8419 37.9503 21.7394 37.9503 21.6177V21.4051C37.9503 21.2833 38.0414 21.1808 38.1622 21.1666L38.5479 21.1211C38.5953 20.902 38.6818 20.6972 38.7997 20.5145L38.5588 20.2092C38.4834 20.1136 38.4914 19.9768 38.5775 19.8906L38.7279 19.7402C38.814 19.6541 38.9509 19.6461 39.0465 19.7215L39.3519 19.9625C39.5345 19.8445 39.7393 19.7581 39.9583 19.7106L40.0038 19.325C40.0181 19.2041 40.1206 19.1129 40.2424 19.1129H40.455C40.5768 19.1129 40.6792 19.2041 40.6936 19.325L40.7391 19.7106C40.9581 19.7581 41.1629 19.8445 41.3455 19.9625L41.6509 19.7215C41.7465 19.6461 41.8834 19.6541 41.9695 19.7402L42.1199 19.8906C42.206 19.9767 42.214 20.1136 42.1386 20.2092L41.8977 20.5145C42.0156 20.6972 42.1021 20.902 42.1495 21.1211L42.5352 21.1666C42.6561 21.1808 42.7472 21.2833 42.7472 21.4051V21.6177Z" fill="#231F20"/>
</svg>
