<svg width="800" height="800" viewBox="0 0 800 800" fill="none" xmlns="http://www.w3.org/2000/svg">
<path fill-rule="evenodd" clip-rule="evenodd" d="M704.044 90.2352C664.99 51.1828 601.677 51.1825 562.624 90.2352L506.63 146.228L243.097 409.76C238.825 414.033 235.794 419.387 234.329 425.247L200.996 558.58C198.156 569.94 201.484 581.957 209.763 590.234C218.043 598.514 230.059 601.843 241.418 599.003L374.75 565.67C380.614 564.203 385.964 561.174 390.237 556.9L651.854 295.286L709.764 237.376C748.817 198.323 748.817 135.006 709.764 95.9542L704.044 90.2352ZM609.764 137.376C622.78 124.358 643.887 124.358 656.904 137.376L662.624 143.095C675.64 156.112 675.64 177.218 662.624 190.235L628.74 224.119L576.894 170.246L609.764 137.376ZM529.744 217.395L581.59 271.268L349.627 503.233L279.146 520.853L296.766 450.373L529.744 217.395ZM133.334 266.665C133.334 248.256 148.258 233.332 166.667 233.332H333.334C351.744 233.332 366.667 218.408 366.667 199.998C366.667 181.589 351.744 166.665 333.334 166.665H166.667C111.439 166.665 66.667 211.437 66.667 266.665V633.33C66.667 688.56 111.439 733.33 166.667 733.33H533.334C588.564 733.33 633.334 688.56 633.334 633.33V466.663C633.334 448.257 618.41 433.33 600 433.33C581.59 433.33 566.667 448.257 566.667 466.663V633.33C566.667 651.74 551.744 666.664 533.334 666.664H166.667C148.258 666.664 133.334 651.74 133.334 633.33V266.665Z" fill="#304BA0"/>
</svg>
