<svg width="16" height="16" viewBox="0 0 16 16" fill="none" xmlns="http://www.w3.org/2000/svg">
<path d="M12.4049 7.66668C12.155 7.66668 11.9525 7.86922 11.9525 8.11908V12.6429C11.9525 12.8928 11.75 13.0953 11.5001 13.0953H3.35716C3.10731 13.0953 2.90477 12.8928 2.90477 12.6429V3.5952C2.90477 3.34534 3.10731 3.1428 3.35716 3.1428H8.78581C9.03566 3.1428 9.2382 2.94026 9.2382 2.69041C9.2382 2.44055 9.03566 2.23804 8.78581 2.23804H3.35716C2.60762 2.23804 2 2.84566 2 3.5952V12.6429C2 13.3925 2.60762 14.0001 3.35716 14.0001H11.5001C12.2497 14.0001 12.8573 13.3925 12.8573 12.6429V8.11905C12.8573 7.86922 12.6548 7.66668 12.4049 7.66668Z" fill="black"/>
<path d="M14.1602 1.84055C13.9994 1.6797 13.8084 1.5521 13.5983 1.46506C13.3881 1.37802 13.1629 1.33323 12.9354 1.33326C12.7079 1.3326 12.4824 1.37712 12.2722 1.46426C12.062 1.55139 11.8712 1.67939 11.7108 1.84084L5.75194 7.79921C5.70251 7.84902 5.66521 7.90954 5.64292 7.97609L4.73815 10.6904C4.65919 10.9275 4.78735 11.1836 5.0244 11.2626C5.07039 11.2779 5.11856 11.2857 5.16701 11.2858C5.21558 11.2857 5.26383 11.2779 5.30996 11.2627L8.02429 10.3579C8.09095 10.3357 8.15152 10.2982 8.20117 10.2485L14.16 4.28962C14.8363 3.61337 14.8364 2.51688 14.1602 1.84055ZM13.5203 3.65037L7.6393 9.53142L5.88222 10.1182L6.46716 8.36333L12.3505 2.48231C12.6739 2.15951 13.1978 2.16004 13.5206 2.48348C13.6748 2.63799 13.7617 2.84716 13.7623 3.06544C13.7626 3.17409 13.7414 3.28172 13.6998 3.38211C13.6583 3.48251 13.5973 3.57368 13.5203 3.65037Z" fill="black"/>
</svg>
