<svg width="88" height="88" viewBox="0 0 88 88" fill="none" xmlns="http://www.w3.org/2000/svg">
<circle cx="44" cy="44" r="44" fill="#EDF1FF"/>
<path d="M63.9286 27.9576C58.5195 22.6868 49.7077 22.679 44.2889 27.9451L44.0006 28.2259L43.7124 27.9451C38.2919 22.6805 29.4833 22.6868 24.0629 27.967C18.6457 33.2441 18.6457 41.8327 24.0629 47.113L39.5593 62.2085C40.7445 63.3647 42.3226 64 44.0006 64C45.6786 64 47.2551 63.3647 48.4419 62.2085L63.9383 47.113C69.3555 41.8327 69.3555 33.2441 63.9286 27.9576ZM61.8867 45.116L46.3904 60.2116C45.1133 61.4556 42.8862 61.4556 41.6092 60.2116L26.1129 45.116C21.8245 40.937 21.8245 34.1399 26.1225 29.9546C27.1431 28.9594 28.3555 28.1705 29.69 27.6332C31.0245 27.0959 32.4549 26.8207 33.8989 26.8235C36.7106 26.8235 39.5222 27.8635 41.664 29.9452L42.4563 30.7154C42.8669 31.1112 43.4213 31.3333 43.999 31.3333C44.5767 31.3333 45.1311 31.1112 45.5417 30.7154L45.5433 30.7138L46.334 29.9452C50.6207 25.7787 57.5951 25.785 61.8851 29.964C66.1767 34.1399 66.1767 40.937 61.8867 45.116Z" fill="#304BA0"/>
<path d="M59.9352 31.84C58.6181 30.5452 56.8839 29.731 55.0236 29.534C54.6416 29.4927 54.2583 29.6008 53.9582 29.8347C53.658 30.0685 53.4654 30.409 53.423 30.7812C53.3805 31.1533 53.4915 31.5267 53.7316 31.8191C53.9716 32.1115 54.3211 32.2991 54.7032 32.3404C55.9158 32.4722 57.0172 32.9899 57.9432 33.8919C58.787 34.7374 59.3023 35.7979 59.4328 36.9603C59.4533 37.1446 59.5109 37.3233 59.6023 37.486C59.6936 37.6486 59.817 37.7922 59.9654 37.9085C60.1137 38.0247 60.2841 38.1113 60.4668 38.1634C60.6495 38.2155 60.841 38.2321 61.0302 38.2121C61.2195 38.1921 61.4029 38.136 61.5699 38.047C61.7369 37.958 61.8843 37.8378 62.0036 37.6933C62.1229 37.5488 62.2119 37.3828 62.2654 37.2048C62.3188 37.0268 62.3358 36.8403 62.3153 36.6559C62.114 34.8613 61.3217 33.2252 59.9352 31.84Z" fill="#304BA0"/>
</svg>
