<svg width="88" height="88" viewBox="0 0 88 88" fill="none" xmlns="http://www.w3.org/2000/svg">
<circle cx="44" cy="44" r="44" fill="#EDF1FF"/>
<path d="M28.6955 63.5312H59.3028C59.5103 63.5312 59.7146 63.4807 59.8982 63.3841C60.0818 63.2874 60.239 63.1475 60.3564 62.9765C60.4738 62.8054 60.5478 62.6083 60.5719 62.4023C60.5961 62.1962 60.5697 61.9874 60.495 61.7938L55.888 49.8414C55.7952 49.6005 55.6316 49.3935 55.4188 49.2474C55.2059 49.1014 54.9539 49.0232 54.6958 49.0232H52.666C51.9603 49.0232 51.3883 49.5954 51.3883 50.3009C51.3883 51.0065 51.9603 51.5787 52.666 51.5787H53.819L57.4409 60.9756H30.5575L34.1797 51.5787H35.3326C36.0384 51.5787 36.6104 51.0065 36.6104 50.3009C36.6104 49.5954 36.0384 49.0232 35.3326 49.0232H33.3029C33.0448 49.0232 32.7927 49.1014 32.5799 49.2474C32.3671 49.3935 32.2035 49.6005 32.1107 49.8414L27.5034 61.7939C27.4288 61.9875 27.4025 62.1963 27.4267 62.4023C27.4508 62.6083 27.5248 62.8053 27.6422 62.9763C27.7595 63.1474 27.9168 63.2873 28.1003 63.3839C28.2838 63.4806 28.4881 63.5311 28.6955 63.5312Z" fill="#304BA0"/>
<path d="M43.9986 24.4688C36.9603 24.4688 31.2344 30.1947 31.2344 37.233C31.2344 43.9443 41.9149 53.9783 43.1328 55.1003C43.3686 55.3179 43.6777 55.4386 43.9986 55.4383C44.3091 55.4383 44.6198 55.3256 44.8644 55.1003C46.0822 53.9783 56.763 43.9443 56.763 37.233C56.763 30.1947 51.0369 24.4688 43.9986 24.4688ZM43.9984 52.3997C40.8072 49.2991 33.7898 41.6862 33.7898 37.233C33.7898 31.604 38.3695 27.0242 43.9986 27.0242C49.6277 27.0242 54.2075 31.604 54.2075 37.233C54.2075 41.5805 47.1048 49.38 43.9984 52.3997Z" fill="#304BA0"/>
<path d="M43.9984 41.4055C46.6254 41.4055 48.7627 39.2682 48.7627 36.6414C48.7627 34.0143 46.6254 31.877 43.9984 31.877C41.3715 31.877 39.2344 34.0142 39.2344 36.6414C39.2344 39.2682 41.3715 41.4055 43.9984 41.4055ZM43.9984 34.4325C45.2163 34.4325 46.2072 35.4236 46.2072 36.6415C46.2072 37.8594 45.2163 38.8501 43.9984 38.8501C42.7806 38.8501 41.7898 37.8593 41.7898 36.6415C41.7898 35.4237 42.7806 34.4325 43.9984 34.4325Z" fill="#304BA0"/>
</svg>
