<svg width="88" height="88" viewBox="0 0 88 88" fill="none" xmlns="http://www.w3.org/2000/svg">
<circle cx="44" cy="44" r="44" fill="#EDF1FF"/>
<path d="M36.0462 64C35.011 64 34.1309 63.6473 33.4057 62.9419C32.6806 62.2368 32.3181 61.381 32.3181 60.3745C32.3181 59.3677 32.6806 58.5117 33.4057 57.8066C34.1309 57.1016 35.011 56.749 36.0462 56.749C37.0817 56.749 37.962 57.1016 38.6871 57.8066C39.4122 58.5117 39.7748 59.3677 39.7748 60.3745C39.7748 61.381 39.4122 62.2368 38.6871 62.9419C37.962 63.6473 37.0817 64 36.0462 64ZM56.6975 64C55.662 64 54.7817 63.6473 54.0565 62.9419C53.3314 62.2368 52.9688 61.381 52.9688 60.3745C52.9688 59.3677 53.3314 58.5117 54.0565 57.8066C54.7817 57.1016 55.662 56.749 56.6975 56.749C57.7326 56.749 58.6127 57.1016 59.3379 57.8066C60.063 58.5117 60.4256 59.3677 60.4256 60.3745C60.4256 61.381 60.063 62.2368 59.3379 62.9419C58.6127 63.6473 57.7326 64 56.6975 64ZM33.6204 31.251L39.0211 42.2471H53.5462C53.6691 42.2471 53.7785 42.2172 53.8744 42.1575C53.9699 42.0977 54.0517 42.0147 54.1199 41.9084L59.8359 31.8088C59.9179 31.6627 59.9247 31.5332 59.8562 31.4203C59.788 31.3074 59.6719 31.251 59.5078 31.251H33.6204ZM32.0885 28.1434H61.6715C62.5429 28.1434 63.2018 28.5041 63.6482 29.2254C64.0949 29.9463 64.1162 30.6826 63.7121 31.4343L56.8855 43.458C56.5361 44.0557 56.0739 44.5211 55.499 44.8543C54.9237 45.1879 54.2934 45.3546 53.608 45.3546H38.0623L35.5955 49.7368C35.4862 49.8963 35.4828 50.069 35.5854 50.2547C35.6877 50.4408 35.8413 50.5339 36.0462 50.5339H60.4256V53.6415H36.0462C34.6257 53.6415 33.5584 53.0458 32.8443 51.8546C32.1298 50.6634 32.1046 49.4741 32.7687 48.2866L35.8086 42.9722L28.0568 27.1076H24V24H30.0644L32.0885 28.1434Z" fill="#304BA0"/>
</svg>
