<svg width="88" height="88" viewBox="0 0 88 88" fill="none" xmlns="http://www.w3.org/2000/svg">
<circle cx="44" cy="44" r="44" fill="#EDF1FF"/>
<path fill-rule="evenodd" clip-rule="evenodd" d="M43.8021 20C41.5702 20 39.4297 20.9725 37.8515 22.7036C36.2733 24.4347 35.3866 26.7826 35.3866 29.2307V31.0769H31.667C30.4242 31.0767 29.2251 31.5793 28.299 32.4884C27.373 33.3976 26.7852 34.6494 26.648 36.0042L24.0308 61.8502C23.9525 62.6244 24.0239 63.408 24.2404 64.1498C24.4569 64.8917 24.8136 65.5751 25.2873 66.1554C25.7609 66.7358 26.3408 67.2 26.9892 67.5178C27.6375 67.8356 28.3397 67.9998 29.0498 67.9997H48.8514C49.2978 67.9997 49.7259 67.8052 50.0415 67.459C50.3571 67.1128 50.5345 66.6432 50.5345 66.1536C50.5345 65.664 50.3571 65.1944 50.0415 64.8482C49.7259 64.502 49.2978 64.3075 48.8514 64.3075H29.0498C28.8132 64.3075 28.5792 64.2527 28.3631 64.1469C28.147 64.041 27.9537 63.8863 27.7959 63.6929C27.638 63.4995 27.5191 63.2718 27.4469 63.0246C27.3746 62.7774 27.3508 62.5162 27.3768 62.2582L29.994 36.4122C30.0396 35.9605 30.2355 35.5431 30.5442 35.2399C30.8529 34.9367 31.2527 34.7691 31.667 34.7692H35.3866V38.4614C35.3866 38.9511 35.564 39.4206 35.8796 39.7669C36.1953 40.1131 36.6234 40.3076 37.0697 40.3076C37.5161 40.3076 37.9442 40.1131 38.2599 39.7669C38.5755 39.4206 38.7528 38.9511 38.7528 38.4614V34.7692H48.8514V38.4614C48.8514 38.9511 49.0287 39.4206 49.3443 39.7669C49.66 40.1131 50.0881 40.3076 50.5345 40.3076C50.9809 40.3076 51.409 40.1131 51.7246 39.7669C52.0402 39.4206 52.2176 38.9511 52.2176 38.4614V34.7692H55.9372C56.3515 34.7691 56.7513 34.9367 57.06 35.2399C57.3687 35.5431 57.5646 35.9605 57.6102 36.4122L58.96 49.7414C59.0091 50.2281 59.2325 50.6734 59.581 50.9795C59.9294 51.2855 60.3745 51.4272 60.8182 51.3734C61.2619 51.3195 61.6679 51.0745 61.9469 50.6923C62.2259 50.3101 62.3551 49.8219 62.306 49.3352L60.9562 36.0042C60.8191 34.6494 60.2312 33.3976 59.3052 32.4884C58.3792 31.5793 57.18 31.0767 55.9372 31.0769H52.2176V29.2307C52.2176 26.7826 51.3309 24.4347 49.7527 22.7036C48.1745 20.9725 46.034 20 43.8021 20ZM48.8514 31.0769V29.2307C48.8514 27.7618 48.3194 26.3531 47.3725 25.3145C46.4256 24.2758 45.1413 23.6923 43.8021 23.6923C42.463 23.6923 41.1787 24.2758 40.2317 25.3145C39.2848 26.3531 38.7528 27.7618 38.7528 29.2307V31.0769H48.8514Z" fill="#304BA0"/>
<path fill-rule="evenodd" clip-rule="evenodd" d="M58.9545 55.0771C58.9545 54.5875 58.7772 54.1179 58.4616 53.7717C58.1459 53.4255 57.7178 53.231 57.2714 53.231C56.825 53.231 56.3969 53.4255 56.0813 53.7717C55.7657 54.1179 55.5883 54.5875 55.5883 55.0771V58.7694H52.2222C51.7758 58.7694 51.3477 58.9639 51.032 59.3101C50.7164 59.6563 50.5391 60.1259 50.5391 60.6155C50.5391 61.1052 50.7164 61.5747 51.032 61.921C51.3477 62.2672 51.7758 62.4617 52.2222 62.4617H55.5883V66.154C55.5883 66.6436 55.7657 67.1132 56.0813 67.4594C56.3969 67.8056 56.825 68.0001 57.2714 68.0001C57.7178 68.0001 58.1459 67.8056 58.4616 67.4594C58.7772 67.1132 58.9545 66.6436 58.9545 66.154V62.4617H62.3207C62.7671 62.4617 63.1952 62.2672 63.5108 61.921C63.8265 61.5747 64.0038 61.1052 64.0038 60.6155C64.0038 60.1259 63.8265 59.6563 63.5108 59.3101C63.1952 58.9639 62.7671 58.7694 62.3207 58.7694H58.9545V55.0771Z" fill="#304BA0"/>
</svg>
