<svg width="16" height="16" viewBox="0 0 16 16" fill="none" xmlns="http://www.w3.org/2000/svg">
<mask id="mask0_177_2516" style="mask-type:alpha" maskUnits="userSpaceOnUse" x="0" y="0" width="16" height="16">
<rect width="16" height="15.9887" fill="#E6E6E6"/>
</mask>
<g mask="url(#mask0_177_2516)">
<path d="M7.9974 11.1419C8.15295 11.1419 8.28073 11.092 8.38073 10.9921C8.48073 10.8921 8.53073 10.7644 8.53073 10.609C8.53073 10.4535 8.48073 10.3259 8.38073 10.2259C8.28073 10.126 8.15295 10.076 7.9974 10.076C7.84184 10.076 7.71406 10.126 7.61406 10.2259C7.51406 10.3259 7.46406 10.4535 7.46406 10.609C7.46406 10.7644 7.51406 10.8921 7.61406 10.9921C7.71406 11.092 7.84184 11.1419 7.9974 11.1419ZM7.9974 8.71034C8.14184 8.71034 8.2614 8.66304 8.35606 8.56844C8.45028 8.47428 8.4974 8.35503 8.4974 8.21069V5.21282C8.4974 5.06847 8.45028 4.949 8.35606 4.8544C8.2614 4.76025 8.14184 4.71317 7.9974 4.71317C7.85295 4.71317 7.73362 4.76025 7.6394 4.8544C7.54473 4.949 7.4974 5.06847 7.4974 5.21282V8.21069C7.4974 8.35503 7.54473 8.47428 7.6394 8.56844C7.73362 8.66304 7.85295 8.71034 7.9974 8.71034ZM7.9974 14.323C7.11962 14.323 6.29473 14.1565 5.52273 13.8234C4.75028 13.4903 4.08073 13.0406 3.51406 12.4743C2.9474 11.9081 2.4974 11.239 2.16406 10.4671C1.83073 9.69564 1.66406 8.87134 1.66406 7.99418C1.66406 7.11702 1.83073 6.2925 2.16406 5.5206C2.4974 4.74914 2.9474 4.08029 3.51406 3.51402C4.08073 2.94775 4.75028 2.49807 5.52273 2.16498C6.29473 1.83188 7.11962 1.66533 7.9974 1.66533C8.87517 1.66533 9.70028 1.83188 10.4727 2.16498C11.2447 2.49807 11.9141 2.94775 12.4807 3.51402C13.0474 4.08029 13.4974 4.74914 13.8307 5.5206C14.1641 6.2925 14.3307 7.11702 14.3307 7.99418C14.3307 8.87134 14.1641 9.69564 13.8307 10.4671C13.4974 11.239 13.0474 11.9081 12.4807 12.4743C11.9141 13.0406 11.2447 13.4903 10.4727 13.8234C9.70028 14.1565 8.87517 14.323 7.9974 14.323ZM7.9974 13.3237C9.48628 13.3237 10.7474 12.8074 11.7807 11.7748C12.8141 10.7422 13.3307 9.48201 13.3307 7.99418C13.3307 6.50634 12.8141 5.24613 11.7807 4.21352C10.7474 3.18092 9.48628 2.66462 7.9974 2.66462C6.50851 2.66462 5.2474 3.18092 4.21406 4.21352C3.18073 5.24613 2.66406 6.50634 2.66406 7.99418C2.66406 9.48201 3.18073 10.7422 4.21406 11.7748C5.2474 12.8074 6.50851 13.3237 7.9974 13.3237Z" fill="#FC5050"/>
</g>
</svg>
