<svg width="40" height="40" viewBox="0 0 40 40" fill="none" xmlns="http://www.w3.org/2000/svg">
<mask id="mask0_1502_808" style="mask-type:alpha" maskUnits="userSpaceOnUse" x="0" y="0" width="40" height="40">
<rect width="40" height="40" fill="#D9D9D9"/>
</mask>
<g mask="url(#mask0_1502_808)">
<path d="M19.9993 27.8846C20.3807 27.8846 20.7005 27.7556 20.9585 27.4975C21.2166 27.2395 21.3456 26.9197 21.3456 26.5384C21.3456 26.157 21.2166 25.8372 20.9585 25.5792C20.7005 25.3214 20.3807 25.1925 19.9993 25.1925C19.618 25.1925 19.2982 25.3214 19.0402 25.5792C18.7821 25.8372 18.6531 26.157 18.6531 26.5384C18.6531 26.9197 18.7821 27.2395 19.0402 27.4975C19.2982 27.7556 19.618 27.8846 19.9993 27.8846ZM18.7493 21.795H21.2493V11.795H18.7493V21.795ZM20.0023 35.8334C17.8123 35.8334 15.7538 35.4178 13.8268 34.5867C11.8999 33.7556 10.2238 32.6277 8.79852 31.2029C7.37324 29.7782 6.24477 28.1028 5.4131 26.1767C4.58171 24.2506 4.16602 22.1927 4.16602 20.0029C4.16602 17.8129 4.58157 15.7545 5.41268 13.8275C6.24379 11.9006 7.37171 10.2245 8.79643 8.79919C10.2212 7.37391 11.8966 6.24544 13.8227 5.41377C15.7488 4.58238 17.8067 4.16669 19.9964 4.16669C22.1864 4.16669 24.2449 4.58224 26.1719 5.41335C28.0988 6.24446 29.7749 7.37238 31.2002 8.7971C32.6255 10.2218 33.7539 11.8972 34.5856 13.8234C35.417 15.7495 35.8327 17.8074 35.8327 19.9971C35.8327 22.1871 35.4171 24.2456 34.586 26.1725C33.7549 28.0995 32.627 29.7756 31.2023 31.2009C29.7775 32.6261 28.1021 33.7546 26.176 34.5863C24.2499 35.4177 22.192 35.8334 20.0023 35.8334ZM19.9993 33.3334C23.7216 33.3334 26.8743 32.0417 29.4577 29.4584C32.041 26.875 33.3327 23.7222 33.3327 20C33.3327 16.2778 32.041 13.125 29.4577 10.5417C26.8743 7.95835 23.7216 6.66669 19.9993 6.66669C16.2771 6.66669 13.1243 7.95835 10.541 10.5417C7.95768 13.125 6.66602 16.2778 6.66602 20C6.66602 23.7222 7.95768 26.875 10.541 29.4584C13.1243 32.0417 16.2771 33.3334 19.9993 33.3334Z" fill="#304BA0"/>
</g>
</svg>
