<svg width="60" height="60" viewBox="0 0 60 60" fill="none" xmlns="http://www.w3.org/2000/svg">
<path d="M22.5 26.25C25.0342 26.3379 26.3818 28.8574 28.1543 30.3516C29.8535 32.168 31.8311 33.7646 33.3252 35.7568C34.4824 37.7783 33.1787 39.9463 31.5674 41.2354C29.2236 43.5059 27.0117 45.9375 24.5801 48.1201C22.8076 49.1602 20.7129 48.6182 18.75 48.75C18.75 41.25 18.75 33.75 18.75 26.25H22.5Z" fill="#2E3436"/>
<path d="M18.8232 15V3.75C18.8232 1.68457 17.1533 0 15.0732 0C13.0078 0 11.3232 1.68457 11.3232 3.75V15C11.3232 17.0654 13.0078 18.75 15.0732 18.75C17.1533 18.75 18.8232 17.0654 18.8232 15ZM11.25 26.2646C11.2646 22.9541 11.0303 21.2109 12.1143 20.1416C12.1582 20.0977 12.2021 20.0537 12.2461 20.0098C12.2754 19.9658 12.3193 19.9072 12.3486 19.8633C13.1396 18.9111 14.7803 18.6182 17.2559 18.75H17.3437H17.4463C26.8652 18.7793 36.2695 18.6914 45.6592 18.7939L45.4248 18.7793C47.4316 18.9258 49.0283 21.0791 48.7793 23.1299C48.7646 23.1885 48.7646 23.2471 48.75 23.3057V23.5547C48.6914 28.5938 48.8525 33.5303 48.6621 38.4229L48.6914 38.1152C48.457 40.0342 46.3623 41.5137 44.3408 41.2793C44.2822 41.2646 44.2236 41.2646 44.165 41.25H41.25C39.1846 41.25 37.5 42.9346 37.5 45C37.5 47.0654 39.1846 48.75 41.25 48.75H43.9014L43.4619 48.7207C49.3652 49.4238 55.3711 45.1758 56.1328 39.0381C56.1475 38.9795 56.1475 38.9209 56.1475 38.8623C56.1621 38.8184 56.1621 38.7744 56.1621 38.7305C56.3525 33.6475 56.1914 28.5791 56.25 23.6426L56.2207 24.0527C56.9824 17.9297 52.3389 11.7627 45.9668 11.2939C45.9229 11.2939 45.8789 11.2939 45.835 11.2939C45.8057 11.2939 45.7764 11.2939 45.7324 11.2939C36.2988 11.2061 26.8652 11.2793 17.4609 11.25H17.6514C14.4434 11.0889 9.68262 11.3232 6.57715 15.0879L6.82617 14.8242C3.20801 18.4131 3.76465 23.5254 3.75 26.2354C3.75 27.583 4.45312 28.8281 5.61035 29.502C6.76758 30.1758 8.20312 30.1758 9.375 29.5166C10.5322 28.8428 11.25 27.5977 11.25 26.2646ZM33.75 15V3.75C33.75 1.68457 32.0654 0 30 0C27.9346 0 26.25 1.68457 26.25 3.75V15C26.25 17.0654 27.9346 18.75 30 18.75C32.0654 18.75 33.75 17.0654 33.75 15ZM48.75 15V3.75C48.75 1.68457 47.0654 0 45 0C42.9346 0 41.25 1.68457 41.25 3.75V15C41.25 17.0654 42.9346 18.75 45 18.75C47.0654 18.75 48.75 17.0654 48.75 15ZM22.5 33.75H18.75C10.4443 33.75 3.75 40.4443 3.75 48.75V56.25C3.75 58.3154 5.43457 60 7.5 60C9.56543 60 11.25 58.3154 11.25 56.25V48.75C11.25 44.6338 14.6338 41.25 18.75 41.25H22.5C24.5654 41.25 26.25 39.5654 26.25 37.5C26.25 35.4346 24.5654 33.75 22.5 33.75Z" fill="#2E3436"/>
</svg>
