<svg width="800" height="800" viewBox="0 0 800 800" fill="none" xmlns="http://www.w3.org/2000/svg">
<path d="M333.333 300C333.333 286.815 337.243 273.925 344.57 262.962C351.893 251.999 362.307 243.454 374.487 238.408C386.67 233.362 400.073 232.042 413.007 234.614C425.937 237.187 437.817 243.536 447.14 252.86C456.463 262.183 462.813 274.062 465.387 286.994C467.957 299.926 466.637 313.331 461.593 325.512C456.547 337.693 448 348.107 437.037 355.43C426.073 362.757 413.187 366.667 400 366.667V400M475 633.333L426.667 697.777C413.333 715.557 386.667 715.557 373.333 697.777L325 633.333H233.333C159.695 633.333 100 573.637 100 500V233.333C100 159.695 159.695 100 233.333 100H566.667C640.303 100 700 159.695 700 233.333V500C700 573.637 640.303 633.333 566.667 633.333H475Z" stroke="#304BA0" stroke-width="66.6667" stroke-linecap="round" stroke-linejoin="round"/>
<path d="M400 533.333C418.41 533.333 433.334 518.409 433.334 500C433.334 481.59 418.41 466.667 400 466.667C381.591 466.667 366.667 481.59 366.667 500C366.667 518.409 381.591 533.333 400 533.333Z" fill="#304BA0"/>
</svg>
