<svg width="16" height="16" viewBox="0 0 16 16" fill="none" xmlns="http://www.w3.org/2000/svg">
<g clip-path="url(#clip0_217_27)">
<path d="M14.3252 11.8963C14.0482 11.6902 13.6567 11.7478 13.4507 12.0247C13.3374 12.177 13.2161 12.3264 13.0903 12.4687C12.8617 12.7273 12.886 13.1223 13.1446 13.351C13.2635 13.4561 13.4111 13.5077 13.5583 13.5077C13.7311 13.5077 13.9033 13.4364 14.0268 13.2967C14.1758 13.1281 14.3194 12.9512 14.4536 12.7707C14.6596 12.4938 14.6021 12.1023 14.3252 11.8963Z" fill="#818180"/>
<path d="M15.3704 8.96517C15.0334 8.89177 14.7002 9.10567 14.6268 9.44292C14.5864 9.62845 14.5376 9.81433 14.4816 9.99545C14.3797 10.3253 14.5645 10.6752 14.8943 10.7771C14.9557 10.7961 15.0179 10.8051 15.079 10.8051C15.3459 10.8051 15.593 10.6328 15.6759 10.3644C15.7424 10.1495 15.8003 9.92889 15.8482 9.7088C15.9216 9.37155 15.7077 9.03861 15.3704 8.96517Z" fill="#818180"/>
<path d="M11.3168 13.8979C11.1509 13.9906 10.9791 14.0771 10.8062 14.1552C10.4916 14.2973 10.3518 14.6675 10.4938 14.9821C10.5982 15.2132 10.8257 15.35 11.0638 15.35C11.1498 15.35 11.2372 15.3321 11.3207 15.2944C11.5258 15.2018 11.7295 15.0992 11.9262 14.9893C12.2276 14.8211 12.3355 14.4403 12.1672 14.1389C11.999 13.8376 11.6182 13.7297 11.3168 13.8979Z" fill="#818180"/>
<path d="M7.37498 3V7.74113L5.08313 10.0329C4.83907 10.277 4.83907 10.6728 5.08313 10.9168C5.20519 11.0389 5.3651 11.0999 5.5251 11.0999C5.68504 11.0999 5.84501 11.0388 5.96707 10.9168L8.44195 8.44194C8.55913 8.32475 8.62498 8.16575 8.62498 8V3C8.62498 2.65481 8.34516 2.375 7.99998 2.375C7.65479 2.375 7.37498 2.65481 7.37498 3Z" fill="#818180"/>
<path d="M15.375 1.34375C15.0298 1.34375 14.75 1.62356 14.75 1.96875V3.70425C13.2952 1.42275 10.7547 0 8 0C5.86312 0 3.85416 0.832156 2.34313 2.34313C0.832156 3.85416 0 5.86312 0 8C0 10.1369 0.832156 12.1458 2.34313 13.6569C3.85416 15.1678 5.86312 16 8 16C8.00528 16 8.01038 15.9993 8.01562 15.9992C8.02087 15.9993 8.02597 16 8.03125 16C8.2565 16 8.48397 15.9905 8.70741 15.9718C9.05137 15.943 9.30687 15.6408 9.27809 15.2968C9.24925 14.9529 8.94747 14.6973 8.60309 14.7262C8.41422 14.742 8.22184 14.75 8.03125 14.75C8.02597 14.75 8.02087 14.7507 8.01562 14.7508C8.01038 14.7507 8.00528 14.75 8 14.75C4.27803 14.75 1.25 11.722 1.25 8C1.25 4.27803 4.27803 1.25 8 1.25C10.3987 1.25 12.6049 2.52853 13.8105 4.5625H12.092C11.7468 4.5625 11.467 4.84231 11.467 5.1875C11.467 5.53269 11.7468 5.8125 12.092 5.8125H14C14.3806 5.8125 14.7367 5.70553 15.0399 5.52022C15.0594 5.50909 15.0782 5.49712 15.096 5.48422C15.64 5.12637 16 4.51084 16 3.8125V1.96875C16 1.62356 15.7202 1.34375 15.375 1.34375Z" fill="#818180"/>
</g>
<defs>
<clipPath id="clip0_217_27">
<rect width="16" height="16" fill="white"/>
</clipPath>
</defs>
</svg>
