<svg width="60" height="60" viewBox="0 0 60 60" fill="none" xmlns="http://www.w3.org/2000/svg">
<g clip-path="url(#clip0_1_5)">
<path d="M42.2324 21.5219C42.164 21.1347 41.7948 20.8761 41.4072 20.9442L38.8497 21.395C38.5426 20.6745 38.1504 19.9997 37.6851 19.3822L39.3559 17.3914C39.4773 17.2467 39.5361 17.0598 39.52 16.8715C39.5034 16.6831 39.4128 16.5094 39.268 16.3878L37.0311 14.5107C36.8865 14.3893 36.6991 14.3304 36.5109 14.3467C36.3228 14.3631 36.1489 14.4538 36.0273 14.5984L34.3578 16.5882C33.6729 16.2393 32.9402 15.9697 32.1722 15.7923V13.1955C32.1722 12.8018 31.8535 12.4828 31.46 12.4828H28.5401C28.1468 12.4828 27.8279 12.8018 27.8279 13.1955V15.7923C27.0596 15.9697 26.3273 16.2391 25.6421 16.5882L23.9729 14.5984C23.7197 14.2972 23.2706 14.2578 22.9694 14.5108L20.7324 16.3878C20.5875 16.5094 20.4972 16.6831 20.4804 16.8715C20.4644 17.0598 20.523 17.2467 20.6445 17.3914L22.3152 19.3822C21.8499 19.9997 21.4578 20.6748 21.1508 21.395L18.5932 20.9442C18.2064 20.8761 17.8365 21.1347 17.7681 21.5219L17.2609 24.3978C17.2282 24.5838 17.2705 24.7757 17.3791 24.9302C17.4874 25.085 17.6526 25.1901 17.8387 25.2228L20.3982 25.6745C20.4398 26.4671 20.5778 27.2342 20.8002 27.9647L18.5511 29.2633C18.3873 29.3579 18.2682 29.513 18.2191 29.6956C18.1704 29.8784 18.196 30.0727 18.2904 30.2362L19.7503 32.7652C19.8448 32.929 20.0004 33.0481 20.1831 33.097C20.2436 33.1134 20.3055 33.1214 20.3675 33.1214C20.4914 33.1214 20.6142 33.089 20.7234 33.0257L22.9748 31.7261C23.5047 32.2925 24.1025 32.7952 24.755 33.2212L23.8661 35.6628C23.8016 35.8404 23.8098 36.0361 23.8898 36.2074C23.9697 36.3787 24.1142 36.5107 24.2918 36.5757L27.0359 37.5744C27.1145 37.6029 27.1972 37.6173 27.2797 37.6173C27.3826 37.6173 27.4853 37.5949 27.5804 37.5507C27.7517 37.4709 27.8842 37.3263 27.9488 37.1485L28.8376 34.7068C29.2186 34.7529 29.6066 34.7772 30.0001 34.7772C30.3935 34.7772 30.7816 34.7529 31.1626 34.7068L32.0515 37.1485C32.1163 37.3263 32.2484 37.4704 32.4197 37.5507C32.5151 37.5949 32.6174 37.6173 32.7208 37.6173C32.8031 37.6173 32.8859 37.6027 32.9642 37.5744L35.7085 36.5757C35.8863 36.5107 36.0304 36.3787 36.1107 36.2071C36.1905 36.0358 36.1989 35.8404 36.1342 35.6628L35.2452 33.2212C35.898 32.7952 36.4954 32.293 37.0254 31.7261L39.2767 33.0257C39.3861 33.089 39.5088 33.1213 39.6327 33.1213C39.6945 33.1213 39.7566 33.1134 39.817 33.097C39.9998 33.0481 40.155 32.929 40.2497 32.7652L41.7095 30.2362C41.8041 30.0728 41.8298 29.8784 41.781 29.6956C41.732 29.513 41.6126 29.3576 41.4491 29.2633L39.1999 27.9647C39.4219 27.2342 39.5602 26.4673 39.6019 25.6745L42.1614 25.2228C42.3476 25.1901 42.5126 25.085 42.6207 24.9302C42.7296 24.7755 42.7716 24.5838 42.7389 24.3978L42.2324 21.5219ZM30.0002 28.9678C27.8366 28.9678 26.0826 27.214 26.0826 25.0503C26.0826 22.8867 27.8366 21.1329 30.0002 21.1329C32.1638 21.1329 33.9178 22.8867 33.9178 25.0503C33.9178 27.214 32.1638 28.9678 30.0002 28.9678Z" fill="black"/>
<path d="M55.003 3.74568H4.99744C2.24177 3.74568 0 5.98759 0 8.74327V41.3343C0 44.09 2.24177 46.3319 4.99744 46.3319H21.1094L18.0513 53.0752C17.7355 53.7717 17.7949 54.5808 18.2092 55.2234C18.6235 55.8661 19.3357 56.2543 20.1003 56.2543H39.8999C39.8999 56.2543 39.9019 56.2543 39.9028 56.2543C41.1456 56.2543 42.1529 55.2471 42.1529 54.0043C42.1529 53.6304 42.0621 53.2771 41.9 52.9669L38.8906 46.3319H55.0026C57.7582 46.3319 60 44.09 60 41.3343V8.74327C60.0005 5.98759 57.7587 3.74568 55.003 3.74568ZM55.5004 41.3345C55.5004 41.6088 55.2772 41.8319 55.003 41.8319H4.99744C4.72324 41.8319 4.50003 41.6088 4.50003 41.3345V8.74327C4.50003 8.46891 4.72324 8.24571 4.99744 8.24571H55.0029C55.2771 8.24571 55.5003 8.46891 55.5003 8.74327L55.5004 41.3345Z" fill="black"/>
</g>
<defs>
<clipPath id="clip0_1_5">
<rect width="60" height="60" fill="white"/>
</clipPath>
</defs>
</svg>
