<svg width="24" height="24" viewBox="0 0 24 24" fill="none" xmlns="http://www.w3.org/2000/svg">
<mask id="mask0_1783_2135" style="mask-type:alpha" maskUnits="userSpaceOnUse" x="0" y="0" width="24" height="24">
<rect width="24" height="24" fill="#D9D9D9"/>
</mask>
<g mask="url(#mask0_1783_2135)">
<path d="M8.5 11.5H15.5V10.5H8.5V11.5ZM8.5 7.5H15.5V6.5H8.5V7.5ZM18.9115 19.9365L15.4962 15.5078C15.2512 15.1884 14.9589 14.9407 14.6193 14.7645C14.2794 14.5882 13.9063 14.5 13.5 14.5H5V4.6155C5 4.15517 5.15417 3.77083 5.4625 3.4625C5.77083 3.15417 6.15517 3 6.6155 3H17.3845C17.8448 3 18.2292 3.15417 18.5375 3.4625C18.8458 3.77083 19 4.15517 19 4.6155V19.3845C19 19.4807 18.9927 19.5759 18.978 19.6702C18.9632 19.7644 18.941 19.8532 18.9115 19.9365ZM6.6155 21C6.15517 21 5.77083 20.8458 5.4625 20.5375C5.15417 20.2292 5 19.8448 5 19.3845V15.5H13.5C13.7437 15.5 13.9683 15.5535 14.174 15.6605C14.3798 15.7677 14.5583 15.9199 14.7095 16.1173L18.2365 20.7327C18.1147 20.8172 17.9823 20.8829 17.8395 20.9298C17.6965 20.9766 17.5448 21 17.3845 21H6.6155Z" fill="#304BA0"/>
</g>
</svg>
