<svg width="16" height="20" viewBox="0 0 16 20" fill="none" xmlns="http://www.w3.org/2000/svg">
<path d="M8.06171 9.93397C8.56173 9.93397 8.98922 9.75661 9.34418 9.40189C9.69931 9.04718 9.87687 8.6208 9.87687 8.12276C9.87687 7.62472 9.69881 7.19885 9.34268 6.84513C8.98654 6.49158 8.55838 6.31481 8.05819 6.31481C7.55816 6.31481 7.13067 6.49217 6.77571 6.84689C6.42059 7.2016 6.24302 7.62806 6.24302 8.12627C6.24302 8.6243 6.42109 9.0501 6.77722 9.40365C7.13335 9.7572 7.56151 9.93397 8.06171 9.93397ZM8.05995 17.5905C10.0262 15.8373 11.5309 14.1556 12.574 12.5455C13.6171 10.9355 14.1386 9.52528 14.1386 8.31497C14.1386 6.49 13.5565 4.98971 12.3923 3.81411C11.2281 2.63851 9.78399 2.0507 8.05995 2.0507C6.33591 2.0507 4.89178 2.63851 3.72757 3.81411C2.56335 4.98971 1.98125 6.49 1.98125 8.31497C1.98125 9.52528 2.5028 10.9355 3.5459 12.5455C4.589 14.1556 6.09368 15.8373 8.05995 17.5905ZM8.05995 19.5886C5.53051 17.4056 3.63376 15.374 2.36971 13.4938C1.10566 11.6134 0.473633 9.88717 0.473633 8.31497C0.473633 6.00481 1.22384 4.13454 2.72425 2.70416C4.22483 1.27378 6.00339 0.558594 8.05995 0.558594C10.1165 0.558594 11.8951 1.27378 13.3956 2.70416C14.8961 4.13454 15.6463 6.00481 15.6463 8.31497C15.6463 9.88717 15.0142 11.6134 13.7502 13.4938C12.4861 15.374 10.5894 17.4056 8.05995 19.5886Z" fill="#696969"/>
</svg>
