<svg width="42" height="42" viewBox="0 0 42 42" fill="none" xmlns="http://www.w3.org/2000/svg">
<path d="M0.5 8C0.5 3.85786 3.85786 0.5 8 0.5H34C38.1421 0.5 41.5 3.85786 41.5 8V34C41.5 38.1421 38.1421 41.5 34 41.5H8C3.85786 41.5 0.5 38.1421 0.5 34V8Z" fill="#D3F8DF"/>
<path d="M0.5 8C0.5 3.85786 3.85786 0.5 8 0.5H34C38.1421 0.5 41.5 3.85786 41.5 8V34C41.5 38.1421 38.1421 41.5 34 41.5H8C3.85786 41.5 0.5 38.1421 0.5 34V8Z" stroke="#AAF0C4"/>
<path d="M22.6575 33H14.8425C13.8903 32.998 12.9777 32.6189 12.3044 31.9456C11.6311 31.2723 11.252 30.3597 11.25 29.4075V12.5925C11.252 11.6403 11.6311 10.7277 12.3044 10.0544C12.9777 9.38111 13.8903 9.00198 14.8425 9L22.6575 9C23.6097 9.00198 24.5223 9.38111 25.1956 10.0544C25.8689 10.7277 26.248 11.6403 26.25 12.5925V12.75C26.25 12.9489 26.171 13.1397 26.0303 13.2803C25.8897 13.421 25.6989 13.5 25.5 13.5C25.3011 13.5 25.1103 13.421 24.9697 13.2803C24.829 13.1397 24.75 12.9489 24.75 12.75V12.5925C24.75 12.0375 24.5295 11.5053 24.1371 11.1129C23.7447 10.7205 23.2125 10.5 22.6575 10.5H14.8425C14.2875 10.5 13.7553 10.7205 13.3629 11.1129C12.9705 11.5053 12.75 12.0375 12.75 12.5925V29.4075C12.75 29.9625 12.9705 30.4947 13.3629 30.8871C13.7553 31.2795 14.2875 31.5 14.8425 31.5H22.6575C23.2125 31.5 23.7447 31.2795 24.1371 30.8871C24.5295 30.4947 24.75 29.9625 24.75 29.4075V27.75C24.75 27.5511 24.829 27.3603 24.9697 27.2197C25.1103 27.079 25.3011 27 25.5 27C25.6989 27 25.8897 27.079 26.0303 27.2197C26.171 27.3603 26.25 27.5511 26.25 27.75V29.4075C26.248 30.3597 25.8689 31.2723 25.1956 31.9456C24.5223 32.6189 23.6097 32.998 22.6575 33Z" fill="#16B364"/>
<path d="M18.75 30C18.4533 30 18.1633 29.912 17.9166 29.7472C17.67 29.5824 17.4777 29.3481 17.3642 29.074C17.2506 28.7999 17.2209 28.4983 17.2788 28.2074C17.3367 27.9164 17.4796 27.6491 17.6893 27.4393C17.8991 27.2296 18.1664 27.0867 18.4574 27.0288C18.7483 26.9709 19.0499 27.0006 19.324 27.1142C19.5981 27.2277 19.8324 27.42 19.9972 27.6666C20.162 27.9133 20.25 28.2033 20.25 28.5C20.25 28.8978 20.092 29.2794 19.8107 29.5607C19.5294 29.842 19.1478 30 18.75 30Z" fill="#16B364" fill-opacity="0.4"/>
<path d="M21 13.5H16.5C16.3011 13.5 16.1103 13.421 15.9697 13.2803C15.829 13.1397 15.75 12.9489 15.75 12.75C15.75 12.5511 15.829 12.3603 15.9697 12.2197C16.1103 12.079 16.3011 12 16.5 12H21C21.1989 12 21.3897 12.079 21.5303 12.2197C21.671 12.3603 21.75 12.5511 21.75 12.75C21.75 12.9489 21.671 13.1397 21.5303 13.2803C21.3897 13.421 21.1989 13.5 21 13.5Z" fill="#16B364"/>
<path d="M30.75 18.3973C30.7505 17.7245 30.5513 17.0667 30.1775 16.5072C29.8038 15.9478 29.2723 15.5119 28.6506 15.2548C28.0288 14.9978 27.3447 14.9311 26.685 15.0633C26.0253 15.1955 25.4197 15.5205 24.945 15.9973L21.2475 19.6948C20.7744 20.1709 20.4525 20.7763 20.3224 21.4347C20.1923 22.0932 20.2597 22.7755 20.5161 23.3958C20.7726 24.0161 21.2067 24.5467 21.7638 24.9211C22.3209 25.2954 22.9763 25.4968 23.6475 25.4998C24.0937 25.5008 24.5356 25.4132 24.9476 25.2419C25.3596 25.0707 25.7335 24.8193 26.0475 24.5023L27.8925 22.6573L29.7375 20.8123C30.0596 20.4983 30.3153 20.1226 30.4893 19.7077C30.6632 19.2928 30.7519 18.8472 30.75 18.3973ZM24.9975 23.4448C24.8214 23.6213 24.6121 23.7612 24.3817 23.8564C24.1513 23.9517 23.9043 24.0004 23.655 23.9998C23.4045 24.0008 23.1564 23.9522 22.9248 23.8568C22.6932 23.7614 22.4828 23.6211 22.3057 23.444C22.1286 23.267 21.9883 23.0566 21.893 22.825C21.7976 22.5934 21.749 22.3452 21.75 22.0948C21.752 21.5919 21.9513 21.1098 22.305 20.7523L23.625 19.4323L26.3175 22.1248L24.9975 23.4448ZM29.25 18.4048C29.2479 18.9077 29.0487 19.3898 28.695 19.7473L27.375 21.0673L24.6825 18.3748L26.0025 17.0548C26.2689 16.7902 26.6075 16.6102 26.9758 16.5374C27.3442 16.4647 27.7258 16.5024 28.0728 16.6458C28.4198 16.7893 28.7166 17.032 28.9261 17.3437C29.1355 17.6553 29.2482 18.0218 29.25 18.3973V18.4048Z" fill="#16B364"/>
</svg>
