<svg width="800" height="800" viewBox="0 0 800 800" fill="none" xmlns="http://www.w3.org/2000/svg">
<path fill-rule="evenodd" clip-rule="evenodd" d="M66.667 216.667C66.667 133.824 133.824 66.6667 216.667 66.6667H400C473.637 66.6667 533.334 126.362 533.334 200V233.333C533.334 251.743 518.41 266.667 500 266.667C481.59 266.667 466.667 251.743 466.667 233.333V200C466.667 163.181 436.82 133.333 400 133.333H216.667C170.643 133.333 133.334 170.643 133.334 216.667V583.333C133.334 629.357 170.643 666.667 216.667 666.667H400C436.82 666.667 466.667 636.82 466.667 600V566.667C466.667 548.257 481.59 533.333 500 533.333C518.41 533.333 533.334 548.257 533.334 566.667V600C533.334 673.637 473.637 733.333 400 733.333H216.667C133.824 733.333 66.667 666.177 66.667 583.333V216.667ZM609.764 276.43C622.78 263.412 643.887 263.412 656.904 276.43L756.904 376.43C769.92 389.447 769.92 410.553 756.904 423.57L656.904 523.57C643.887 536.587 622.78 536.587 609.764 523.57C596.747 510.553 596.747 489.447 609.764 476.43L652.86 433.333H366.667C348.257 433.333 333.334 418.41 333.334 400C333.334 381.59 348.257 366.667 366.667 366.667H652.86L609.764 323.57C596.747 310.553 596.747 289.447 609.764 276.43Z" fill="#304BA0"/>
</svg>
