<svg width="25" height="24" viewBox="0 0 25 24" fill="none" xmlns="http://www.w3.org/2000/svg">
<mask id="mask0_99_606" style="mask-type:alpha" maskUnits="userSpaceOnUse" x="0" y="0" width="25" height="24">
<rect x="0.5" width="24" height="24" fill="#D9D9D9"/>
</mask>
<g mask="url(#mask0_99_606)">
<path d="M4.80384 19.5C4.29868 19.5 3.87109 19.325 3.52109 18.975C3.17109 18.625 2.99609 18.1974 2.99609 17.6923V6.30775C2.99609 5.80258 3.17109 5.375 3.52109 5.025C3.87109 4.675 4.29868 4.5 4.80384 4.5H20.1883C20.6935 4.5 21.1211 4.675 21.4711 5.025C21.8211 5.375 21.9961 5.80258 21.9961 6.30775V17.6923C21.9961 18.1974 21.8211 18.625 21.4711 18.975C21.1211 19.325 20.6935 19.5 20.1883 19.5H4.80384ZM12.4961 12.5577L4.49609 7.44225V17.6923C4.49609 17.7821 4.52493 17.8558 4.58259 17.9135C4.64026 17.9712 4.71401 18 4.80384 18H20.1883C20.2782 18 20.3519 17.9712 20.4096 17.9135C20.4673 17.8558 20.4961 17.7821 20.4961 17.6923V7.44225L12.4961 12.5577ZM12.4961 11L20.3423 6H4.64984L12.4961 11ZM4.49609 7.44225V6V17.6923C4.49609 17.7821 4.52493 17.8558 4.58259 17.9135C4.64026 17.9712 4.71401 18 4.80384 18H4.49609V7.44225Z" fill="black"/>
</g>
</svg>
