<svg width="125" height="132" viewBox="0 0 125 132" fill="none" xmlns="http://www.w3.org/2000/svg">
<g clip-path="url(#clip0_207_449)">
<path d="M1 56.4686C5.00716 47.2908 8.30535 38.1572 13.2005 29.9796C19.3524 19.7024 31.6816 11.1039 42.6056 9.05396C42.6056 11.4632 42.6056 13.8363 42.6056 16.6288C22.4429 27.2579 9.18021 43.8309 9.34535 67.44C9.50598 90.4053 21.7762 107.383 41.848 118.559C38.4459 124.972 38.3198 125.175 33.2022 121.991C16.4302 111.558 6.20271 96.431 1.35968 77.1495C1 70.3124 1 63.6247 1 56.4686Z" fill="white"/>
<path d="M126 77.5316C122.677 85.9442 120.012 94.2536 115.863 101.74C110.69 111.074 102.301 117.67 93.238 123.132C88.5803 125.939 88.6883 120.835 86.861 118.948C92.1236 114.266 97.4371 110.085 102.095 105.27C109.399 97.719 115.371 89.1507 117.926 78.754C121.439 64.4609 117.692 51.5274 109.303 39.9333C102.469 30.4898 93.9706 22.6121 84.5074 15.7359C82.8925 14.5625 82.3415 11.9248 80.8779 9.17139C100.601 12.3052 120.609 32.1837 125.64 57.8501C126 64.3544 126 70.7088 126 77.5316Z" fill="white"/>
<path d="M65.5835 1C71.2895 2.93266 75.4937 5.67691 76.5723 11.9365C77.5237 17.4585 75.4625 21.5417 71.5482 24.853C67.6371 28.1616 63.0506 27.4713 58.5492 26.1541C53.4213 24.6536 51.327 20.7354 51.0511 15.847C50.5771 7.4452 53.1692 3.86327 60.8738 1.3428C62.3891 1 63.778 1 65.5835 1Z" fill="white"/>
<path d="M63.2499 133C57.3403 123.842 59.661 109.51 67.7698 102.601C72.3912 98.6636 76.4098 94.0185 81.1193 89.2689C75.2177 104.07 69.6096 118.136 64.0007 132.601C63.9999 133 63.4999 133 63.2499 133Z" fill="white"/>
<path d="M70.3671 49.25C65.9233 52.9168 61.239 55.9225 57.768 59.969C52.2973 66.3467 47.6422 73.424 42.3586 80.5893C41.5658 79.3796 40.2252 77.528 39.0845 75.5605C33.2337 65.4683 28.1202 55.1891 28.9391 42.9513C29.3559 36.722 33.4572 31.7813 40.9899 29.5031C46.8839 27.7205 53.5755 29.8326 56.839 34.5057C62.6796 42.8689 62.5446 42.7268 69.6839 35.9447C72.6838 33.0948 76.3904 30.9888 80.015 28.3719C82.0048 36.1005 78.4201 43.5591 70.3671 49.25Z" fill="white"/>
<path d="M61.7171 95.7942C59.1159 101.44 56.7741 106.826 54.3216 112.465C53.4482 110.6 51.767 108.114 51.0901 105.38C47.5764 91.185 51.4788 79.3682 65.0609 69.883C73.7727 63.799 82.0393 57.0475 87.8201 47.7607C91.7767 41.4046 92.7526 38.0117 91.2807 30.7936C96.7539 32.1233 97.4825 37.0736 97.7121 40.4942C98.2276 48.1741 97.9999 56.0735 96.6466 63.6277C96.089 66.7402 92.1179 69.508 89.2472 71.887C81.9678 77.9195 74.36 83.555 67.0476 89.5492C65.0586 91.1796 63.6509 93.5191 61.7171 95.7942Z" fill="white"/>
</g>
<defs>
<clipPath id="clip0_207_449">
<rect width="125" height="132" fill="white"/>
</clipPath>
</defs>
</svg>
