<svg width="800" height="800" viewBox="0 0 800 800" fill="none" xmlns="http://www.w3.org/2000/svg">
<path fill-rule="evenodd" clip-rule="evenodd" d="M139.585 379.293C134.334 391.967 133.334 398.443 133.334 400V666.727C133.334 685.097 148.218 700 166.667 700H266.667V500C266.667 463.18 296.515 433.333 333.334 433.333H466.667C503.487 433.333 533.334 463.18 533.334 500V700H633.334C651.784 700 666.667 685.097 666.667 666.727V400C666.667 398.443 665.667 391.967 660.417 379.293C655.54 367.52 648.144 353.087 638.49 336.75C619.214 304.127 592.167 266 561.894 229.673C531.55 193.263 498.797 159.656 468.34 135.485C453.117 123.401 439.12 114.203 426.85 108.147C414.3 101.954 405.47 99.9999 400 99.9999C394.53 99.9999 385.7 101.954 373.15 108.147C360.88 114.203 346.884 123.401 331.66 135.485C301.203 159.656 268.45 193.263 238.108 229.673C207.835 266 180.787 304.127 161.51 336.75C151.856 353.087 144.462 367.52 139.585 379.293ZM343.647 48.3636C361.177 39.7126 380.47 33.3333 400 33.3333C419.53 33.3333 438.824 39.7126 456.354 48.3636C474.16 57.1513 492.197 69.3069 509.784 83.2653C544.954 111.177 580.95 148.404 613.107 186.994C645.337 225.667 674.537 266.707 695.887 302.834C706.544 320.871 715.557 338.207 722.007 353.78C728.084 368.45 733.334 384.89 733.334 400V666.727C733.334 721.997 688.524 766.667 633.334 766.667H533.334C496.514 766.667 466.667 736.82 466.667 700V500H333.334V700C333.334 736.82 303.486 766.667 266.667 766.667H166.667C111.478 766.667 66.667 721.997 66.667 666.727V400C66.667 384.89 71.9163 368.45 77.9943 353.78C84.445 338.207 93.4567 320.871 104.115 302.834C125.463 266.707 154.665 225.667 186.893 186.994C219.051 148.404 255.047 111.177 290.216 83.2653C307.804 69.3069 325.841 57.1513 343.647 48.3636Z" fill="#304BA0"/>
</svg>
