<svg width="800" height="800" viewBox="0 0 800 800" fill="none" xmlns="http://www.w3.org/2000/svg">
<path d="M293.334 373.333C219.696 373.333 160 313.637 160 240V133.333C160 118.608 171.942 106.667 186.667 106.667H213.334C228.059 106.667 240 94.7255 240 80.0002C240 65.2748 228.059 53.3335 213.334 53.3335H186.667C142.486 53.3335 106.667 89.1522 106.667 133.333V240C106.736 301.152 136.843 358.373 187.2 393.067C235.366 435.531 264.075 495.84 266.667 560C266.667 663.093 350.24 746.667 453.334 746.667C556.427 746.667 640 663.093 640 560V529.6C697.04 514.875 731.339 456.693 716.614 399.654C701.883 342.614 643.707 308.315 586.667 323.04C529.627 337.771 495.328 395.947 510.054 452.987C519.755 490.56 549.094 519.899 586.667 529.6V560C586.667 633.637 526.971 693.333 453.334 693.333C379.696 693.333 320 633.637 320 560C322.726 495.76 351.638 435.435 400 393.067C450.155 358.251 480.054 301.056 480 240V133.333C480 89.1522 444.182 53.3335 400 53.3335H373.334C358.608 53.3335 346.667 65.2748 346.667 80.0002C346.667 94.7255 358.608 106.667 373.334 106.667H400C414.726 106.667 426.667 118.608 426.667 133.333V240C426.667 313.637 366.971 373.333 293.334 373.333ZM613.334 480C583.878 480 560 456.123 560 426.667C560 397.211 583.878 373.333 613.334 373.333C642.79 373.333 666.667 397.211 666.667 426.667C666.667 456.123 642.79 480 613.334 480Z" fill="#304BA0"/>
</svg>
