<svg width="800" height="800" viewBox="0 0 800 800" fill="none" xmlns="http://www.w3.org/2000/svg">
<path d="M250.209 508.823C253.886 522.13 267.655 529.94 280.964 526.263C294.272 522.587 302.081 508.817 298.404 495.507L250.209 508.823ZM106.684 157.486C93.3798 153.794 79.6018 161.587 75.9105 174.892C72.2192 188.196 80.0122 201.974 93.3168 205.666L106.684 157.486ZM672.954 524.18C686.317 520.71 694.337 507.06 690.864 493.697C687.39 480.333 673.744 472.317 660.38 475.79L672.954 524.18ZM339.927 585.293C350.247 622.65 327.593 662.06 287.463 672.49L300.04 720.883C365.94 703.757 406.211 637.463 388.121 571.98L339.927 585.293ZM287.463 672.49C247.072 682.987 206.541 659.543 196.134 621.873L147.939 635.187C165.943 700.357 234.399 737.943 300.04 720.883L287.463 672.49ZM196.134 621.873C185.814 584.517 208.467 545.107 248.597 534.677L236.021 486.283C170.119 503.41 129.848 569.703 147.939 635.187L196.134 621.873ZM248.597 534.677C288.988 524.18 329.519 547.623 339.927 585.293L388.121 571.98C370.117 506.81 301.661 469.227 236.021 486.283L248.597 534.677ZM298.404 495.507L226.662 235.823L178.467 249.138L250.209 508.823L298.404 495.507ZM163.474 173.242L106.684 157.486L93.3168 205.666L150.107 221.422L163.474 173.242ZM226.662 235.823C218.224 205.282 194.037 181.721 163.474 173.242L150.107 221.422C164.293 225.358 174.858 236.074 178.467 249.138L226.662 235.823ZM370.31 602.833L672.954 524.18L660.38 475.79L357.734 554.44L370.31 602.833Z" fill="#304BA0"/>
<path d="M318.847 291.016C302.68 232.497 294.597 203.238 308.318 180.187C322.04 157.136 352.207 149.296 412.544 133.616L476.54 116.985C536.874 101.305 567.044 93.4647 590.807 106.773C614.574 120.081 622.657 149.341 638.824 207.86L655.974 269.929C672.14 328.448 680.224 357.707 666.5 380.757C652.78 403.81 622.614 411.65 562.277 427.33L498.28 443.96C437.947 459.64 407.777 467.48 384.01 454.173C360.244 440.863 352.16 411.603 335.994 353.087L318.847 291.016Z" stroke="#304BA0" stroke-width="50"/>
</svg>
