<svg width="24" height="24" viewBox="0 0 24 24" fill="none" xmlns="http://www.w3.org/2000/svg">
<mask id="mask0_2195_6257" style="mask-type:alpha" maskUnits="userSpaceOnUse" x="0" y="0" width="24" height="24">
<rect width="24" height="24" fill="#D9D9D9"/>
</mask>
<g mask="url(#mask0_2195_6257)">
<path d="M13.4815 21.5C11.817 21.5 10.399 20.9163 9.2277 19.749C8.05637 18.5817 7.4707 17.1653 7.4707 15.5V14.9537C6.1207 14.7782 4.99154 14.1763 4.0832 13.148C3.17487 12.1198 2.7207 10.9038 2.7207 9.5V3.75H5.7207V2.75H7.2207V6.25H5.7207V5.25H4.2207V9.5C4.2207 10.6 4.61237 11.5417 5.3957 12.325C6.17904 13.1083 7.1207 13.5 8.2207 13.5C9.3207 13.5 10.2624 13.1083 11.0457 12.325C11.829 11.5417 12.2207 10.6 12.2207 9.5V5.25H10.7207V6.25H9.2207V2.75H10.7207V3.75H13.7207V9.5C13.7207 10.9038 13.2665 12.1198 12.3582 13.148C11.4499 14.1763 10.3207 14.7782 8.9707 14.9537V15.5C8.9707 16.75 9.40912 17.8125 10.286 18.6875C11.1628 19.5625 12.2275 20 13.4802 20C14.7302 20 15.7927 19.5625 16.6677 18.6875C17.5427 17.8125 17.9802 16.75 17.9802 15.5V13.8828C17.4545 13.7276 17.0219 13.4253 16.6822 12.976C16.3424 12.5267 16.1725 12.0154 16.1725 11.4423C16.1725 10.7319 16.4213 10.1281 16.919 9.63075C17.4165 9.13342 18.0206 8.88475 18.7315 8.88475C19.4421 8.88475 20.0459 9.13342 20.5427 9.63075C21.0395 10.1281 21.288 10.7319 21.288 11.4423C21.288 12.0154 21.118 12.5267 20.7782 12.976C20.4385 13.4253 20.0059 13.7276 19.4802 13.8828V15.5C19.4802 17.1653 18.8965 18.5817 17.7292 19.749C16.5619 20.9163 15.146 21.5 13.4815 21.5ZM18.7302 12.5C19.0264 12.5 19.2767 12.3978 19.4812 12.1933C19.6857 11.9888 19.788 11.7384 19.788 11.4423C19.788 11.1461 19.6857 10.8958 19.4812 10.6915C19.2767 10.487 19.0264 10.3848 18.7302 10.3848C18.434 10.3848 18.1837 10.487 17.9792 10.6915C17.7747 10.8958 17.6725 11.1461 17.6725 11.4423C17.6725 11.7384 17.7747 11.9888 17.9792 12.1933C18.1837 12.3978 18.434 12.5 18.7302 12.5Z" fill="#1C1B1F"/>
</g>
</svg>
