<svg width="32" height="32" viewBox="0 0 32 32" fill="none" xmlns="http://www.w3.org/2000/svg">
<circle cx="16" cy="16" r="15.5" fill="white" stroke="#CDCDCC"/>
<mask id="mask0_295_460" style="mask-type:alpha" maskUnits="userSpaceOnUse" x="8" y="8" width="16" height="16">
<rect x="8" y="8" width="16" height="16" fill="#E6E6E6"/>
</mask>
<g mask="url(#mask0_295_460)">
<path d="M10.833 20.5833V19.5833H12.1663V14.75C12.1663 13.8388 12.447 13.036 13.0083 12.3413C13.5692 11.6471 14.2886 11.2 15.1663 11V10.5333C15.1663 10.3 15.247 10.1026 15.4083 9.94128C15.5692 9.7804 15.7663 9.69995 15.9997 9.69995C16.233 9.69995 16.4301 9.7804 16.591 9.94128C16.7523 10.1026 16.833 10.3 16.833 10.5333V11C17.7108 11.2 18.4303 11.6471 18.9917 12.3413C19.5526 13.036 19.833 13.8388 19.833 14.75V19.5833H21.1663V20.5833H10.833ZM15.9997 22.5333C15.6663 22.5333 15.383 22.4166 15.1497 22.1833C14.9163 21.95 14.7997 21.6666 14.7997 21.3333H17.1997C17.1997 21.6666 17.083 21.95 16.8497 22.1833C16.6163 22.4166 16.333 22.5333 15.9997 22.5333ZM13.1663 19.5833H18.833V14.75C18.833 13.9611 18.5579 13.2915 18.0077 12.7413C17.4579 12.1915 16.7886 11.9166 15.9997 11.9166C15.2108 11.9166 14.5415 12.1915 13.9917 12.7413C13.4415 13.2915 13.1663 13.9611 13.1663 14.75V19.5833Z" fill="#CDCDCC"/>
</g>
</svg>
