<svg width="16" height="16" viewBox="0 0 16 16" fill="none" xmlns="http://www.w3.org/2000/svg">
<mask id="mask0_177_2513" style="mask-type:alpha" maskUnits="userSpaceOnUse" x="0" y="0" width="16" height="16">
<rect width="16" height="15.9887" fill="#E6E6E6"/>
</mask>
<g mask="url(#mask0_177_2513)">
<path d="M4.86667 13.657C4.53333 13.657 4.25 13.5404 4.01667 13.3072C3.78333 13.0741 3.66667 12.7909 3.66667 12.4579V3.99718H3V2.99788H6V2.41496H10V2.99788H13V3.99718H12.3333V12.4579C12.3333 12.7909 12.2167 13.0741 11.9833 13.3072C11.75 13.5404 11.4667 13.657 11.1333 13.657H4.86667ZM11.3333 3.99718H4.66667V12.4579C4.66667 12.5134 4.68622 12.5607 4.72533 12.5997C4.764 12.6384 4.81111 12.6577 4.86667 12.6577H11.1333C11.1778 12.6577 11.2222 12.6355 11.2667 12.5911C11.3111 12.5467 11.3333 12.5023 11.3333 12.4579V3.99718ZM6.26667 11.3253H7.26667V5.32957H6.26667V11.3253ZM8.73333 11.3253H9.73333V5.32957H8.73333V11.3253ZM4.66667 3.99718V12.6577V12.4579V3.99718Z" fill="black"/>
</g>
</svg>
