<svg width="25" height="25" viewBox="0 0 25 25" fill="none" xmlns="http://www.w3.org/2000/svg">
<path fill-rule="evenodd" clip-rule="evenodd" d="M11.6691 2.05201C9.5572 2.32589 7.6044 3.31977 6.14008 4.86601C5.94008 5.07501 5.14008 5.91801 4.36808 6.74101L2.96808 8.24101L2.94708 6.07101C2.92808 3.91201 2.92808 3.90601 2.83608 3.69701C2.78167 3.54775 2.68905 3.41538 2.56747 3.31311C2.44589 3.21085 2.29961 3.14228 2.14323 3.11424C1.98686 3.0862 1.82586 3.09969 1.67633 3.15334C1.5268 3.207 1.39396 3.29895 1.29108 3.42001C0.987081 3.76401 1.00008 3.59001 1.00008 7.53801C1.00008 10.971 1.00008 11.049 1.08008 11.243C1.16473 11.4832 1.33783 11.6821 1.56408 11.799L1.75908 11.899H4.85908C8.35008 11.899 8.19408 11.913 8.49808 11.57C8.60753 11.4437 8.68869 11.2954 8.73611 11.1351C8.78352 10.9748 8.79609 10.8062 8.77298 10.6406C8.74987 10.475 8.69161 10.3163 8.60212 10.1752C8.51262 10.034 8.39395 9.91356 8.25408 9.82201C8.07008 9.72201 8.05908 9.72201 6.26208 9.69601L4.45408 9.67901L6.06608 7.96301C6.95908 7.01301 7.85508 6.09901 8.07508 5.91401C9.05979 5.09096 10.2389 4.53392 11.5001 4.29601C12.2857 4.18809 13.0824 4.18809 13.8681 4.29601C15.1978 4.54291 16.436 5.14444 17.4521 6.03701C17.9167 6.47247 18.3435 6.9465 18.7281 7.45401C19.2403 8.18492 19.6504 8.98227 19.9471 9.82401C20.1211 10.312 20.2051 10.46 20.3821 10.592C20.4716 10.668 20.5757 10.7249 20.688 10.7593C20.8003 10.7937 20.9184 10.8048 21.0351 10.792C21.2153 10.7705 21.3856 10.6981 21.5263 10.5834C21.6669 10.4686 21.7719 10.3162 21.8291 10.144C21.9941 9.73201 21.9181 9.34401 21.4651 8.27101C20.8949 6.81864 19.9943 5.51902 18.8347 4.47515C17.675 3.43128 16.2882 2.67183 14.7841 2.25701C13.764 2.01846 12.7113 1.95088 11.6691 2.05701M17.2001 14.184C17.0126 14.2822 16.8552 14.4296 16.745 14.6103C16.6347 14.791 16.5756 14.9983 16.5741 15.21C16.5804 15.493 16.683 15.7653 16.8651 15.982C17.1541 16.309 17.1651 16.311 19.1651 16.313H20.9201L20.6091 16.653C19.4451 17.924 17.6311 19.812 17.3381 20.053C16.3479 20.8991 15.1532 21.4708 13.8731 21.711C13.0856 21.8162 12.2876 21.8162 11.5001 21.711C10.1088 21.4521 8.8191 20.8048 7.78008 19.844C7.32292 19.3987 6.9041 18.9157 6.52808 18.4C6.06802 17.7118 5.69454 16.9696 5.41608 16.19C5.24208 15.702 5.15808 15.554 4.98108 15.422C4.79657 15.2716 4.55996 15.2003 4.32306 15.224C4.08616 15.2476 3.86826 15.3641 3.71708 15.548C3.57876 15.7316 3.49085 15.9481 3.46209 16.1762C3.43332 16.4042 3.46469 16.6358 3.55308 16.848C4.01096 18.2196 4.71852 19.4947 5.64008 20.609C7.1151 22.402 9.19861 23.5892 11.4931 23.944C12.3222 24.0251 13.1575 24.0178 13.9851 23.922C15.5797 23.6578 17.0783 22.9838 18.3341 21.966C19.253 21.1433 20.1213 20.2657 20.9341 19.338L22.3941 17.779L22.4131 19.943C22.4321 22.101 22.4321 22.107 22.5241 22.316C22.5785 22.4653 22.6711 22.5976 22.7927 22.6999C22.9143 22.8022 23.0606 22.8707 23.2169 22.8988C23.3733 22.9268 23.5343 22.9133 23.6838 22.8597C23.8334 22.806 23.9662 22.7141 24.0691 22.593C24.3691 22.249 24.3601 22.426 24.3601 18.475V14.968L24.2681 14.748C24.1805 14.509 24.0043 14.3128 23.7761 14.2C23.6051 14.112 23.5381 14.111 20.4861 14.113C19.3902 14.0502 18.2911 14.0742 17.1991 14.185" fill="#304BA0"/>
<path d="M11.6691 2.05201C9.5572 2.32589 7.6044 3.31977 6.14008 4.86601C5.94008 5.07501 5.14008 5.91801 4.36808 6.74101L2.96808 8.24101L2.94708 6.07101C2.92808 3.91201 2.92808 3.90601 2.83608 3.69701C2.78167 3.54775 2.68905 3.41538 2.56747 3.31311C2.44589 3.21085 2.29961 3.14228 2.14323 3.11424C1.98686 3.0862 1.82586 3.09969 1.67633 3.15334C1.5268 3.207 1.39396 3.29895 1.29108 3.42001C0.987081 3.76401 1.00008 3.59001 1.00008 7.53801C1.00008 10.971 1.00008 11.049 1.08008 11.243C1.16473 11.4832 1.33783 11.6821 1.56408 11.799L1.75908 11.899H4.85908C8.35008 11.899 8.19408 11.913 8.49808 11.57C8.60753 11.4437 8.68869 11.2954 8.73611 11.1351C8.78352 10.9748 8.79609 10.8062 8.77298 10.6406C8.74987 10.475 8.69161 10.3163 8.60212 10.1752C8.51262 10.034 8.39395 9.91356 8.25408 9.82201C8.07008 9.72201 8.05908 9.72201 6.26208 9.69601L4.45408 9.67901L6.06608 7.96301C6.95908 7.01301 7.85508 6.09901 8.07508 5.91401C9.05979 5.09096 10.2389 4.53392 11.5001 4.29601C12.2857 4.18809 13.0824 4.18809 13.8681 4.29601C15.1978 4.54291 16.436 5.14444 17.4521 6.03701C17.9167 6.47247 18.3435 6.9465 18.7281 7.45401C19.2403 8.18492 19.6504 8.98227 19.9471 9.82401C20.1211 10.312 20.2051 10.46 20.3821 10.592C20.4716 10.668 20.5757 10.7249 20.688 10.7593C20.8003 10.7937 20.9184 10.8048 21.0351 10.792C21.2153 10.7705 21.3856 10.6981 21.5263 10.5834C21.6669 10.4686 21.7719 10.3162 21.8291 10.144C21.9941 9.73201 21.9181 9.34401 21.4651 8.27101C20.8949 6.81864 19.9943 5.51902 18.8347 4.47515C17.675 3.43128 16.2882 2.67183 14.7841 2.25701C13.764 2.01846 12.7113 1.95088 11.6691 2.05701M17.2001 14.184C17.0126 14.2822 16.8552 14.4296 16.745 14.6103C16.6347 14.791 16.5756 14.9983 16.5741 15.21C16.5804 15.493 16.683 15.7653 16.8651 15.982C17.1541 16.309 17.1651 16.311 19.1651 16.313H20.9201L20.6091 16.653C19.4451 17.924 17.6311 19.812 17.3381 20.053C16.3479 20.8991 15.1532 21.4708 13.8731 21.711C13.0856 21.8162 12.2876 21.8162 11.5001 21.711C10.1088 21.4521 8.8191 20.8048 7.78008 19.844C7.32292 19.3987 6.9041 18.9157 6.52808 18.4C6.06802 17.7118 5.69454 16.9696 5.41608 16.19C5.24208 15.702 5.15808 15.554 4.98108 15.422C4.79657 15.2716 4.55996 15.2003 4.32306 15.224C4.08616 15.2476 3.86826 15.3641 3.71708 15.548C3.57876 15.7316 3.49085 15.9481 3.46209 16.1762C3.43332 16.4042 3.46469 16.6358 3.55308 16.848C4.01096 18.2196 4.71852 19.4947 5.64008 20.609C7.1151 22.402 9.19861 23.5892 11.4931 23.944C12.3222 24.0251 13.1575 24.0178 13.9851 23.922C15.5797 23.6578 17.0783 22.9838 18.3341 21.966C19.253 21.1433 20.1213 20.2657 20.9341 19.338L22.3941 17.779L22.4131 19.943C22.4321 22.101 22.4321 22.107 22.5241 22.316C22.5785 22.4653 22.6711 22.5976 22.7927 22.6999C22.9143 22.8022 23.0606 22.8707 23.2169 22.8988C23.3733 22.9268 23.5343 22.9133 23.6838 22.8597C23.8334 22.806 23.9662 22.7141 24.0691 22.593C24.3691 22.249 24.3601 22.426 24.3601 18.475V14.968L24.2681 14.748C24.1805 14.509 24.0043 14.3128 23.7761 14.2C23.6051 14.112 23.5381 14.111 20.4861 14.113C19.3902 14.0502 18.2911 14.0742 17.1991 14.185" stroke="#FDFDFD" stroke-width="0.5"/>
</svg>
