<svg width="60" height="60" viewBox="0 0 60 60" fill="none" xmlns="http://www.w3.org/2000/svg">
<path d="M22.5 37.5C21.1193 37.5 20 38.6193 20 40C20 41.3807 21.1193 42.5 22.5 42.5C23.8807 42.5 25 41.3807 25 40C25 38.6193 23.8807 37.5 22.5 37.5Z" fill="#0F0F0F"/>
<path d="M35 40C35 38.6193 36.1193 37.5 37.5 37.5C38.8807 37.5 40 38.6193 40 40C40 41.3807 38.8807 42.5 37.5 42.5C36.1193 42.5 35 41.3807 35 40Z" fill="#0F0F0F"/>
<path fill-rule="evenodd" clip-rule="evenodd" d="M30 2.5C27.2385 2.5 25 4.73857 25 7.5C25 9.3507 26.0055 10.9666 27.5 11.8311V17.5H15C10.8579 17.5 7.5 20.8579 7.5 25V50C7.5 54.1423 10.8579 57.5 15 57.5H45C49.1423 57.5 52.5 54.1423 52.5 50V25C52.5 20.8579 49.1423 17.5 45 17.5H32.5V11.8311C33.9945 10.9666 35 9.3507 35 7.5C35 4.73857 32.7615 2.5 30 2.5ZM12.5 25C12.5 23.6193 13.6193 22.5 15 22.5H18.4549L22.0729 29.736C22.9199 31.43 24.6512 32.5 26.545 32.5H33.455C35.3487 32.5 37.08 31.43 37.927 29.736L41.545 22.5H45C46.3807 22.5 47.5 23.6193 47.5 25V50C47.5 51.3807 46.3807 52.5 45 52.5H15C13.6193 52.5 12.5 51.3807 12.5 50V25ZM33.455 27.5L35.955 22.5H24.0451L26.545 27.5H33.455Z" fill="#0F0F0F"/>
<path d="M2.5 35C1.11929 35 0 36.1193 0 37.5V42.5C0 43.8807 1.11929 45 2.5 45C3.8807 45 5 43.8807 5 42.5V37.5C5 36.1193 3.8807 35 2.5 35Z" fill="#0F0F0F"/>
<path d="M55 37.5C55 36.1193 56.1193 35 57.5 35C58.8807 35 60 36.1193 60 37.5V42.5C60 43.8807 58.8807 45 57.5 45C56.1193 45 55 43.8807 55 42.5V37.5Z" fill="#0F0F0F"/>
</svg>
