<svg width="16" height="16" viewBox="0 0 16 16" fill="none" xmlns="http://www.w3.org/2000/svg">
<mask id="mask0_177_2551" style="mask-type:alpha" maskUnits="userSpaceOnUse" x="0" y="0" width="16" height="16">
<rect width="16" height="16" fill="#E6E6E6"/>
</mask>
<g mask="url(#mask0_177_2551)">
<circle cx="7.99996" cy="8" r="5.33333" fill="white"/>
<path d="M7.04996 10.8333L11.5333 6.35L10.8333 5.65001L7.04996 9.43334L5.14996 7.53334L4.44996 8.23334L7.04996 10.8333ZM7.99996 14.3333C7.12218 14.3333 6.29729 14.1667 5.52529 13.8333C4.75285 13.5 4.08329 13.05 3.51663 12.4833C2.94996 11.9167 2.49996 11.2471 2.16663 10.4747C1.83329 9.70267 1.66663 8.87778 1.66663 8C1.66663 7.12223 1.83329 6.29712 2.16663 5.52467C2.49996 4.75267 2.94996 4.08334 3.51663 3.51667C4.08329 2.95001 4.75285 2.50001 5.52529 2.16667C6.29729 1.83334 7.12218 1.66667 7.99996 1.66667C8.87774 1.66667 9.70285 1.83334 10.4753 2.16667C11.2473 2.50001 11.9166 2.95001 12.4833 3.51667C13.05 4.08334 13.5 4.75267 13.8333 5.52467C14.1666 6.29712 14.3333 7.12223 14.3333 8C14.3333 8.87778 14.1666 9.70267 13.8333 10.4747C13.5 11.2471 13.05 11.9167 12.4833 12.4833C11.9166 13.05 11.2473 13.5 10.4753 13.8333C9.70285 14.1667 8.87774 14.3333 7.99996 14.3333ZM7.99996 13.3333C9.48885 13.3333 10.75 12.8167 11.7833 11.7833C12.8166 10.75 13.3333 9.48889 13.3333 8C13.3333 6.51112 12.8166 5.25 11.7833 4.21667C10.75 3.18334 9.48885 2.66667 7.99996 2.66667C6.51107 2.66667 5.24996 3.18334 4.21663 4.21667C3.18329 5.25 2.66663 6.51112 2.66663 8C2.66663 9.48889 3.18329 10.75 4.21663 11.7833C5.24996 12.8167 6.51107 13.3333 7.99996 13.3333Z" fill="#304BA0"/>
</g>
</svg>
