<svg width="24" height="24" viewBox="0 0 24 24" fill="none" xmlns="http://www.w3.org/2000/svg">
<mask id="mask0_2195_6273" style="mask-type:alpha" maskUnits="userSpaceOnUse" x="0" y="0" width="24" height="24">
<rect width="24" height="24" fill="#D9D9D9"/>
</mask>
<g mask="url(#mask0_2195_6273)">
<path d="M10.9492 12.975L15.5529 8.37125L14.4837 7.302L10.9492 10.8365L9.54917 9.4365L8.47992 10.5057L10.9492 12.975ZM11.9992 19.5135C13.9555 17.7622 15.4526 16.0823 16.4904 14.474C17.5283 12.8657 18.0472 11.457 18.0472 10.248C18.0472 8.425 17.468 6.92633 16.3097 5.752C15.1513 4.57767 13.7145 3.9905 11.9992 3.9905C10.2838 3.9905 8.847 4.57767 7.68867 5.752C6.53034 6.92633 5.95117 8.425 5.95117 10.248C5.95117 11.457 6.47009 12.8657 7.50792 14.474C8.54576 16.0823 10.0428 17.7622 11.9992 19.5135ZM11.9992 21.5095C9.4825 19.3288 7.59534 17.2994 6.33767 15.4212C5.08 13.5429 4.45117 11.8185 4.45117 10.248C4.45117 7.94033 5.19759 6.07208 6.69042 4.64325C8.18342 3.21442 9.953 2.5 11.9992 2.5C14.0453 2.5 15.8149 3.21442 17.3079 4.64325C18.8008 6.07208 19.5472 7.94033 19.5472 10.248C19.5472 11.8185 18.9183 13.5429 17.6607 15.4212C16.403 17.2994 14.5158 19.3288 11.9992 21.5095Z" fill="#1C1B1F"/>
</g>
</svg>
