<svg width="16" height="16" viewBox="0 0 16 16" fill="none" xmlns="http://www.w3.org/2000/svg">
<mask id="mask0_659_497" style="mask-type:alpha" maskUnits="userSpaceOnUse" x="0" y="0" width="16" height="16">
<rect width="16" height="16" fill="#D9D9D9"/>
</mask>
<g mask="url(#mask0_659_497)">
<path d="M10.3127 11.0178L11.0154 10.3152L8.4974 7.79717V4.6665H7.4974V8.20234L10.3127 11.0178ZM7.99856 14.3332C7.12256 14.3332 6.29917 14.1669 5.5284 13.8345C4.75762 13.5021 4.08717 13.0509 3.51706 12.481C2.94695 11.9111 2.49556 11.2409 2.1629 10.4705C1.83034 9.70006 1.66406 8.87689 1.66406 8.001C1.66406 7.125 1.83028 6.30161 2.16273 5.53084C2.49517 4.76006 2.94634 4.08961 3.51623 3.5195C4.08612 2.94939 4.75628 2.498 5.52673 2.16534C6.29717 1.83278 7.12034 1.6665 7.99623 1.6665C8.87223 1.6665 9.69562 1.83273 10.4664 2.16517C11.2372 2.49761 11.9076 2.94878 12.4777 3.51867C13.0478 4.08856 13.4992 4.75873 13.8319 5.52917C14.1645 6.29962 14.3307 7.12278 14.3307 7.99867C14.3307 8.87467 14.1645 9.69806 13.8321 10.4688C13.4996 11.2396 13.0485 11.9101 12.4786 12.4802C11.9087 13.0503 11.2385 13.5017 10.4681 13.8343C9.69762 14.1669 8.87445 14.3332 7.99856 14.3332ZM7.9974 13.3332C9.47517 13.3332 10.7335 12.8137 11.7724 11.7748C12.8113 10.7359 13.3307 9.47762 13.3307 7.99984C13.3307 6.52206 12.8113 5.26373 11.7724 4.22484C10.7335 3.18595 9.47517 2.6665 7.9974 2.6665C6.51962 2.6665 5.26128 3.18595 4.2224 4.22484C3.18351 5.26373 2.66406 6.52206 2.66406 7.99984C2.66406 9.47762 3.18351 10.7359 4.2224 11.7748C5.26128 12.8137 6.51962 13.3332 7.9974 13.3332Z" fill="#1C1B1F"/>
</g>
</svg>
