<svg width="88" height="88" viewBox="0 0 88 88" fill="none" xmlns="http://www.w3.org/2000/svg">
<circle cx="44" cy="44" r="44" fill="#EDF1FF"/>
<g clip-path="url(#clip0_687_657)">
<path d="M25.7786 46.3504C26.7326 48.6059 28.0976 50.6307 29.8357 52.3688C31.5737 54.1068 33.5986 55.4718 35.8541 56.4258C38.191 57.4142 40.6715 57.9155 43.2265 57.9155C45.7814 57.9155 48.262 57.4143 50.5989 56.4258C50.9891 56.2605 51.3737 56.0821 51.752 55.8911L62.3627 66.5019C63.3027 67.4417 64.5524 67.9594 65.8816 67.9594C67.2108 67.9594 68.4605 67.4417 69.4004 66.5019L70.2557 65.6466C72.196 63.7063 72.196 60.5492 70.2559 58.6089L59.7974 48.1505C60.1212 47.5663 60.414 46.9654 60.6744 46.3503C61.6628 44.0133 62.1641 41.5329 62.1641 38.9779C62.1641 36.4229 61.663 33.9424 60.6744 31.6055C59.7205 29.35 58.3554 27.3252 56.6173 25.5871C54.8793 23.849 52.8544 22.484 50.5989 21.53C48.2621 20.5417 45.7816 20.0405 43.2266 20.0405C40.6717 20.0405 38.1911 20.5416 35.8542 21.5301C33.5988 22.4841 31.5739 23.8491 29.8358 25.5872C28.0978 27.3253 26.7328 29.3501 25.7788 31.6056C24.7904 33.9426 24.2891 36.423 24.2891 38.978C24.2891 41.5329 24.7902 44.0134 25.7786 46.3504ZM55.3389 48.5983C54.4582 49.7055 53.4305 50.6875 52.2843 51.5169C51.3074 52.2242 50.2511 52.8145 49.1368 53.2758C47.3158 54.0295 45.32 54.4461 43.2266 54.4461C34.6838 54.4461 27.7584 47.5208 27.7584 38.978C27.7584 30.4351 34.6838 23.5099 43.2266 23.5099C51.7694 23.5099 58.6948 30.4352 58.6948 38.9781C58.6948 41.3375 58.1657 43.5731 57.2209 45.574C56.712 46.6511 56.0805 47.6659 55.3389 48.5983ZM67.8027 61.0621C68.3913 61.6507 68.3913 62.6049 67.8027 63.1934L66.9474 64.0487C66.6531 64.3429 66.2675 64.49 65.8818 64.49C65.496 64.49 65.1104 64.3429 64.8161 64.0487L54.7639 53.9964C55.4162 53.4944 56.0353 52.9507 56.6174 52.3688C57.0334 51.9527 57.4299 51.5177 57.8058 51.0651L67.8027 61.0621Z" fill="#304BA0"/>
<path d="M65.8816 68C64.5417 68 63.2817 67.4781 62.3341 66.5305L51.7441 55.9405C51.3734 56.1269 50.9967 56.3012 50.6146 56.4631C48.273 57.4536 45.7872 57.9559 43.2265 57.9559C40.6662 57.9559 38.1805 57.4537 35.8384 56.4631C33.5782 55.5072 31.549 54.1393 29.8071 52.3974C28.0652 50.6555 26.6973 48.6263 25.7414 46.3661C24.7508 44.0242 24.2485 41.5384 24.2485 38.978C24.2485 36.4177 24.7508 33.9319 25.7414 31.5898C26.6974 29.3295 28.0652 27.3003 29.807 25.5585C31.5488 23.8167 33.5781 22.4488 35.8383 21.4928C38.1803 20.5023 40.666 20 43.2266 20C45.787 20 48.2727 20.5023 50.6147 21.4929C52.875 22.4488 54.9043 23.8167 56.6461 25.5586C58.3879 27.3005 59.7558 29.3297 60.7118 31.5899C61.7023 33.9317 62.2046 36.4175 62.2046 38.9781C62.2046 41.5384 61.7024 44.024 60.7118 46.3662C60.4546 46.9731 60.1662 47.5663 59.8476 48.1434L70.2846 58.5804C72.2405 60.5365 72.2404 63.7193 70.2844 65.6754L69.4292 66.5306C68.4816 67.4781 67.2216 68 65.8816 68ZM51.7599 55.8418L62.3913 66.4733C63.3238 67.4056 64.5632 67.919 65.8816 67.919C67.2001 67.919 68.4395 67.4056 69.3719 66.4733L70.2272 65.618C72.1517 63.6935 72.1518 60.5621 70.2273 58.6376L59.7472 48.1575L59.762 48.1309C60.085 47.5478 60.3771 46.9482 60.6371 46.3346C61.6235 44.0025 62.1236 41.5274 62.1236 38.978C62.1236 36.4284 61.6234 33.9532 60.6371 31.6214C59.6853 29.3708 58.3232 27.3503 56.5888 25.6158C54.8544 23.8813 52.8338 22.5193 50.5833 21.5674C48.2512 20.5811 45.7761 20.081 43.2266 20.081C40.677 20.081 38.2019 20.5811 35.87 21.5674C33.6194 22.5193 31.5988 23.8813 29.8644 25.6158C28.13 27.3502 26.768 29.3708 25.8161 31.6214C24.8297 33.9534 24.3296 36.4285 24.3296 38.978C24.3296 41.5275 24.8297 44.0026 25.816 46.3346C26.7678 48.585 28.1299 50.6056 29.8644 52.3401C31.5989 54.0745 33.6194 55.4365 35.87 56.3883C38.202 57.3747 40.6771 57.8748 43.2266 57.8748C45.7765 57.8748 48.2516 57.3746 50.5833 56.3883C50.9726 56.2234 51.3564 56.0454 51.7339 55.8549L51.7599 55.8418ZM65.8817 64.5305C65.6784 64.531 65.477 64.4913 65.2892 64.4135C65.1013 64.3357 64.9308 64.2214 64.7874 64.0773L54.7026 53.9924L54.7391 53.9642C55.3899 53.4631 56.0077 52.9206 56.5887 52.3401C57.0037 51.9248 57.3994 51.4908 57.7746 51.0393L57.803 51.0051L67.8313 61.0334C68.4348 61.6368 68.4348 62.6186 67.8313 63.222L66.9761 64.0773C66.8327 64.2214 66.6621 64.3357 66.4743 64.4135C66.2864 64.4913 66.085 64.531 65.8817 64.5305ZM54.8251 54.0004L64.8447 64.0201C65.1218 64.2971 65.4901 64.4496 65.8818 64.4496C66.2735 64.4496 66.6418 64.2971 66.9189 64.0201L67.7742 63.1648C68.346 62.593 68.346 61.6626 67.7742 61.0908L57.8085 51.1252C57.4402 51.5664 57.0523 51.9909 56.6461 52.3974C56.0734 52.9696 55.4652 53.505 54.8251 54.0004ZM43.2265 54.4866C34.675 54.4866 27.7178 47.5295 27.7178 38.978C27.7178 30.4265 34.675 23.4694 43.2265 23.4694C51.778 23.4694 58.7352 30.4265 58.7352 38.9781C58.7352 41.2895 58.238 43.5145 57.2574 45.5913C56.7471 46.6712 56.1139 47.6887 55.3706 48.6236C54.4875 49.7337 53.4572 50.7182 52.308 51.5498C51.3285 52.2587 50.2693 52.8505 49.1522 53.3132C47.271 54.0918 45.2773 54.4866 43.2265 54.4866ZM43.2265 23.5503C34.7197 23.5503 27.7988 30.4711 27.7988 38.9779C27.7988 47.4847 34.7196 54.4055 43.2265 54.4055C45.2666 54.4055 47.2499 54.0128 49.1212 53.2383C50.2325 52.778 51.2861 52.1892 52.2605 51.484C53.4037 50.6568 54.4287 49.6774 55.3072 48.5731C56.0467 47.6431 56.6766 46.6309 57.1842 45.5566C58.1597 43.4907 58.6542 41.2774 58.6542 38.978C58.6542 30.4711 51.7334 23.5503 43.2265 23.5503Z" fill="#304BA0"/>
<path d="M49.7169 32.518C49.0395 31.8405 47.9411 31.8405 47.2637 32.518L43.257 36.5247L39.2502 32.518C38.5727 31.8405 37.4744 31.8405 36.797 32.518C36.1196 33.1955 36.1196 34.2937 36.797 34.9712L40.8038 38.9779L36.797 42.9847C36.1196 43.6621 36.1196 44.7604 36.797 45.4378C36.9579 45.5992 37.1491 45.7271 37.3596 45.8143C37.5701 45.9015 37.7958 45.9462 38.0236 45.9459C38.2514 45.9461 38.4771 45.9014 38.6876 45.8142C38.8981 45.727 39.0893 45.5991 39.2502 45.4378L43.257 41.4312L43.9701 42.1443L46.4233 44.5975L47.2636 45.4378C47.6024 45.7765 48.0464 45.9459 48.4902 45.9459C48.9341 45.9459 49.3781 45.7764 49.7168 45.4378C50.3942 44.7604 50.3942 43.6621 49.7168 42.9847L48.8781 42.1459L46.4249 39.6927L45.7101 38.978L49.7169 34.9713C50.3943 34.2937 50.3943 33.1955 49.7169 32.518Z" fill="#304BA0"/>
<path d="M48.4902 45.9864C48.257 45.987 48.026 45.9414 47.8105 45.8522C47.5951 45.7629 47.3994 45.6318 47.235 45.4665L43.2568 41.4884L39.2786 45.4665C39.1141 45.6319 38.9185 45.7629 38.7031 45.8522C38.4876 45.9414 38.2566 45.9871 38.0233 45.9864C37.7901 45.9871 37.5591 45.9415 37.3436 45.8522C37.1282 45.763 36.9325 45.6319 36.7681 45.4665C36.6027 45.302 36.4717 45.1064 36.3824 44.8909C36.2932 44.6755 36.2475 44.4445 36.2482 44.2112C36.2475 43.978 36.2932 43.747 36.3824 43.5315C36.4717 43.3161 36.6028 43.1205 36.7681 42.956L40.7462 38.9779L36.7681 34.9998C36.076 34.3076 36.076 33.1815 36.7681 32.4893C36.9325 32.3239 37.1282 32.1929 37.3436 32.1036C37.5591 32.0144 37.7901 31.9687 38.0233 31.9694C38.4974 31.9694 38.9432 32.154 39.2785 32.4893L43.2567 36.4674L47.2349 32.4893C47.3993 32.3239 47.595 32.1928 47.8104 32.1036C48.0259 32.0144 48.2569 31.9687 48.4901 31.9694C48.9643 31.9694 49.4101 32.154 49.7454 32.4893C50.4375 33.1815 50.4375 34.3076 49.7454 34.9998L45.7673 38.9779L49.7454 42.956C49.9108 43.1204 50.0419 43.3161 50.1311 43.5315C50.2203 43.747 50.266 43.978 50.2653 44.2112C50.266 44.4445 50.2203 44.6755 50.1311 44.891C50.0418 45.1064 49.9108 45.302 49.7454 45.4665C49.5809 45.6319 49.3853 45.763 49.1699 45.8522C48.9544 45.9414 48.7234 45.9871 48.4902 45.9864ZM43.2569 41.3739L47.2923 45.4092C47.4493 45.567 47.6359 45.6921 47.8416 45.7773C48.0472 45.8625 48.2677 45.906 48.4902 45.9054C48.7128 45.906 48.9333 45.8625 49.1389 45.7773C49.3445 45.6922 49.5312 45.567 49.6882 45.4092C49.846 45.2523 49.9711 45.0656 50.0563 44.8599C50.1415 44.6543 50.185 44.4338 50.1844 44.2112C50.185 43.9887 50.1415 43.7682 50.0563 43.5626C49.9711 43.357 49.846 43.1703 49.6882 43.0133L45.6529 38.978L49.6882 34.9426C50.3487 34.282 50.3487 33.2072 49.6882 32.5466C49.3682 32.2267 48.9428 32.0504 48.4902 32.0504C48.0377 32.0504 47.6123 32.2267 47.2923 32.5466L43.2569 36.582L39.2214 32.5466C39.0645 32.3888 38.8778 32.2637 38.6721 32.1786C38.4665 32.0934 38.246 32.0498 38.0234 32.0504C37.8009 32.0498 37.5804 32.0934 37.3748 32.1785C37.1691 32.2637 36.9825 32.3888 36.8255 32.5466C36.165 33.2072 36.165 34.282 36.8255 34.9426L40.8609 38.978L36.8255 43.0133C36.6677 43.1703 36.5426 43.357 36.4574 43.5626C36.3723 43.7682 36.3287 43.9887 36.3293 44.2112C36.3287 44.4338 36.3723 44.6543 36.4574 44.8599C36.5426 45.0656 36.6677 45.2523 36.8255 45.4092C36.9825 45.5671 37.1691 45.6922 37.3748 45.7773C37.5804 45.8625 37.8009 45.9061 38.0234 45.9054C38.246 45.906 38.4665 45.8625 38.6721 45.7773C38.8778 45.6922 39.0645 45.567 39.2214 45.4092L43.2569 41.3739Z" fill="#304BA0"/>
</g>
<defs>
<clipPath id="clip0_687_657">
<rect width="48" height="48" fill="white" transform="translate(24 20)"/>
</clipPath>
</defs>
</svg>
