<svg width="16" height="16" viewBox="0 0 16 16" fill="none" xmlns="http://www.w3.org/2000/svg">
<path d="M14.7299 16L12.5198 13.8388C11.8848 14.3624 11.1545 14.7722 10.3289 15.0681C9.50335 15.364 8.64933 15.512 7.76684 15.512C5.59607 15.512 3.7589 14.7615 2.25534 13.2604C0.75178 11.7594 0 9.92522 0 7.7579C0 5.59079 0.751568 3.75598 2.2547 2.25346C3.75784 0.751154 5.59459 0 7.76494 0C9.93507 0 11.7725 0.75073 13.2771 2.25219C14.7815 3.75365 15.5337 5.58826 15.5337 7.756C15.5337 8.66178 15.3815 9.52687 15.0771 10.3513C14.7725 11.1757 14.3662 11.8927 13.8581 12.5023L16 14.7317L14.7299 16ZM7.76684 13.6099C9.40334 13.6099 10.7894 13.0427 11.9251 11.9084C13.0609 10.7744 13.6289 9.39021 13.6289 7.756C13.6289 6.12179 13.0609 4.73765 11.9251 3.60357C10.7894 2.46928 9.40334 1.90214 7.76684 1.90214C6.13035 1.90214 4.74427 2.46928 3.60861 3.60357C2.47273 4.73765 1.9048 6.12179 1.9048 7.756C1.9048 9.39021 2.47273 10.7744 3.60861 11.9084C4.74427 13.0427 6.13035 13.6099 7.76684 13.6099Z" fill="#A8A8A8"/>
</svg>
