<svg width="24" height="24" viewBox="0 0 24 24" fill="none" xmlns="http://www.w3.org/2000/svg">
<path d="M7.81352 2.385C6.31685 2.779 4.83085 3.207 3.35552 3.669C3.22329 3.70811 3.1048 3.78376 3.01369 3.88726C2.92257 3.99076 2.86255 4.11788 2.84052 4.254C2.43244 6.67104 2.53669 9.14686 3.14651 11.521C3.75634 13.8952 4.85813 16.1148 6.38052 18.036C7.40484 19.3256 8.61623 20.4547 9.97452 21.386C10.4181 21.6912 10.8864 21.9588 11.3745 22.186C11.5236 22.2555 11.6773 22.3146 11.8345 22.363C11.8873 22.3803 11.9415 22.3927 11.9965 22.4C12.0498 22.3916 12.1023 22.3789 12.1535 22.362C12.3115 22.3139 12.4659 22.2548 12.6155 22.185C13.1032 21.9569 13.5714 21.6893 14.0155 21.385C15.3738 20.4537 16.5852 19.3246 17.6095 18.035C19.1319 16.1138 20.2337 13.8942 20.8435 11.52C21.4534 9.14586 21.5576 6.67004 21.1495 4.253C21.1277 4.11679 21.0678 3.98955 20.9766 3.88602C20.8855 3.78248 20.7669 3.70689 20.6345 3.668C19.6115 3.348 17.8845 2.828 16.1765 2.385C14.8129 1.98458 13.4125 1.7216 11.9965 1.6C10.5795 1.72187 9.17816 1.98418 7.81352 2.385ZM7.39652 0.84C8.89618 0.399568 10.438 0.11802 11.9965 0C13.5551 0.11802 15.0969 0.399568 16.5965 0.84C18.3405 1.29 20.0965 1.822 21.1335 2.14C21.5583 2.26756 21.9382 2.51324 22.2287 2.84839C22.5192 3.18355 22.7085 3.59438 22.7745 4.033C23.2119 6.66386 23.0927 9.35719 22.4248 11.9391C21.7568 14.5211 20.5549 16.9343 18.8965 19.023C17.7706 20.4388 16.4392 21.6781 14.9465 22.7C14.4246 23.0579 13.8737 23.3717 13.2995 23.638C12.8933 23.8433 12.4505 23.9664 11.9965 24C11.5438 23.9664 11.1021 23.8441 10.6965 23.64C10.1213 23.3732 9.56935 23.0588 9.04652 22.7C7.5539 21.6781 6.22251 20.4387 5.09652 19.023C3.43885 16.9349 2.23729 14.5226 1.56934 11.9415C0.901382 9.36047 0.781873 6.66807 1.21852 4.038C1.28443 3.5995 1.47358 3.18876 1.76393 2.85361C2.05428 2.51847 2.43389 2.27272 2.85852 2.145C4.35985 1.675 5.87252 1.24 7.39652 0.84Z" fill="#304BA0"/>
<path d="M15.2712 9.20097C15.3346 9.26405 15.3848 9.33902 15.4191 9.42156C15.4533 9.5041 15.471 9.5926 15.471 9.68197C15.471 9.77135 15.4533 9.85984 15.4191 9.94239C15.3848 10.0249 15.3346 10.0999 15.2712 10.163L11.1992 14.236C11.1362 14.2993 11.0612 14.3495 10.9787 14.3838C10.8961 14.4181 10.8076 14.4357 10.7182 14.4357C10.6289 14.4357 10.5404 14.4181 10.4578 14.3838C10.3753 14.3495 10.3003 14.2993 10.2372 14.236L8.19924 12.201C8.07167 12.0734 8 11.9004 8 11.72C8 11.5396 8.07167 11.3665 8.19924 11.239C8.32681 11.1114 8.49983 11.0397 8.68024 11.0397C8.86065 11.0397 9.03367 11.1114 9.16124 11.239L10.7152 12.795L14.3092 9.20097C14.3723 9.13766 14.4473 9.08742 14.5298 9.05314C14.6124 9.01887 14.7009 9.00122 14.7902 9.00122C14.8796 9.00122 14.9681 9.01887 15.0507 9.05314C15.1332 9.08742 15.2082 9.13766 15.2712 9.20097Z" fill="#304BA0"/>
</svg>
