<svg width="20" height="20" viewBox="0 0 20 20" fill="none" xmlns="http://www.w3.org/2000/svg">
<path d="M6.15375 19.5578C5.66792 19.5578 5.25483 19.3875 4.9145 19.047C4.57417 18.7067 4.404 18.2936 4.404 17.8078C4.404 17.3218 4.57417 16.9086 4.9145 16.5683C5.25483 16.2279 5.66792 16.0577 6.15375 16.0577C6.63975 16.0577 7.05292 16.2279 7.39325 16.5683C7.73358 16.9086 7.90375 17.3218 7.90375 17.8078C7.90375 18.2936 7.73358 18.7067 7.39325 19.047C7.05292 19.3875 6.63975 19.5578 6.15375 19.5578ZM15.8463 19.5578C15.3603 19.5578 14.9471 19.3875 14.6068 19.047C14.2664 18.7067 14.0963 18.2936 14.0963 17.8078C14.0963 17.3218 14.2664 16.9086 14.6068 16.5683C14.9471 16.2279 15.3603 16.0577 15.8463 16.0577C16.3321 16.0577 16.7452 16.2279 17.0855 16.5683C17.4258 16.9086 17.596 17.3218 17.596 17.8078C17.596 18.2936 17.4258 18.7067 17.0855 19.047C16.7452 19.3875 16.3321 19.5578 15.8463 19.5578ZM5.01525 3.75L7.55 9.05775H14.3673C14.4249 9.05775 14.4763 9.04333 14.5213 9.0145C14.5661 8.98567 14.6045 8.94558 14.6365 8.89425L17.3193 4.01925C17.3578 3.94875 17.3609 3.88625 17.3288 3.83175C17.2968 3.77725 17.2423 3.75 17.1653 3.75H5.01525ZM4.29625 2.25H18.1808C18.5898 2.25 18.899 2.42408 19.1085 2.77225C19.3182 3.12025 19.3282 3.47567 19.1385 3.8385L15.9345 9.64225C15.7705 9.93075 15.5536 10.1554 15.2838 10.3162C15.0138 10.4773 14.7179 10.5577 14.3963 10.5577H7.1L5.94225 12.673C5.89092 12.75 5.88933 12.8333 5.9375 12.923C5.9855 13.0128 6.05758 13.0577 6.15375 13.0577H17.596V14.5577H6.15375C5.48708 14.5577 4.98617 14.2703 4.651 13.6953C4.31567 13.1203 4.30383 12.5462 4.6155 11.973L6.04225 9.40775L2.404 1.75H0.5V0.25H3.34625L4.29625 2.25Z" fill="#696969"/>
</svg>
