<svg width="8" height="8" viewBox="0 0 8 8" fill="none" xmlns="http://www.w3.org/2000/svg">
<mask id="mask0_46_401" style="mask-type:alpha" maskUnits="userSpaceOnUse" x="0" y="0" width="8" height="8">
<rect width="8" height="8" fill="#E6E6E6"/>
</mask>
<g mask="url(#mask0_46_401)">
<path d="M2.99761 5.79475L5.79475 4L2.99761 2.20525V5.79475ZM4 8C3.43994 8 2.91806 7.89499 2.43437 7.68496C1.95068 7.47494 1.5291 7.1902 1.16964 6.83074C0.809928 6.47103 0.52506 6.04932 0.315036 5.56563C0.105012 5.08194 0 4.56006 0 4C0 3.43994 0.105012 2.91806 0.315036 2.43437C0.52506 1.95068 0.809928 1.52897 1.16964 1.16926C1.5291 0.809801 1.95068 0.52506 2.43437 0.315036C2.91806 0.105012 3.43994 0 4 0C4.56006 0 5.08194 0.105012 5.56563 0.315036C6.04932 0.52506 6.47103 0.809801 6.83074 1.16926C7.1902 1.52897 7.47494 1.95068 7.68496 2.43437C7.89499 2.91806 8 3.43994 8 4C8 4.56006 7.89499 5.08194 7.68496 5.56563C7.47494 6.04932 7.1902 6.47103 6.83074 6.83074C6.47103 7.1902 6.04932 7.47494 5.56563 7.68496C5.08194 7.89499 4.56006 8 4 8ZM4 6.98807C4.8401 6.98807 5.54807 6.70002 6.12391 6.12391C6.70002 5.54807 6.98807 4.8401 6.98807 4C6.98807 3.1599 6.70002 2.45181 6.12391 1.8757C5.54807 1.29986 4.8401 1.01193 4 1.01193C3.1599 1.01193 2.45193 1.29986 1.87609 1.8757C1.29998 2.45181 1.01193 3.1599 1.01193 4C1.01193 4.8401 1.29998 5.54807 1.87609 6.12391C2.45193 6.70002 3.1599 6.98807 4 6.98807Z" fill="#B1BDE3"/>
</g>
</svg>
