<svg width="24" height="24" viewBox="0 0 24 24" fill="none" xmlns="http://www.w3.org/2000/svg">
<mask id="mask0_50_791" style="mask-type:alpha" maskUnits="userSpaceOnUse" x="0" y="0" width="24" height="24">
<rect width="24" height="24" fill="#E6E6E6"/>
</mask>
<g mask="url(#mask0_50_791)">
<path d="M8.99284 17.3842L17.3842 12L8.99284 6.61575V17.3842ZM12 24C10.3198 24 8.75418 23.685 7.3031 23.0549C5.85203 22.4248 4.5873 21.5706 3.50893 20.4922C2.42978 19.4131 1.57518 18.148 0.945107 16.6969C0.315036 15.2458 0 13.6802 0 12C0 10.3198 0.315036 8.75418 0.945107 7.3031C1.57518 5.85203 2.42978 4.58692 3.50893 3.50778C4.5873 2.4294 5.85203 1.57518 7.3031 0.945107C8.75418 0.315036 10.3198 0 12 0C13.6802 0 15.2458 0.315036 16.6969 0.945107C18.148 1.57518 19.4131 2.4294 20.4922 3.50778C21.5706 4.58692 22.4248 5.85203 23.0549 7.3031C23.685 8.75418 24 10.3198 24 12C24 13.6802 23.685 15.2458 23.0549 16.6969C22.4248 18.148 21.5706 19.4131 20.4922 20.4922C19.4131 21.5706 18.148 22.4248 16.6969 23.0549C15.2458 23.685 13.6802 24 12 24ZM12 20.9642C14.5203 20.9642 16.6442 20.1 18.3717 18.3717C20.1 16.6442 20.9642 14.5203 20.9642 12C20.9642 9.47971 20.1 7.35542 18.3717 5.62711C16.6442 3.89957 14.5203 3.0358 12 3.0358C9.47971 3.0358 7.3558 3.89957 5.62826 5.62711C3.89995 7.35542 3.0358 9.47971 3.0358 12C3.0358 14.5203 3.89995 16.6442 5.62826 18.3717C7.3558 20.1 9.47971 20.9642 12 20.9642Z" fill="#304BA0"/>
</g>
</svg>
