<svg width="25" height="24" viewBox="0 0 25 24" fill="none" xmlns="http://www.w3.org/2000/svg">
<mask id="mask0_99_681" style="mask-type:alpha" maskUnits="userSpaceOnUse" x="0" y="0" width="25" height="24">
<rect x="0.5" width="24" height="24" fill="#D9D9D9"/>
</mask>
<g mask="url(#mask0_99_681)">
<path d="M7.80775 22.5C7.30258 22.5 6.875 22.325 6.525 21.975C6.175 21.625 6 21.1974 6 20.6923V3.30775C6 2.80258 6.175 2.375 6.525 2.025C6.875 1.675 7.30258 1.5 7.80775 1.5H17.1923C17.6974 1.5 18.125 1.675 18.475 2.025C18.825 2.375 19 2.80258 19 3.30775V20.6923C19 21.1974 18.825 21.625 18.475 21.975C18.125 22.325 17.6974 22.5 17.1923 22.5H7.80775ZM7.5 19.75V20.6923C7.5 20.7693 7.53208 20.8398 7.59625 20.9038C7.66025 20.9679 7.73075 21 7.80775 21H17.1923C17.2692 21 17.3398 20.9679 17.4038 20.9038C17.4679 20.8398 17.5 20.7693 17.5 20.6923V19.75H7.5ZM7.5 18.25H17.5V5.75H7.5V18.25ZM7.5 4.25H17.5V3.30775C17.5 3.23075 17.4679 3.16025 17.4038 3.09625C17.3398 3.03208 17.2692 3 17.1923 3H7.80775C7.73075 3 7.66025 3.03208 7.59625 3.09625C7.53208 3.16025 7.5 3.23075 7.5 3.30775V4.25Z" fill="black"/>
</g>
</svg>
