<svg width="24" height="24" viewBox="0 0 24 24" fill="none" xmlns="http://www.w3.org/2000/svg">
<mask id="mask0_1983_1212" style="mask-type:alpha" maskUnits="userSpaceOnUse" x="0" y="0" width="24" height="24">
<rect width="24" height="24" transform="matrix(1 0 0 -1 0 24)" fill="#D9D9D9"/>
</mask>
<g mask="url(#mask0_1983_1212)">
<path d="M17.7308 3.4997H7.2115V15.4997L13.8462 22.0957L14.6923 21.2497C14.7961 21.1459 14.8823 21.0084 14.951 20.8372C15.0195 20.666 15.0538 20.5048 15.0538 20.3535V20.0997L13.9923 15.4997H20.6923C21.1679 15.4997 21.5881 15.3173 21.9527 14.9525C22.3176 14.5878 22.5 14.1676 22.5 13.692V12.0767C22.5 11.9729 22.4865 11.8607 22.4595 11.7402C22.4327 11.6197 22.4026 11.5075 22.3693 11.4035L19.5038 4.64195C19.3603 4.32145 19.1199 4.05095 18.7828 3.83045C18.4456 3.60995 18.0949 3.4997 17.7308 3.4997ZM8.7115 4.9997H17.7308C17.8013 4.9997 17.8733 5.01895 17.947 5.05745C18.0208 5.09595 18.077 5.16004 18.1155 5.2497L21 11.9997V13.692C21 13.7818 20.9712 13.8555 20.9135 13.9132C20.8558 13.9709 20.7821 13.9997 20.6923 13.9997H12.0963L13.35 19.4805L8.7115 14.8612V4.9997ZM7.2115 15.4997V13.9997H4V4.9997H7.2115V3.4997H2.5V15.4997H7.2115Z" fill="#304BA0"/>
</g>
</svg>
