<svg width="22" height="24" viewBox="0 0 22 24" fill="none" xmlns="http://www.w3.org/2000/svg">
<mask id="mask0_1983_1199" style="mask-type:alpha" maskUnits="userSpaceOnUse" x="0" y="0" width="22" height="24">
<rect width="22" height="24" transform="matrix(-1 0 0 1 22 0)" fill="#D9D9D9"/>
</mask>
<g mask="url(#mask0_1983_1199)">
<path d="M16.2532 3.90387H7.17475V15.9036L13.2564 22.4999L14.0319 21.6536C14.1272 21.5498 14.2063 21.4123 14.2691 21.2411C14.332 21.07 14.3635 20.9088 14.3635 20.7576V20.5036L13.3902 15.9036H18.9679C19.4039 15.9036 19.7891 15.7213 20.1234 15.3566C20.4578 14.9918 20.625 14.5716 20.625 14.0961V12.4806C20.625 12.3768 20.615 12.2646 20.595 12.1441C20.575 12.0236 20.545 11.9115 20.5051 11.8076L17.8784 5.04612C17.7469 4.72562 17.5266 4.45512 17.2175 4.23462C16.9085 4.01412 16.587 3.90387 16.2532 3.90387ZM5.79975 15.9036V3.90387H2.29167V15.9036H5.79975Z" fill="#304BA0"/>
</g>
</svg>
