<svg width="24" height="24" viewBox="0 0 24 24" fill="none" xmlns="http://www.w3.org/2000/svg">
<mask id="mask0_1983_1194" style="mask-type:alpha" maskUnits="userSpaceOnUse" x="0" y="0" width="24" height="24">
<rect width="24" height="24" fill="#304BA0"/>
</mask>
<g mask="url(#mask0_1983_1194)">
<path d="M17.7308 20.5H7.827V8.49999L14.4615 1.90399L15.3075 2.74999C15.4115 2.85383 15.4978 2.99133 15.5663 3.16249C15.6349 3.33366 15.6693 3.49491 15.6693 3.64624V3.89999L14.6075 8.49999H20.6923C21.1679 8.49999 21.5881 8.68241 21.9527 9.04724C22.3176 9.41191 22.5 9.83208 22.5 10.3077V11.923C22.5 12.0268 22.4891 12.139 22.4673 12.2595C22.4454 12.38 22.4128 12.4922 22.3693 12.5962L19.5038 19.3577C19.3603 19.6782 19.1199 19.9487 18.7828 20.1692C18.4456 20.3897 18.0949 20.5 17.7308 20.5ZM6.327 8.49999V20.5H2.5V8.49999H6.327Z" fill="#304BA0"/>
</g>
</svg>
