<svg width="24" height="24" viewBox="0 0 24 24" fill="none" xmlns="http://www.w3.org/2000/svg">
<mask id="mask0_1983_1207" style="mask-type:alpha" maskUnits="userSpaceOnUse" x="0" y="0" width="24" height="24">
<rect width="24" height="24" fill="#D9D9D9"/>
</mask>
<g mask="url(#mask0_1983_1207)">
<path d="M17.7308 20.5003H7.2115V8.5003L13.8462 1.9043L14.6923 2.7503C14.7961 2.85413 14.8823 2.99163 14.951 3.1628C15.0195 3.33396 15.0538 3.49521 15.0538 3.64655V3.9003L13.9923 8.5003H20.6923C21.1679 8.5003 21.5881 8.68271 21.9527 9.04755C22.3176 9.41221 22.5 9.83238 22.5 10.308V11.9233C22.5 12.0271 22.4865 12.1393 22.4595 12.2598C22.4327 12.3803 22.4026 12.4925 22.3693 12.5965L19.5038 19.358C19.3603 19.6785 19.1199 19.949 18.7828 20.1695C18.4456 20.39 18.0949 20.5003 17.7308 20.5003ZM8.7115 19.0003H17.7308C17.8013 19.0003 17.8733 18.981 17.947 18.9425C18.0208 18.904 18.077 18.84 18.1155 18.7503L21 12.0003V10.308C21 10.2182 20.9712 10.1445 20.9135 10.0868C20.8558 10.0291 20.7821 10.0003 20.6923 10.0003H12.0963L13.35 4.51955L8.7115 9.1388V19.0003ZM7.2115 8.5003V10.0003H4V19.0003H7.2115V20.5003H2.5V8.5003H7.2115Z" fill="#304BA0"/>
</g>
</svg>
