<svg width="24" height="24" viewBox="0 0 24 24" fill="none" xmlns="http://www.w3.org/2000/svg">
<mask id="mask0_1783_2126" style="mask-type:alpha" maskUnits="userSpaceOnUse" x="0" y="0" width="24" height="24">
<rect width="24" height="24" fill="#D9D9D9"/>
</mask>
<g mask="url(#mask0_1783_2126)">
<path d="M7.19227 10.6152L12 2.73071L16.8078 10.6152H7.19227ZM17.5 21.6152C16.3525 21.6152 15.3798 21.2162 14.5818 20.4182C13.7838 19.6202 13.3848 18.6475 13.3848 17.5C13.3848 16.3525 13.7838 15.3797 14.5818 14.5817C15.3798 13.7837 16.3525 13.3847 17.5 13.3847C18.6475 13.3847 19.6203 13.7837 20.4183 14.5817C21.2163 15.3797 21.6153 16.3525 21.6153 17.5C21.6153 18.6475 21.2163 19.6202 20.4183 20.4182C19.6203 21.2162 18.6475 21.6152 17.5 21.6152ZM3.38477 21.1152V13.8847H10.6153V21.1152H3.38477ZM17.4998 20.1155C18.2319 20.1155 18.8509 19.8626 19.3568 19.357C19.8626 18.8513 20.1155 18.2324 20.1155 17.5002C20.1155 16.768 19.8627 16.149 19.357 15.6432C18.8513 15.1374 18.2324 14.8845 17.5003 14.8845C16.7681 14.8845 16.1491 15.1373 15.6433 15.643C15.1374 16.1486 14.8845 16.7675 14.8845 17.4997C14.8845 18.2319 15.1373 18.8509 15.643 19.3567C16.1487 19.8625 16.7676 20.1155 17.4998 20.1155ZM4.88452 19.6155H9.11552V15.3845H4.88452V19.6155ZM9.83852 9.11546H14.1615L12 5.63846L9.83852 9.11546Z" fill="#696969"/>
</g>
</svg>
