<svg width="25" height="25" viewBox="0 0 25 25" fill="none" xmlns="http://www.w3.org/2000/svg">
<mask id="mask0_1243_1647" style="mask-type:alpha" maskUnits="userSpaceOnUse" x="0" y="0" width="25" height="25">
<rect x="0.316406" y="0.514648" width="24" height="24" fill="#D9D9D9"/>
</mask>
<g mask="url(#mask0_1243_1647)">
<path d="M7.71641 16.5146L10.7664 13.4646L12.7664 15.4646L16.3164 11.9396V13.5146H18.3164V8.51465H13.3164V10.5146H14.8914L12.7664 12.6396L10.7664 10.6396L6.31641 15.1146L7.71641 16.5146ZM5.31641 21.5146C4.76641 21.5146 4.29557 21.3188 3.90391 20.9271C3.51224 20.5355 3.31641 20.0646 3.31641 19.5146V5.51465C3.31641 4.96465 3.51224 4.49382 3.90391 4.10215C4.29557 3.71048 4.76641 3.51465 5.31641 3.51465H19.3164C19.8664 3.51465 20.3372 3.71048 20.7289 4.10215C21.1206 4.49382 21.3164 4.96465 21.3164 5.51465V19.5146C21.3164 20.0646 21.1206 20.5355 20.7289 20.9271C20.3372 21.3188 19.8664 21.5146 19.3164 21.5146H5.31641ZM5.31641 19.5146H19.3164V5.51465H5.31641V19.5146Z" fill="#304BA0"/>
</g>
</svg>
