<svg width="60" height="60" viewBox="0 0 60 60" fill="none" xmlns="http://www.w3.org/2000/svg">
<path d="M15.035 20.0153C15.3207 17.756 18.2569 14.6854 20.5872 15.0261L20.5835 15.0224C22.8513 15.4533 24.6465 19.3565 25.6588 21.1116C26.376 22.385 25.9103 23.6753 25.2413 24.2197C24.3388 24.9471 22.9275 25.9508 23.2236 26.9585C23.75 28.75 30 35 33.074 36.7768C34.2375 37.4493 35.0813 35.6755 35.8018 34.7668C36.3253 34.0678 37.6165 33.65 38.887 34.34C40.7845 35.445 42.572 36.7293 44.225 38.175C45.0505 38.865 45.2443 39.8848 44.6723 40.9625C43.6648 42.8608 40.7508 45.364 38.6355 44.8553C34.941 43.967 20 38.175 15.2008 21.395C14.9309 20.6012 14.9989 20.3011 15.035 20.0153Z" fill="#0F0F0F"/>
<path fill-rule="evenodd" clip-rule="evenodd" d="M30 57.5C26.941 57.5 25.2485 57.1717 22.5 56.25L17.2361 58.882C13.9116 60.5442 10 58.1268 10 54.4098V48.75C4.61637 43.73 2.5 37.9418 2.5 30C2.5 14.8122 14.8122 2.5 30 2.5C45.1877 2.5 57.5 14.8122 57.5 30C57.5 45.1877 45.1877 57.5 30 57.5ZM15 46.5758L13.4099 45.093C9.22717 41.193 7.5 36.8327 7.5 30C7.5 17.5736 17.5736 7.5 30 7.5C42.4265 7.5 52.5 17.5736 52.5 30C52.5 42.4265 42.4265 52.5 30 52.5C27.5357 52.5 26.38 52.2775 24.0899 51.5095L22.1212 50.8493L15 54.4098V46.5758Z" fill="#0F0F0F"/>
</svg>
